G04*
G04 #@! TF.GenerationSoftware,Altium Limited,Altium Designer,24.5.2 (23)*
G04*
G04 Layer_Color=65535*
%FSLAX25Y25*%
%MOIN*%
G70*
G04*
G04 #@! TF.SameCoordinates,F9E145AB-4376-4A3A-B871-3CA844BA1A44*
G04*
G04*
G04 #@! TF.FilePolarity,Positive*
G04*
G01*
G75*
%ADD10C,0.00787*%
%ADD11C,0.00984*%
%ADD12C,0.01968*%
%ADD13C,0.00598*%
%ADD14C,0.00500*%
%ADD15C,0.01000*%
%ADD16C,0.00800*%
D10*
X103392Y159409D02*
G03*
X103392Y159409I-394J0D01*
G01*
X242577Y128032D02*
G03*
X242577Y128032I-394J0D01*
G01*
X136406Y14173D02*
Y16142D01*
Y14173D02*
X138374D01*
Y15748D01*
X174988D01*
Y12992D02*
Y15748D01*
Y12992D02*
X183650D01*
Y15748D01*
X220264D01*
Y14173D02*
Y15748D01*
Y14173D02*
X221839D01*
Y16142D01*
Y41339D02*
Y43307D01*
X220264D02*
X221839D01*
X220264Y41339D02*
Y43307D01*
X186799Y41339D02*
X220264D01*
X186799D02*
Y43307D01*
X171839D02*
X186799D01*
X171839Y41339D02*
Y43307D01*
X138374Y41339D02*
X171839D01*
X138374D02*
Y43307D01*
X136406D02*
X138374D01*
X136406Y41339D02*
Y43307D01*
X221839Y16142D02*
Y41339D01*
X136406Y16142D02*
Y41339D01*
Y244488D02*
Y246457D01*
Y244488D02*
X138374D01*
Y246063D01*
X174988D01*
Y243307D02*
Y246063D01*
Y243307D02*
X183650D01*
Y246063D01*
X220264D01*
Y244488D02*
Y246063D01*
Y244488D02*
X221839D01*
Y246457D01*
Y271654D02*
Y273622D01*
X220264D02*
X221839D01*
X220264Y271654D02*
Y273622D01*
X186799Y271654D02*
X220264D01*
X186799D02*
Y273622D01*
X171839D02*
X186799D01*
X171839Y271654D02*
Y273622D01*
X138374Y271654D02*
X171839D01*
X138374D02*
Y273622D01*
X136406D02*
X138374D01*
X136406Y271654D02*
Y273622D01*
X221839Y246457D02*
Y271654D01*
X136406Y246457D02*
Y271654D01*
X342250Y104789D02*
Y105577D01*
X339494Y104789D02*
X342250D01*
X342250Y105577D02*
Y106364D01*
X342152Y188647D02*
Y190222D01*
X340282Y188647D02*
X342152D01*
X340282Y152427D02*
Y188647D01*
Y152427D02*
X344219D01*
X340282Y106364D02*
X342250D01*
X340282Y142978D02*
X340282Y106364D01*
Y142978D02*
X344219D01*
Y152427D01*
X319022Y104789D02*
Y106364D01*
X320990D01*
Y140616D01*
X319022D02*
X320990D01*
X319022D02*
Y155183D01*
X320990D01*
Y188647D01*
X319022D02*
X320990D01*
X319022D02*
Y190222D01*
Y104789D02*
X339494D01*
X319022Y190222D02*
X342152D01*
X7087Y189646D02*
Y190433D01*
X9843D01*
X7087Y188858D02*
Y189646D01*
X7185Y105000D02*
Y106575D01*
X9055D01*
Y142795D01*
X5118D02*
X9055D01*
X7087Y188858D02*
X9055D01*
X9055Y152244D01*
X5118D02*
X9055D01*
X5118Y142795D02*
Y152244D01*
X30315Y188858D02*
Y190433D01*
X28346Y188858D02*
X30315D01*
X28346Y154606D02*
Y188858D01*
Y154606D02*
X30315D01*
Y140039D02*
Y154606D01*
X28346Y140039D02*
X30315D01*
X28346Y106575D02*
Y140039D01*
Y106575D02*
X30315D01*
Y105000D02*
Y106575D01*
X9843Y190433D02*
X30315D01*
X7185Y105000D02*
X30315D01*
X205170Y136496D02*
Y148898D01*
X165799Y136496D02*
X205170D01*
X165799D02*
Y148898D01*
X205170D01*
D11*
X203477Y159528D02*
G03*
X203477Y159528I-492J0D01*
G01*
D12*
X203201Y145945D02*
G03*
X203201Y145945I-984J0D01*
G01*
D13*
X285826Y195768D02*
X288976D01*
X212007D02*
X215157D01*
X136220D02*
X139369D01*
X61417D02*
X64566D01*
X94883Y95571D02*
X98032D01*
X168702D02*
X171851D01*
X211024D02*
X214174D01*
X284843D02*
X287993D01*
X337993Y88681D02*
X341142D01*
X326378Y82106D02*
Y83445D01*
X323228Y82106D02*
Y83445D01*
X284842Y159764D02*
Y161102D01*
X287992Y159764D02*
Y161102D01*
X276181Y159764D02*
Y161102D01*
X273031Y159764D02*
Y161102D01*
X51575Y201102D02*
Y202441D01*
X48425Y201102D02*
Y202441D01*
X38976Y201102D02*
Y202441D01*
X35827Y201102D02*
Y202441D01*
X89961Y204056D02*
Y205394D01*
X93110Y204056D02*
Y205394D01*
X124212Y201102D02*
Y202441D01*
X127362Y201102D02*
Y202441D01*
X110630Y201102D02*
Y202441D01*
X113779Y201102D02*
Y202441D01*
X163779Y204055D02*
Y205394D01*
X166929Y204055D02*
Y205394D01*
X199665Y201102D02*
Y202441D01*
X202815Y201102D02*
Y202441D01*
X186417Y201102D02*
Y202441D01*
X189567Y201102D02*
Y202441D01*
X273819Y201102D02*
Y202441D01*
X276968Y201102D02*
Y202441D01*
X260236Y201102D02*
Y202441D01*
X263386Y201102D02*
Y202441D01*
X263386Y89291D02*
Y90630D01*
X260236Y89291D02*
Y90630D01*
X235630Y82008D02*
Y83346D01*
X238779Y82008D02*
Y83346D01*
X116732Y82008D02*
Y83346D01*
X113583Y82008D02*
Y83346D01*
X144390Y89291D02*
Y90630D01*
X147539Y89291D02*
Y90630D01*
X316436Y204055D02*
Y205394D01*
X313287Y204055D02*
Y205394D01*
X186417Y88995D02*
Y90334D01*
X189567Y88995D02*
Y90334D01*
X38976Y82008D02*
Y83346D01*
X35827Y82008D02*
Y83346D01*
X313583Y82008D02*
Y83346D01*
X310433Y82008D02*
Y83346D01*
X239567Y204056D02*
Y205394D01*
X242717Y204056D02*
Y205394D01*
X202166Y88995D02*
Y90334D01*
X199016Y88995D02*
Y90334D01*
X275984Y89291D02*
Y90630D01*
X272835Y89291D02*
Y90630D01*
X161171Y89291D02*
Y90630D01*
X158022Y89291D02*
Y90630D01*
X74409Y88898D02*
Y90236D01*
X71260Y88898D02*
Y90236D01*
X86221Y88898D02*
Y90236D01*
X83071Y88898D02*
Y90236D01*
D14*
X84258Y134055D02*
Y151378D01*
X103943Y134055D02*
Y151378D01*
X260924Y136063D02*
Y153386D01*
X241238Y136063D02*
Y153386D01*
D15*
X212536Y9935D02*
Y7936D01*
X214036D01*
X213536Y8936D01*
Y9436D01*
X214036Y9935D01*
X215036D01*
X215535Y9436D01*
Y8436D01*
X215036Y7936D01*
X212536Y10935D02*
X214536D01*
X215535Y11935D01*
X214536Y12934D01*
X212536D01*
X202694Y4937D02*
X204693D01*
X205693Y5937D01*
X204693Y6936D01*
X202694D01*
X203194Y9935D02*
X202694Y9436D01*
Y8436D01*
X203194Y7936D01*
X205193D01*
X205693Y8436D01*
Y9436D01*
X205193Y9935D01*
X203194Y12934D02*
X202694Y12435D01*
Y11435D01*
X203194Y10935D01*
X205193D01*
X205693Y11435D01*
Y12435D01*
X205193Y12934D01*
X145653Y45291D02*
X142655D01*
Y46791D01*
X143154Y47291D01*
X144154D01*
X144654Y46791D01*
Y45291D01*
X145653Y48290D02*
X142655D01*
Y49790D01*
X143154Y50290D01*
X144154D01*
X144654Y49790D01*
Y48290D01*
Y49290D02*
X145653Y50290D01*
Y52789D02*
Y51789D01*
X145154Y51289D01*
X144154D01*
X143654Y51789D01*
Y52789D01*
X144154Y53289D01*
X144654D01*
Y51289D01*
X145653Y54288D02*
Y55788D01*
X145154Y56288D01*
X144654Y55788D01*
Y54788D01*
X144154Y54288D01*
X143654Y54788D01*
Y56288D01*
X145653Y57288D02*
Y58287D01*
Y57787D01*
X142655D01*
X143154Y57288D01*
X152497Y45291D02*
X155496D01*
Y47291D01*
X152497Y50290D02*
Y48290D01*
X155496D01*
Y50290D01*
X153997Y48290D02*
Y49290D01*
X152497Y51289D02*
X155496D01*
Y52789D01*
X154996Y53289D01*
X152997D01*
X152497Y52789D01*
Y51289D01*
X153997Y54288D02*
Y56288D01*
X211552Y45291D02*
X214551D01*
Y47291D01*
X211552Y50290D02*
Y48290D01*
X214551D01*
Y50290D01*
X213052Y48290D02*
Y49290D01*
X211552Y51289D02*
X214551D01*
Y52789D01*
X214051Y53289D01*
X212052D01*
X211552Y52789D01*
Y51289D01*
X213052Y54288D02*
Y56288D01*
X204709Y45291D02*
X201710D01*
Y46791D01*
X202209Y47291D01*
X203209D01*
X203709Y46791D01*
Y45291D01*
X204709Y48290D02*
X201710D01*
Y49790D01*
X202209Y50290D01*
X203209D01*
X203709Y49790D01*
Y48290D01*
Y49290D02*
X204709Y50290D01*
Y52789D02*
Y51789D01*
X204209Y51289D01*
X203209D01*
X202709Y51789D01*
Y52789D01*
X203209Y53289D01*
X203709D01*
Y51289D01*
X204709Y54288D02*
Y55788D01*
X204209Y56288D01*
X203709Y55788D01*
Y54788D01*
X203209Y54288D01*
X202709Y54788D01*
Y56288D01*
X204709Y58787D02*
X201710D01*
X203209Y57288D01*
Y59287D01*
X152497Y231315D02*
X155496D01*
Y233314D01*
X152497Y236313D02*
Y234314D01*
X155496D01*
Y236313D01*
X153997Y234314D02*
Y235314D01*
X152497Y237313D02*
X155496D01*
Y238812D01*
X154996Y239312D01*
X152997D01*
X152497Y238812D01*
Y237313D01*
X153997Y240312D02*
Y242311D01*
X145653Y228362D02*
X142655D01*
Y229862D01*
X143154Y230362D01*
X144154D01*
X144654Y229862D01*
Y228362D01*
X145653Y231361D02*
X142655D01*
Y232861D01*
X143154Y233361D01*
X144154D01*
X144654Y232861D01*
Y231361D01*
Y232361D02*
X145653Y233361D01*
Y235860D02*
Y234860D01*
X145154Y234360D01*
X144154D01*
X143654Y234860D01*
Y235860D01*
X144154Y236360D01*
X144654D01*
Y234360D01*
X145653Y237359D02*
Y238859D01*
X145154Y239359D01*
X144654Y238859D01*
Y237859D01*
X144154Y237359D01*
X143654Y237859D01*
Y239359D01*
X143154Y240358D02*
X142655Y240858D01*
Y241858D01*
X143154Y242358D01*
X143654D01*
X144154Y241858D01*
X144654Y242358D01*
X145154D01*
X145653Y241858D01*
Y240858D01*
X145154Y240358D01*
X144654D01*
X144154Y240858D01*
X143654Y240358D01*
X143154D01*
X144154Y240858D02*
Y241858D01*
X205693Y228362D02*
X202694D01*
Y229862D01*
X203194Y230362D01*
X204193D01*
X204693Y229862D01*
Y228362D01*
X205693Y231361D02*
X202694D01*
Y232861D01*
X203194Y233361D01*
X204193D01*
X204693Y232861D01*
Y231361D01*
Y232361D02*
X205693Y233361D01*
Y235860D02*
Y234860D01*
X205193Y234360D01*
X204193D01*
X203694Y234860D01*
Y235860D01*
X204193Y236360D01*
X204693D01*
Y234360D01*
X205693Y237359D02*
Y238859D01*
X205193Y239359D01*
X204693Y238859D01*
Y237859D01*
X204193Y237359D01*
X203694Y237859D01*
Y239359D01*
X202694Y242358D02*
Y240358D01*
X204193D01*
X203694Y241358D01*
Y241858D01*
X204193Y242358D01*
X205193D01*
X205693Y241858D01*
Y240858D01*
X205193Y240358D01*
X212536Y231315D02*
X215535D01*
Y233314D01*
X212536Y236313D02*
Y234314D01*
X215535D01*
Y236313D01*
X214036Y234314D02*
Y235314D01*
X212536Y237313D02*
X215535D01*
Y238812D01*
X215036Y239312D01*
X213036D01*
X212536Y238812D01*
Y237313D01*
X214036Y240312D02*
Y242311D01*
X202694Y275606D02*
X204693D01*
X205693Y276606D01*
X204693Y277606D01*
X202694D01*
X203194Y280605D02*
X202694Y280105D01*
Y279105D01*
X203194Y278605D01*
X205193D01*
X205693Y279105D01*
Y280105D01*
X205193Y280605D01*
X203194Y283604D02*
X202694Y283104D01*
Y282104D01*
X203194Y281604D01*
X205193D01*
X205693Y282104D01*
Y283104D01*
X205193Y283604D01*
X212536Y277606D02*
Y275606D01*
X214036D01*
X213536Y276606D01*
Y277106D01*
X214036Y277606D01*
X215036D01*
X215535Y277106D01*
Y276106D01*
X215036Y275606D01*
X212536Y278605D02*
X214536D01*
X215535Y279605D01*
X214536Y280605D01*
X212536D01*
X310834Y113279D02*
X310334Y113779D01*
X309334D01*
X308835Y113279D01*
Y111279D01*
X309334Y110780D01*
X310334D01*
X310834Y111279D01*
Y112279D01*
X309834D01*
X311834Y110780D02*
Y113779D01*
X313833Y110780D01*
Y113779D01*
X314833D02*
Y110780D01*
X316332D01*
X316832Y111279D01*
Y113279D01*
X316332Y113779D01*
X314833D01*
X308835Y123677D02*
X309334Y124177D01*
X310334D01*
X310834Y123677D01*
Y123177D01*
X310334Y122678D01*
X309834D01*
X310334D01*
X310834Y122178D01*
Y121678D01*
X310334Y121178D01*
X309334D01*
X308835Y121678D01*
X311834Y124177D02*
Y122178D01*
X312833Y121178D01*
X313833Y122178D01*
Y124177D01*
X314833Y123677D02*
X315332Y124177D01*
X316332D01*
X316832Y123677D01*
Y123177D01*
X316332Y122678D01*
X315832D01*
X316332D01*
X316832Y122178D01*
Y121678D01*
X316332Y121178D01*
X315332D01*
X314833Y121678D01*
X310834Y133520D02*
X310334Y134020D01*
X309334D01*
X308835Y133520D01*
Y131520D01*
X309334Y131021D01*
X310334D01*
X310834Y131520D01*
X311834Y134020D02*
Y131021D01*
X313833D01*
X314833Y134020D02*
Y131021D01*
Y132020D01*
X316832Y134020D01*
X315332Y132520D01*
X316832Y131021D01*
X308835Y143862D02*
Y140863D01*
X310834D01*
X313833Y143862D02*
X311834D01*
Y140863D01*
X313833D01*
X311834Y142363D02*
X312833D01*
X314833Y143862D02*
Y140863D01*
X316332D01*
X316832Y141363D01*
Y143362D01*
X316332Y143862D01*
X314833D01*
X300243Y153605D02*
X299744Y154105D01*
X298744D01*
X298244Y153605D01*
Y153105D01*
X298744Y152606D01*
X299744D01*
X300243Y152106D01*
Y151606D01*
X299744Y151106D01*
X298744D01*
X298244Y151606D01*
X302743Y151106D02*
X301743D01*
X301243Y151606D01*
Y152606D01*
X301743Y153105D01*
X302743D01*
X303242Y152606D01*
Y152106D01*
X301243D01*
X304242Y153105D02*
Y151106D01*
Y152106D01*
X304742Y152606D01*
X305242Y153105D01*
X305742D01*
X307241Y150606D02*
X309241D01*
X311740Y154105D02*
X310740D01*
X310240Y153605D01*
Y151606D01*
X310740Y151106D01*
X311740D01*
X312240Y151606D01*
Y153605D01*
X311740Y154105D01*
X313239Y153105D02*
Y151606D01*
X313739Y151106D01*
X315239D01*
Y153105D01*
X316738Y153605D02*
Y153105D01*
X316238D01*
X317238D01*
X316738D01*
Y151606D01*
X317238Y151106D01*
X313833Y163547D02*
X311834D01*
Y162048D01*
X312833Y162548D01*
X313333D01*
X313833Y162048D01*
Y161048D01*
X313333Y160548D01*
X312333D01*
X311834Y161048D01*
X314833Y163547D02*
Y161548D01*
X315832Y160548D01*
X316832Y161548D01*
Y163547D01*
X305336Y173874D02*
X304836Y174374D01*
X303836D01*
X303336Y173874D01*
Y173374D01*
X303836Y172874D01*
X304836D01*
X305336Y172375D01*
Y171875D01*
X304836Y171375D01*
X303836D01*
X303336Y171875D01*
X306335Y174374D02*
Y171375D01*
Y172874D01*
X308335D01*
Y174374D01*
Y171375D01*
X309334Y174374D02*
X310334D01*
X309834D01*
Y171375D01*
X309334D01*
X310334D01*
X313833Y174374D02*
X311834D01*
Y172874D01*
X312833D01*
X311834D01*
Y171375D01*
X314833Y174374D02*
X316832D01*
X315832D01*
Y171375D01*
X34620Y173874D02*
X34120Y174374D01*
X33121D01*
X32621Y173874D01*
Y173374D01*
X33121Y172874D01*
X34120D01*
X34620Y172375D01*
Y171875D01*
X34120Y171375D01*
X33121D01*
X32621Y171875D01*
X35620Y174374D02*
Y171375D01*
Y172874D01*
X37619D01*
Y174374D01*
Y171375D01*
X38619Y174374D02*
X39619D01*
X39119D01*
Y171375D01*
X38619D01*
X39619D01*
X43117Y174374D02*
X41118D01*
Y172874D01*
X42118D01*
X41118D01*
Y171375D01*
X44117Y174374D02*
X46116D01*
X45117D01*
Y171375D01*
X34620Y163547D02*
X32621D01*
Y162048D01*
X33620Y162548D01*
X34120D01*
X34620Y162048D01*
Y161048D01*
X34120Y160548D01*
X33121D01*
X32621Y161048D01*
X35620Y163547D02*
Y161548D01*
X36619Y160548D01*
X37619Y161548D01*
Y163547D01*
X34620Y153705D02*
X34120Y154204D01*
X33121D01*
X32621Y153705D01*
Y153205D01*
X33121Y152705D01*
X34120D01*
X34620Y152205D01*
Y151705D01*
X34120Y151205D01*
X33121D01*
X32621Y151705D01*
X37119Y151205D02*
X36120D01*
X35620Y151705D01*
Y152705D01*
X36120Y153205D01*
X37119D01*
X37619Y152705D01*
Y152205D01*
X35620D01*
X38619Y153205D02*
Y151205D01*
Y152205D01*
X39119Y152705D01*
X39619Y153205D01*
X40118D01*
X41618Y150706D02*
X43617D01*
X44617Y154204D02*
X45617D01*
X45117D01*
Y151205D01*
X44617D01*
X45617D01*
X47116D02*
Y153205D01*
X48616D01*
X49115Y152705D01*
Y151205D01*
X32621Y143862D02*
Y140863D01*
X34620D01*
X37619Y143862D02*
X35620D01*
Y140863D01*
X37619D01*
X35620Y142363D02*
X36619D01*
X38619Y143862D02*
Y140863D01*
X40118D01*
X40618Y141363D01*
Y143362D01*
X40118Y143862D01*
X38619D01*
X34620Y133520D02*
X34120Y134020D01*
X33121D01*
X32621Y133520D01*
Y131520D01*
X33121Y131021D01*
X34120D01*
X34620Y131520D01*
X35620Y134020D02*
Y131021D01*
X37619D01*
X38619Y134020D02*
Y131021D01*
Y132020D01*
X40618Y134020D01*
X39119Y132520D01*
X40618Y131021D01*
X32621Y123677D02*
X33121Y124177D01*
X34120D01*
X34620Y123677D01*
Y123177D01*
X34120Y122678D01*
X33620D01*
X34120D01*
X34620Y122178D01*
Y121678D01*
X34120Y121178D01*
X33121D01*
X32621Y121678D01*
X35620Y124177D02*
Y122178D01*
X36619Y121178D01*
X37619Y122178D01*
Y124177D01*
X38619Y123677D02*
X39119Y124177D01*
X40118D01*
X40618Y123677D01*
Y123177D01*
X40118Y122678D01*
X39619D01*
X40118D01*
X40618Y122178D01*
Y121678D01*
X40118Y121178D01*
X39119D01*
X38619Y121678D01*
X34620Y113279D02*
X34120Y113779D01*
X33121D01*
X32621Y113279D01*
Y111279D01*
X33121Y110780D01*
X34120D01*
X34620Y111279D01*
Y112279D01*
X33620D01*
X35620Y110780D02*
Y113779D01*
X37619Y110780D01*
Y113779D01*
X38619D02*
Y110780D01*
X40118D01*
X40618Y111279D01*
Y113279D01*
X40118Y113779D01*
X38619D01*
X60055Y19747D02*
Y16748D01*
X61555D01*
X62055Y17248D01*
Y17748D01*
Y18248D01*
X61555Y18747D01*
X60055D01*
X64554Y16748D02*
X63554D01*
X63054Y17248D01*
Y18248D01*
X63554Y18747D01*
X64554D01*
X65053Y18248D01*
Y17748D01*
X63054D01*
X66053Y16748D02*
X67553D01*
X68053Y17248D01*
X67553Y17748D01*
X66553D01*
X66053Y18248D01*
X66553Y18747D01*
X68053D01*
X69552Y19247D02*
Y18747D01*
X69052D01*
X70052D01*
X69552D01*
Y17248D01*
X70052Y16748D01*
X71551Y18747D02*
Y17248D01*
X72051Y16748D01*
X73551D01*
Y18747D01*
X76050Y16748D02*
X75050D01*
X74550Y17248D01*
Y18248D01*
X75050Y18747D01*
X76050D01*
X76550Y18248D01*
Y17748D01*
X74550D01*
X79549Y18747D02*
X78049D01*
X77549Y18248D01*
Y17248D01*
X78049Y16748D01*
X79549D01*
X80549D02*
Y19747D01*
Y17748D02*
X82048Y18747D01*
X80549Y17748D02*
X82048Y16748D01*
X84047Y19247D02*
Y18747D01*
X83548D01*
X84547D01*
X84047D01*
Y17248D01*
X84547Y16748D01*
X62055Y25153D02*
X61555Y25653D01*
X60555D01*
X60055Y25153D01*
Y24653D01*
X60555Y24153D01*
X61555D01*
X62055Y23653D01*
Y23153D01*
X61555Y22654D01*
X60555D01*
X60055Y23153D01*
X64554Y22654D02*
X63554D01*
X63054Y23153D01*
Y24153D01*
X63554Y24653D01*
X64554D01*
X65053Y24153D01*
Y23653D01*
X63054D01*
X66053Y22654D02*
Y24653D01*
X67553D01*
X68053Y24153D01*
Y22654D01*
X69052D02*
X70552D01*
X71052Y23153D01*
X70552Y23653D01*
X69552D01*
X69052Y24153D01*
X69552Y24653D01*
X71052D01*
X72551Y22654D02*
X73551D01*
X74051Y23153D01*
Y24153D01*
X73551Y24653D01*
X72551D01*
X72051Y24153D01*
Y23153D01*
X72551Y22654D01*
X75050Y24653D02*
Y22654D01*
Y23653D01*
X75550Y24153D01*
X76050Y24653D01*
X76550D01*
X79549Y22654D02*
X78549D01*
X78049Y23153D01*
Y24153D01*
X78549Y24653D01*
X79549D01*
X80049Y24153D01*
Y23653D01*
X78049D01*
X81048Y22654D02*
Y24653D01*
X82548D01*
X83048Y24153D01*
Y22654D01*
X60055Y28574D02*
Y30574D01*
X61555D01*
X62055Y30074D01*
Y28574D01*
X63054D02*
X64054D01*
X63554D01*
Y30574D01*
X63054D01*
X67553D02*
X66053D01*
X65553Y30074D01*
Y29074D01*
X66053Y28574D01*
X67553D01*
X68552Y31574D02*
Y28574D01*
Y30074D01*
X69052Y30574D01*
X70052D01*
X70552Y30074D01*
Y28574D01*
X72051Y31074D02*
Y30574D01*
X71551D01*
X72551D01*
X72051D01*
Y29074D01*
X72551Y28574D01*
X78049Y27575D02*
X78549D01*
X79049Y28075D01*
Y30574D01*
X77549D01*
X77050Y30074D01*
Y29074D01*
X77549Y28574D01*
X79049D01*
X81548D02*
X80549D01*
X80049Y29074D01*
Y30074D01*
X80549Y30574D01*
X81548D01*
X82048Y30074D01*
Y29574D01*
X80049D01*
X83048Y28574D02*
Y30574D01*
X84547D01*
X85047Y30074D01*
Y28574D01*
X86047Y30574D02*
Y29074D01*
X86546Y28574D01*
X88046D01*
Y30574D01*
X89546Y31074D02*
Y30574D01*
X89046D01*
X90045D01*
X89546D01*
Y29074D01*
X90045Y28574D01*
X91545Y30574D02*
X93544D01*
X91545Y28574D01*
X93544D01*
X95044Y31074D02*
Y30574D01*
X94544D01*
X95544D01*
X95044D01*
Y29074D01*
X95544Y28574D01*
X98543D02*
X97543D01*
X97043Y29074D01*
Y30074D01*
X97543Y30574D01*
X98543D01*
X99042Y30074D01*
Y29574D01*
X97043D01*
X100042Y28574D02*
Y30574D01*
X101542D01*
X102041Y30074D01*
Y28574D01*
X60055Y38432D02*
Y36933D01*
X60555Y36433D01*
X61055Y36933D01*
X61555Y36433D01*
X62055Y36933D01*
Y38432D01*
X64554Y36433D02*
X63554D01*
X63054Y36933D01*
Y37933D01*
X63554Y38432D01*
X64554D01*
X65053Y37933D01*
Y37433D01*
X63054D01*
X66053Y38432D02*
Y36433D01*
Y37433D01*
X66553Y37933D01*
X67053Y38432D01*
X67553D01*
X71052Y39432D02*
Y36433D01*
X69552D01*
X69052Y36933D01*
Y37933D01*
X69552Y38432D01*
X71052D01*
X73551Y36433D02*
X72551D01*
X72051Y36933D01*
Y37933D01*
X72551Y38432D01*
X73551D01*
X74051Y37933D01*
Y37433D01*
X72051D01*
X75050Y36433D02*
Y38432D01*
X76550D01*
X77050Y37933D01*
Y36433D01*
X81048D02*
Y38432D01*
X82548D01*
X83048Y37933D01*
Y36433D01*
X84047Y38432D02*
Y36933D01*
X84547Y36433D01*
X86047D01*
Y38432D01*
X87046D02*
Y36433D01*
Y37433D01*
X87546Y37933D01*
X88046Y38432D01*
X88546D01*
X93044Y39432D02*
Y36433D01*
X94544D01*
X95044Y36933D01*
Y37433D01*
Y37933D01*
X94544Y38432D01*
X93044D01*
X97543Y36433D02*
X96543D01*
X96043Y36933D01*
Y37933D01*
X96543Y38432D01*
X97543D01*
X98043Y37933D01*
Y37433D01*
X96043D01*
X99042Y36433D02*
X100042D01*
X99542D01*
Y38432D01*
X99042D01*
X60055Y42339D02*
Y45338D01*
X61555D01*
X62055Y44838D01*
Y43838D01*
X61555Y43338D01*
X60055D01*
X63054Y44338D02*
Y42838D01*
X63554Y42339D01*
X65053D01*
Y44338D01*
X66053Y42339D02*
X67053D01*
X66553D01*
Y45338D01*
X66053D01*
X68552Y42339D02*
X69552D01*
X69052D01*
Y45338D01*
X68552D01*
X71052D02*
Y42339D01*
X72551D01*
X73051Y42838D01*
Y44838D01*
X72551Y45338D01*
X71052D01*
X74550Y42339D02*
X75550D01*
X76050Y42838D01*
Y43838D01*
X75550Y44338D01*
X74550D01*
X74051Y43838D01*
Y42838D01*
X74550Y42339D01*
X77050Y44338D02*
Y42838D01*
X77549Y42339D01*
X78049Y42838D01*
X78549Y42339D01*
X79049Y42838D01*
Y44338D01*
X80049Y42339D02*
Y44338D01*
X81548D01*
X82048Y43838D01*
Y42339D01*
X86047Y45338D02*
Y42339D01*
X87046Y43338D01*
X88046Y42339D01*
Y45338D01*
X89046Y42339D02*
X90045D01*
X89546D01*
Y44338D01*
X89046D01*
X93544Y45338D02*
Y42339D01*
X92045D01*
X91545Y42838D01*
Y43838D01*
X92045Y44338D01*
X93544D01*
X96043Y42339D02*
X95044D01*
X94544Y42838D01*
Y43838D01*
X95044Y44338D01*
X96043D01*
X96543Y43838D01*
Y43338D01*
X94544D01*
X97543Y44338D02*
Y42339D01*
Y43338D01*
X98043Y43838D01*
X98543Y44338D01*
X99042D01*
X100542Y42339D02*
X102041D01*
X102541Y42838D01*
X102041Y43338D01*
X101042D01*
X100542Y43838D01*
X101042Y44338D01*
X102541D01*
X104041Y44838D02*
Y44338D01*
X103541D01*
X104541D01*
X104041D01*
Y42838D01*
X104541Y42339D01*
X106540Y44338D02*
X107540D01*
X108040Y43838D01*
Y42339D01*
X106540D01*
X106040Y42838D01*
X106540Y43338D01*
X108040D01*
X110539Y42339D02*
X109539D01*
X109039Y42838D01*
Y43838D01*
X109539Y44338D01*
X110539D01*
X111039Y43838D01*
Y43338D01*
X109039D01*
X112038Y42339D02*
Y44338D01*
X113538D01*
X114038Y43838D01*
Y42339D01*
X117037Y45338D02*
Y42339D01*
X115537D01*
X115037Y42838D01*
Y43838D01*
X115537Y44338D01*
X117037D01*
X119536Y42339D02*
X118536D01*
X118036Y42838D01*
Y43838D01*
X118536Y44338D01*
X119536D01*
X120036Y43838D01*
Y43338D01*
X118036D01*
X272654Y170542D02*
Y168543D01*
X273654Y167543D01*
X274653Y168543D01*
Y170542D01*
X275653Y167043D02*
X277652D01*
X278652Y167543D02*
Y170542D01*
X280151D01*
X280651Y170042D01*
Y169042D01*
X280151Y168543D01*
X278652D01*
X279652D02*
X280651Y167543D01*
X283151D02*
X282151D01*
X281651Y168043D01*
Y169042D01*
X282151Y169542D01*
X283151D01*
X283650Y169042D01*
Y168543D01*
X281651D01*
X285150Y167543D02*
Y170042D01*
Y169042D01*
X284650D01*
X285650D01*
X285150D01*
Y170042D01*
X285650Y170542D01*
X131700Y283998D02*
X135699Y278000D01*
Y283998D02*
X131700Y278000D01*
X137698Y277000D02*
X141697D01*
X143696Y283998D02*
Y278000D01*
X146695D01*
X147695Y279000D01*
Y282998D01*
X146695Y283998D01*
X143696D01*
X150694Y281999D02*
X152693D01*
X153693Y280999D01*
Y278000D01*
X150694D01*
X149694Y279000D01*
X150694Y279999D01*
X153693D01*
X156692Y282998D02*
Y281999D01*
X155692D01*
X157692D01*
X156692D01*
Y279000D01*
X157692Y278000D01*
X161690Y281999D02*
X163690D01*
X164689Y280999D01*
Y278000D01*
X161690D01*
X160691Y279000D01*
X161690Y279999D01*
X164689D01*
X166689Y277000D02*
X170687D01*
X176685Y283998D02*
X172687D01*
Y280999D01*
X174686Y281999D01*
X175686D01*
X176685Y280999D01*
Y279000D01*
X175686Y278000D01*
X173686D01*
X172687Y279000D01*
X178685Y282998D02*
X179684Y283998D01*
X181684D01*
X182684Y282998D01*
Y281999D01*
X181684Y280999D01*
X182684Y279999D01*
Y279000D01*
X181684Y278000D01*
X179684D01*
X178685Y279000D01*
Y279999D01*
X179684Y280999D01*
X178685Y281999D01*
Y282998D01*
X179684Y280999D02*
X181684D01*
X135941Y9562D02*
X139940Y3564D01*
Y9562D02*
X135941Y3564D01*
X141939Y2564D02*
X145938D01*
X147937Y9562D02*
Y3564D01*
X150936D01*
X151936Y4563D01*
Y8562D01*
X150936Y9562D01*
X147937D01*
X154935Y7563D02*
X156934D01*
X157934Y6563D01*
Y3564D01*
X154935D01*
X153935Y4563D01*
X154935Y5563D01*
X157934D01*
X160933Y8562D02*
Y7563D01*
X159933D01*
X161933D01*
X160933D01*
Y4563D01*
X161933Y3564D01*
X165931Y7563D02*
X167931D01*
X168930Y6563D01*
Y3564D01*
X165931D01*
X164932Y4563D01*
X165931Y5563D01*
X168930D01*
X170930Y2564D02*
X174928D01*
X176928Y3564D02*
X178927D01*
X177928D01*
Y9562D01*
X176928Y8562D01*
X184925Y3564D02*
Y9562D01*
X181926Y6563D01*
X185925D01*
X332896Y62057D02*
X335895D01*
Y64057D01*
X332896Y67056D02*
Y65056D01*
X335895D01*
Y67056D01*
X334396Y65056D02*
Y66056D01*
X332896Y68055D02*
X335895D01*
Y69555D01*
X335395Y70055D01*
X333396D01*
X332896Y69555D01*
Y68055D01*
X336395Y71054D02*
Y73054D01*
X335895Y74053D02*
X332896D01*
Y75553D01*
X333396Y76053D01*
X334396D01*
X334896Y75553D01*
Y74053D01*
X335895Y77552D02*
Y78552D01*
X335395Y79052D01*
X334396D01*
X333896Y78552D01*
Y77552D01*
X334396Y77052D01*
X335395D01*
X335895Y77552D01*
X333896Y80051D02*
X335395D01*
X335895Y80551D01*
X335395Y81051D01*
X335895Y81551D01*
X335395Y82051D01*
X333896D01*
X335895Y84550D02*
Y83550D01*
X335395Y83051D01*
X334396D01*
X333896Y83550D01*
Y84550D01*
X334396Y85050D01*
X334896D01*
Y83051D01*
X333896Y86049D02*
X335895D01*
X334896D01*
X334396Y86549D01*
X333896Y87049D01*
Y87549D01*
X66164Y191821D02*
X69163D01*
Y193821D01*
X66164Y196820D02*
Y194820D01*
X69163D01*
Y196820D01*
X67664Y194820D02*
Y195820D01*
X66164Y197819D02*
X69163D01*
Y199319D01*
X68663Y199819D01*
X66664D01*
X66164Y199319D01*
Y197819D01*
X69663Y200818D02*
Y202818D01*
X66664Y203817D02*
X66164Y204317D01*
Y205317D01*
X66664Y205817D01*
X67164D01*
X67664Y205317D01*
X68163Y205817D01*
X68663D01*
X69163Y205317D01*
Y204317D01*
X68663Y203817D01*
X68163D01*
X67664Y204317D01*
X67164Y203817D01*
X66664D01*
X67664Y204317D02*
Y205317D01*
X131125Y192805D02*
X134124D01*
Y194805D01*
X131125Y197804D02*
Y195804D01*
X134124D01*
Y197804D01*
X132624Y195804D02*
Y196804D01*
X131125Y198803D02*
X134124D01*
Y200303D01*
X133624Y200803D01*
X131624D01*
X131125Y200303D01*
Y198803D01*
X134624Y201802D02*
Y203802D01*
X131125Y204802D02*
Y206801D01*
X131624D01*
X133624Y204802D01*
X134124D01*
X205928Y192805D02*
X208927D01*
Y194805D01*
X205928Y197804D02*
Y195804D01*
X208927D01*
Y197804D01*
X207427Y195804D02*
Y196804D01*
X205928Y198803D02*
X208927D01*
Y200303D01*
X208427Y200803D01*
X206428D01*
X205928Y200303D01*
Y198803D01*
X209427Y201802D02*
Y203802D01*
X205928Y206801D02*
X206428Y205801D01*
X207427Y204802D01*
X208427D01*
X208927Y205301D01*
Y206301D01*
X208427Y206801D01*
X207927D01*
X207427Y206301D01*
Y204802D01*
X280731Y191821D02*
X283730D01*
Y193821D01*
X280731Y196820D02*
Y194820D01*
X283730D01*
Y196820D01*
X282230Y194820D02*
Y195820D01*
X280731Y197819D02*
X283730D01*
Y199319D01*
X283230Y199819D01*
X281231D01*
X280731Y199319D01*
Y197819D01*
X284230Y200818D02*
Y202818D01*
X280731Y205817D02*
Y203817D01*
X282230D01*
X281731Y204817D01*
Y205317D01*
X282230Y205817D01*
X283230D01*
X283730Y205317D01*
Y204317D01*
X283230Y203817D01*
X279747Y84538D02*
X282746D01*
Y86537D01*
X279747Y89536D02*
Y87537D01*
X282746D01*
Y89536D01*
X281246Y87537D02*
Y88536D01*
X279747Y90536D02*
X282746D01*
Y92035D01*
X282246Y92535D01*
X280246D01*
X279747Y92035D01*
Y90536D01*
X283245Y93535D02*
Y95534D01*
X282746Y98033D02*
X279747D01*
X281246Y96534D01*
Y98533D01*
X205928Y83553D02*
X208927D01*
Y85553D01*
X205928Y88552D02*
Y86553D01*
X208927D01*
Y88552D01*
X207427Y86553D02*
Y87552D01*
X205928Y89552D02*
X208927D01*
Y91051D01*
X208427Y91551D01*
X206428D01*
X205928Y91051D01*
Y89552D01*
X209427Y92550D02*
Y94550D01*
X206428Y95550D02*
X205928Y96049D01*
Y97049D01*
X206428Y97549D01*
X206927D01*
X207427Y97049D01*
Y96549D01*
Y97049D01*
X207927Y97549D01*
X208427D01*
X208927Y97049D01*
Y96049D01*
X208427Y95550D01*
X163605Y84538D02*
X166604D01*
Y86537D01*
X163605Y89536D02*
Y87537D01*
X166604D01*
Y89536D01*
X165104Y87537D02*
Y88536D01*
X163605Y90536D02*
X166604D01*
Y92035D01*
X166104Y92535D01*
X164105D01*
X163605Y92035D01*
Y90536D01*
X167104Y93535D02*
Y95534D01*
X166604Y98533D02*
Y96534D01*
X164605Y98533D01*
X164105D01*
X163605Y98033D01*
Y97034D01*
X164105Y96534D01*
X88802Y84053D02*
X91801D01*
Y86053D01*
X88802Y89052D02*
Y87052D01*
X91801D01*
Y89052D01*
X90301Y87052D02*
Y88052D01*
X88802Y90051D02*
X91801D01*
Y91551D01*
X91301Y92051D01*
X89302D01*
X88802Y91551D01*
Y90051D01*
X92301Y93050D02*
Y95050D01*
X91801Y96049D02*
Y97049D01*
Y96549D01*
X88802D01*
X89302Y96049D01*
X56072Y187103D02*
X53073D01*
Y188603D01*
X53573Y189103D01*
X54573D01*
X55073Y188603D01*
Y187103D01*
Y188103D02*
X56072Y189103D01*
X56572Y190103D02*
Y192102D01*
X53073Y193102D02*
X56072D01*
Y194601D01*
X55572Y195101D01*
X53573D01*
X53073Y194601D01*
Y193102D01*
X54073Y196600D02*
Y197600D01*
X54573Y198100D01*
X56072D01*
Y196600D01*
X55572Y196101D01*
X55073Y196600D01*
Y198100D01*
X53573Y199600D02*
X54073D01*
Y199100D01*
Y200099D01*
Y199600D01*
X55572D01*
X56072Y200099D01*
X54073Y202099D02*
Y203098D01*
X54573Y203598D01*
X56072D01*
Y202099D01*
X55572Y201599D01*
X55073Y202099D01*
Y203598D01*
X53573Y204598D02*
X53073Y205098D01*
Y206097D01*
X53573Y206597D01*
X54073D01*
X54573Y206097D01*
X55073Y206597D01*
X55572D01*
X56072Y206097D01*
Y205098D01*
X55572Y204598D01*
X55073D01*
X54573Y205098D01*
X54073Y204598D01*
X53573D01*
X54573Y205098D02*
Y206097D01*
X43572Y186746D02*
X40573D01*
Y188245D01*
X41073Y188745D01*
X42073D01*
X42573Y188245D01*
Y186746D01*
Y187745D02*
X43572Y188745D01*
X44072Y189745D02*
Y191744D01*
X43572Y192744D02*
X40573D01*
Y194243D01*
X41073Y194743D01*
X42073D01*
X42573Y194243D01*
Y192744D01*
X41573Y195743D02*
X43073D01*
X43572Y196243D01*
Y197742D01*
X41573D01*
X43572Y198742D02*
Y199741D01*
Y199242D01*
X40573D01*
Y198742D01*
X43572Y201241D02*
Y202241D01*
Y201741D01*
X40573D01*
Y201241D01*
Y203740D02*
X43572D01*
Y205240D01*
X43073Y205739D01*
X41073D01*
X40573Y205240D01*
Y203740D01*
X43572Y207239D02*
Y208239D01*
X43073Y208738D01*
X42073D01*
X41573Y208239D01*
Y207239D01*
X42073Y206739D01*
X43073D01*
X43572Y207239D01*
X41573Y209738D02*
X43073D01*
X43572Y210238D01*
X43073Y210738D01*
X43572Y211238D01*
X43073Y211738D01*
X41573D01*
X43572Y212737D02*
X41573D01*
Y214237D01*
X42073Y214737D01*
X43572D01*
X44072Y215736D02*
Y217736D01*
X41073Y218735D02*
X40573Y219235D01*
Y220235D01*
X41073Y220735D01*
X41573D01*
X42073Y220235D01*
X42573Y220735D01*
X43073D01*
X43572Y220235D01*
Y219235D01*
X43073Y218735D01*
X42573D01*
X42073Y219235D01*
X41573Y218735D01*
X41073D01*
X42073Y219235D02*
Y220235D01*
X151895Y131602D02*
X156893D01*
X157893Y132602D01*
Y134601D01*
X156893Y135601D01*
X151895D01*
X158893Y137600D02*
Y141599D01*
X152894Y147597D02*
X151895Y146597D01*
Y144598D01*
X152894Y143598D01*
X153894D01*
X154894Y144598D01*
Y146597D01*
X155893Y147597D01*
X156893D01*
X157893Y146597D01*
Y144598D01*
X156893Y143598D01*
X157893Y149596D02*
X151895D01*
Y152595D01*
X152894Y153595D01*
X154894D01*
X155893Y152595D01*
Y149596D01*
Y151596D02*
X157893Y153595D01*
X232722Y135703D02*
X237720D01*
X238720Y136703D01*
Y138702D01*
X237720Y139702D01*
X232722D01*
X239719Y141701D02*
Y145700D01*
X238720Y151698D02*
Y147699D01*
X234721Y151698D01*
X233721D01*
X232722Y150698D01*
Y148699D01*
X233721Y147699D01*
X106344Y136408D02*
X111342D01*
X112342Y137407D01*
Y139407D01*
X111342Y140407D01*
X106344D01*
X113341Y142406D02*
Y146405D01*
X112342Y148404D02*
Y150403D01*
Y149404D01*
X106344D01*
X107343Y148404D01*
X107549Y171982D02*
X104550D01*
Y173481D01*
X105050Y173981D01*
X106049D01*
X106549Y173481D01*
Y171982D01*
Y172982D02*
X107549Y173981D01*
X108049Y174981D02*
Y176980D01*
X107549Y177980D02*
X104550D01*
Y179479D01*
X105050Y179979D01*
X106049D01*
X106549Y179479D01*
Y177980D01*
X105550Y180979D02*
X107049D01*
X107549Y181479D01*
Y182978D01*
X105550D01*
X107549Y183978D02*
Y184978D01*
Y184478D01*
X104550D01*
Y183978D01*
X107549Y186477D02*
Y187477D01*
Y186977D01*
X104550D01*
Y186477D01*
Y188976D02*
X107549D01*
Y190476D01*
X107049Y190976D01*
X105050D01*
X104550Y190476D01*
Y188976D01*
X107549Y192475D02*
Y193475D01*
X107049Y193975D01*
X106049D01*
X105550Y193475D01*
Y192475D01*
X106049Y191975D01*
X107049D01*
X107549Y192475D01*
X105550Y194974D02*
X107049D01*
X107549Y195474D01*
X107049Y195974D01*
X107549Y196474D01*
X107049Y196974D01*
X105550D01*
X107549Y197974D02*
X105550D01*
Y199473D01*
X106049Y199973D01*
X107549D01*
X108049Y200973D02*
Y202972D01*
X104550Y203972D02*
Y205971D01*
X105050D01*
X107049Y203972D01*
X107549D01*
X183238Y171982D02*
X180239D01*
Y173481D01*
X180739Y173981D01*
X181738D01*
X182238Y173481D01*
Y171982D01*
Y172982D02*
X183238Y173981D01*
X183738Y174981D02*
Y176980D01*
X183238Y177980D02*
X180239D01*
Y179479D01*
X180739Y179979D01*
X181738D01*
X182238Y179479D01*
Y177980D01*
X181238Y180979D02*
X182738D01*
X183238Y181479D01*
Y182978D01*
X181238D01*
X183238Y183978D02*
Y184978D01*
Y184478D01*
X180239D01*
Y183978D01*
X183238Y186477D02*
Y187477D01*
Y186977D01*
X180239D01*
Y186477D01*
Y188976D02*
X183238D01*
Y190476D01*
X182738Y190976D01*
X180739D01*
X180239Y190476D01*
Y188976D01*
X183238Y192475D02*
Y193475D01*
X182738Y193975D01*
X181738D01*
X181238Y193475D01*
Y192475D01*
X181738Y191975D01*
X182738D01*
X183238Y192475D01*
X181238Y194974D02*
X182738D01*
X183238Y195474D01*
X182738Y195974D01*
X183238Y196474D01*
X182738Y196974D01*
X181238D01*
X183238Y197974D02*
X181238D01*
Y199473D01*
X181738Y199973D01*
X183238D01*
X183738Y200973D02*
Y202972D01*
X180239Y205971D02*
X180739Y204971D01*
X181738Y203972D01*
X182738D01*
X183238Y204471D01*
Y205471D01*
X182738Y205971D01*
X182238D01*
X181738Y205471D01*
Y203972D01*
X257057Y171982D02*
X254058D01*
Y173481D01*
X254557Y173981D01*
X255557D01*
X256057Y173481D01*
Y171982D01*
Y172982D02*
X257057Y173981D01*
X257557Y174981D02*
Y176980D01*
X257057Y177980D02*
X254058D01*
Y179480D01*
X254557Y179979D01*
X255557D01*
X256057Y179480D01*
Y177980D01*
X255057Y180979D02*
X256557D01*
X257057Y181479D01*
Y182978D01*
X255057D01*
X257057Y183978D02*
Y184978D01*
Y184478D01*
X254058D01*
Y183978D01*
X257057Y186477D02*
Y187477D01*
Y186977D01*
X254058D01*
Y186477D01*
Y188976D02*
X257057D01*
Y190476D01*
X256557Y190976D01*
X254557D01*
X254058Y190476D01*
Y188976D01*
X257057Y192475D02*
Y193475D01*
X256557Y193975D01*
X255557D01*
X255057Y193475D01*
Y192475D01*
X255557Y191975D01*
X256557D01*
X257057Y192475D01*
X255057Y194974D02*
X256557D01*
X257057Y195474D01*
X256557Y195974D01*
X257057Y196474D01*
X256557Y196974D01*
X255057D01*
X257057Y197974D02*
X255057D01*
Y199473D01*
X255557Y199973D01*
X257057D01*
X257557Y200973D02*
Y202972D01*
X254058Y205971D02*
Y203972D01*
X255557D01*
X255057Y204971D01*
Y205471D01*
X255557Y205971D01*
X256557D01*
X257057Y205471D01*
Y204471D01*
X256557Y203972D01*
X257713Y84493D02*
X254714D01*
Y85992D01*
X255214Y86492D01*
X256214D01*
X256713Y85992D01*
Y84493D01*
Y85492D02*
X257713Y86492D01*
X258213Y87492D02*
Y89491D01*
X257713Y90491D02*
X254714D01*
Y91990D01*
X255214Y92490D01*
X256214D01*
X256713Y91990D01*
Y90491D01*
X255714Y93490D02*
X257213D01*
X257713Y93990D01*
Y95489D01*
X255714D01*
X257713Y96489D02*
Y97489D01*
Y96989D01*
X254714D01*
Y96489D01*
X257713Y98988D02*
Y99988D01*
Y99488D01*
X254714D01*
Y98988D01*
Y101487D02*
X257713D01*
Y102987D01*
X257213Y103487D01*
X255214D01*
X254714Y102987D01*
Y101487D01*
X257713Y104986D02*
Y105986D01*
X257213Y106486D01*
X256214D01*
X255714Y105986D01*
Y104986D01*
X256214Y104486D01*
X257213D01*
X257713Y104986D01*
X255714Y107485D02*
X257213D01*
X257713Y107985D01*
X257213Y108485D01*
X257713Y108985D01*
X257213Y109485D01*
X255714D01*
X257713Y110484D02*
X255714D01*
Y111984D01*
X256214Y112484D01*
X257713D01*
X258213Y113483D02*
Y115483D01*
X257713Y117982D02*
X254714D01*
X256214Y116482D01*
Y118482D01*
X183894Y84197D02*
X180895D01*
Y85697D01*
X181395Y86197D01*
X182395D01*
X182895Y85697D01*
Y84197D01*
Y85197D02*
X183894Y86197D01*
X184394Y87196D02*
Y89196D01*
X183894Y90195D02*
X180895D01*
Y91695D01*
X181395Y92195D01*
X182395D01*
X182895Y91695D01*
Y90195D01*
X181895Y93194D02*
X183394D01*
X183894Y93694D01*
Y95194D01*
X181895D01*
X183894Y96193D02*
Y97193D01*
Y96693D01*
X180895D01*
Y96193D01*
X183894Y98693D02*
Y99692D01*
Y99192D01*
X180895D01*
Y98693D01*
Y101192D02*
X183894D01*
Y102691D01*
X183394Y103191D01*
X181395D01*
X180895Y102691D01*
Y101192D01*
X183894Y104691D02*
Y105690D01*
X183394Y106190D01*
X182395D01*
X181895Y105690D01*
Y104691D01*
X182395Y104191D01*
X183394D01*
X183894Y104691D01*
X181895Y107190D02*
X183394D01*
X183894Y107690D01*
X183394Y108189D01*
X183894Y108689D01*
X183394Y109189D01*
X181895D01*
X183894Y110189D02*
X181895D01*
Y111688D01*
X182395Y112188D01*
X183894D01*
X184394Y113188D02*
Y115187D01*
X181395Y116187D02*
X180895Y116687D01*
Y117686D01*
X181395Y118186D01*
X181895D01*
X182395Y117686D01*
Y117186D01*
Y117686D01*
X182895Y118186D01*
X183394D01*
X183894Y117686D01*
Y116687D01*
X183394Y116187D01*
X141867Y84493D02*
X138868D01*
Y85992D01*
X139367Y86492D01*
X140367D01*
X140867Y85992D01*
Y84493D01*
Y85492D02*
X141867Y86492D01*
X142367Y87492D02*
Y89491D01*
X141867Y90491D02*
X138868D01*
Y91990D01*
X139367Y92490D01*
X140367D01*
X140867Y91990D01*
Y90491D01*
X139867Y93490D02*
X141367D01*
X141867Y93990D01*
Y95489D01*
X139867D01*
X141867Y96489D02*
Y97489D01*
Y96989D01*
X138868D01*
Y96489D01*
X141867Y98988D02*
Y99988D01*
Y99488D01*
X138868D01*
Y98988D01*
Y101487D02*
X141867D01*
Y102987D01*
X141367Y103487D01*
X139367D01*
X138868Y102987D01*
Y101487D01*
X141867Y104986D02*
Y105986D01*
X141367Y106486D01*
X140367D01*
X139867Y105986D01*
Y104986D01*
X140367Y104486D01*
X141367D01*
X141867Y104986D01*
X139867Y107485D02*
X141367D01*
X141867Y107985D01*
X141367Y108485D01*
X141867Y108985D01*
X141367Y109485D01*
X139867D01*
X141867Y110484D02*
X139867D01*
Y111984D01*
X140367Y112484D01*
X141867D01*
X142367Y113483D02*
Y115483D01*
X141867Y118482D02*
Y116482D01*
X139867Y118482D01*
X139367D01*
X138868Y117982D01*
Y116982D01*
X139367Y116482D01*
X68409Y84100D02*
X65409D01*
Y85599D01*
X65909Y86099D01*
X66909D01*
X67409Y85599D01*
Y84100D01*
Y85099D02*
X68409Y86099D01*
X68908Y87099D02*
Y89098D01*
X68409Y90098D02*
X65409D01*
Y91597D01*
X65909Y92097D01*
X66909D01*
X67409Y91597D01*
Y90098D01*
X66409Y93097D02*
X67909D01*
X68409Y93597D01*
Y95096D01*
X66409D01*
X68409Y96096D02*
Y97095D01*
Y96596D01*
X65409D01*
Y96096D01*
X68409Y98595D02*
Y99594D01*
Y99095D01*
X65409D01*
Y98595D01*
Y101094D02*
X68409D01*
Y102594D01*
X67909Y103093D01*
X65909D01*
X65409Y102594D01*
Y101094D01*
X68409Y104593D02*
Y105593D01*
X67909Y106092D01*
X66909D01*
X66409Y105593D01*
Y104593D01*
X66909Y104093D01*
X67909D01*
X68409Y104593D01*
X66409Y107092D02*
X67909D01*
X68409Y107592D01*
X67909Y108092D01*
X68409Y108592D01*
X67909Y109091D01*
X66409D01*
X68409Y110091D02*
X66409D01*
Y111591D01*
X66909Y112091D01*
X68409D01*
X68908Y113090D02*
Y115089D01*
X68409Y116089D02*
Y117089D01*
Y116589D01*
X65409D01*
X65909Y116089D01*
X320246Y67911D02*
X317247D01*
Y69410D01*
X317746Y69910D01*
X318746D01*
X319246Y69410D01*
Y67911D01*
Y68910D02*
X320246Y69910D01*
X320745Y70910D02*
Y72909D01*
X320246Y73909D02*
X317247D01*
Y75408D01*
X317746Y75908D01*
X318746D01*
X319246Y75408D01*
Y73909D01*
X320246Y77408D02*
Y78407D01*
X319746Y78907D01*
X318746D01*
X318246Y78407D01*
Y77408D01*
X318746Y76908D01*
X319746D01*
X320246Y77408D01*
X318246Y79907D02*
X319746D01*
X320246Y80407D01*
X319746Y80906D01*
X320246Y81406D01*
X319746Y81906D01*
X318246D01*
X320246Y84405D02*
Y83406D01*
X319746Y82906D01*
X318746D01*
X318246Y83406D01*
Y84405D01*
X318746Y84905D01*
X319246D01*
Y82906D01*
X318246Y85905D02*
X320246D01*
X319246D01*
X318746Y86405D01*
X318246Y86905D01*
Y87404D01*
X121131Y187103D02*
X118132D01*
Y188603D01*
X118632Y189103D01*
X119632D01*
X120132Y188603D01*
Y187103D01*
Y188103D02*
X121131Y189103D01*
X121631Y190103D02*
Y192102D01*
X118132Y193102D02*
X121131D01*
Y194601D01*
X120632Y195101D01*
X118632D01*
X118132Y194601D01*
Y193102D01*
X119132Y196600D02*
Y197600D01*
X119632Y198100D01*
X121131D01*
Y196600D01*
X120632Y196101D01*
X120132Y196600D01*
Y198100D01*
X118632Y199600D02*
X119132D01*
Y199100D01*
Y200099D01*
Y199600D01*
X120632D01*
X121131Y200099D01*
X119132Y202099D02*
Y203098D01*
X119632Y203598D01*
X121131D01*
Y202099D01*
X120632Y201599D01*
X120132Y202099D01*
Y203598D01*
X118132Y204598D02*
Y206597D01*
X118632D01*
X120632Y204598D01*
X121131D01*
X196584Y187103D02*
X193585D01*
Y188603D01*
X194085Y189103D01*
X195085D01*
X195585Y188603D01*
Y187103D01*
Y188103D02*
X196584Y189103D01*
X197084Y190103D02*
Y192102D01*
X193585Y193102D02*
X196584D01*
Y194601D01*
X196085Y195101D01*
X194085D01*
X193585Y194601D01*
Y193102D01*
X194585Y196600D02*
Y197600D01*
X195085Y198100D01*
X196584D01*
Y196600D01*
X196085Y196101D01*
X195585Y196600D01*
Y198100D01*
X194085Y199600D02*
X194585D01*
Y199100D01*
Y200099D01*
Y199600D01*
X196085D01*
X196584Y200099D01*
X194585Y202099D02*
Y203098D01*
X195085Y203598D01*
X196584D01*
Y202099D01*
X196085Y201599D01*
X195585Y202099D01*
Y203598D01*
X193585Y206597D02*
X194085Y205598D01*
X195085Y204598D01*
X196085D01*
X196584Y205098D01*
Y206097D01*
X196085Y206597D01*
X195585D01*
X195085Y206097D01*
Y204598D01*
X270738Y187103D02*
X267739D01*
Y188603D01*
X268238Y189103D01*
X269238D01*
X269738Y188603D01*
Y187103D01*
Y188103D02*
X270738Y189103D01*
X271237Y190103D02*
Y192102D01*
X267739Y193102D02*
X270738D01*
Y194601D01*
X270238Y195101D01*
X268238D01*
X267739Y194601D01*
Y193102D01*
X268738Y196600D02*
Y197600D01*
X269238Y198100D01*
X270738D01*
Y196600D01*
X270238Y196101D01*
X269738Y196600D01*
Y198100D01*
X268238Y199600D02*
X268738D01*
Y199100D01*
Y200099D01*
Y199600D01*
X270238D01*
X270738Y200099D01*
X268738Y202099D02*
Y203098D01*
X269238Y203598D01*
X270738D01*
Y202099D01*
X270238Y201599D01*
X269738Y202099D01*
Y203598D01*
X267739Y206597D02*
Y204598D01*
X269238D01*
X268738Y205598D01*
Y206097D01*
X269238Y206597D01*
X270238D01*
X270738Y206097D01*
Y205098D01*
X270238Y204598D01*
X269984Y84493D02*
X266985D01*
Y85992D01*
X267484Y86492D01*
X268484D01*
X268984Y85992D01*
Y84493D01*
Y85492D02*
X269984Y86492D01*
X270483Y87492D02*
Y89491D01*
X266985Y90491D02*
X269984D01*
Y91990D01*
X269484Y92490D01*
X267484D01*
X266985Y91990D01*
Y90491D01*
X267984Y93990D02*
Y94989D01*
X268484Y95489D01*
X269984D01*
Y93990D01*
X269484Y93490D01*
X268984Y93990D01*
Y95489D01*
X267484Y96989D02*
X267984D01*
Y96489D01*
Y97489D01*
Y96989D01*
X269484D01*
X269984Y97489D01*
X267984Y99488D02*
Y100488D01*
X268484Y100988D01*
X269984D01*
Y99488D01*
X269484Y98988D01*
X268984Y99488D01*
Y100988D01*
X269984Y103487D02*
X266985D01*
X268484Y101987D01*
Y103987D01*
X196165Y84197D02*
X193166D01*
Y85697D01*
X193666Y86197D01*
X194665D01*
X195165Y85697D01*
Y84197D01*
Y85197D02*
X196165Y86197D01*
X196665Y87196D02*
Y89196D01*
X193166Y90195D02*
X196165D01*
Y91695D01*
X195665Y92195D01*
X193666D01*
X193166Y91695D01*
Y90195D01*
X194165Y93694D02*
Y94694D01*
X194665Y95194D01*
X196165D01*
Y93694D01*
X195665Y93194D01*
X195165Y93694D01*
Y95194D01*
X193666Y96693D02*
X194165D01*
Y96193D01*
Y97193D01*
Y96693D01*
X195665D01*
X196165Y97193D01*
X194165Y99192D02*
Y100192D01*
X194665Y100692D01*
X196165D01*
Y99192D01*
X195665Y98692D01*
X195165Y99192D01*
Y100692D01*
X193666Y101691D02*
X193166Y102191D01*
Y103191D01*
X193666Y103691D01*
X194165D01*
X194665Y103191D01*
Y102691D01*
Y103191D01*
X195165Y103691D01*
X195665D01*
X196165Y103191D01*
Y102191D01*
X195665Y101691D01*
X155170Y84493D02*
X152171D01*
Y85992D01*
X152671Y86492D01*
X153671D01*
X154171Y85992D01*
Y84493D01*
Y85492D02*
X155170Y86492D01*
X155670Y87492D02*
Y89491D01*
X152171Y90491D02*
X155170D01*
Y91990D01*
X154671Y92490D01*
X152671D01*
X152171Y91990D01*
Y90491D01*
X153171Y93990D02*
Y94989D01*
X153671Y95489D01*
X155170D01*
Y93990D01*
X154671Y93490D01*
X154171Y93990D01*
Y95489D01*
X152671Y96989D02*
X153171D01*
Y96489D01*
Y97489D01*
Y96989D01*
X154671D01*
X155170Y97489D01*
X153171Y99488D02*
Y100488D01*
X153671Y100988D01*
X155170D01*
Y99488D01*
X154671Y98988D01*
X154171Y99488D01*
Y100988D01*
X155170Y103987D02*
Y101987D01*
X153171Y103987D01*
X152671D01*
X152171Y103487D01*
Y102487D01*
X152671Y101987D01*
X79563Y84100D02*
X76565D01*
Y85599D01*
X77064Y86099D01*
X78064D01*
X78564Y85599D01*
Y84100D01*
Y85099D02*
X79563Y86099D01*
X80063Y87099D02*
Y89098D01*
X76565Y90098D02*
X79563D01*
Y91597D01*
X79064Y92097D01*
X77064D01*
X76565Y91597D01*
Y90098D01*
X77564Y93597D02*
Y94596D01*
X78064Y95096D01*
X79563D01*
Y93597D01*
X79064Y93097D01*
X78564Y93597D01*
Y95096D01*
X77064Y96596D02*
X77564D01*
Y96096D01*
Y97095D01*
Y96596D01*
X79064D01*
X79563Y97095D01*
X77564Y99095D02*
Y100094D01*
X78064Y100594D01*
X79563D01*
Y99095D01*
X79064Y98595D01*
X78564Y99095D01*
Y100594D01*
X79563Y101594D02*
Y102594D01*
Y102094D01*
X76565D01*
X77064Y101594D01*
X236736Y199477D02*
X233737D01*
Y200976D01*
X234237Y201476D01*
X235236D01*
X235736Y200976D01*
Y199477D01*
Y200476D02*
X236736Y201476D01*
Y202476D02*
Y203475D01*
Y202976D01*
X233737D01*
X234237Y202476D01*
Y204975D02*
X233737Y205475D01*
Y206474D01*
X234237Y206974D01*
X236236D01*
X236736Y206474D01*
Y205475D01*
X236236Y204975D01*
X234237D01*
X233737Y209973D02*
X234237Y208974D01*
X235236Y207974D01*
X236236D01*
X236736Y208474D01*
Y209473D01*
X236236Y209973D01*
X235736D01*
X235236Y209473D01*
Y207974D01*
X310455Y199476D02*
X307456D01*
Y200976D01*
X307956Y201476D01*
X308956D01*
X309456Y200976D01*
Y199476D01*
Y200476D02*
X310455Y201476D01*
Y202475D02*
Y203475D01*
Y202975D01*
X307456D01*
X307956Y202475D01*
Y204974D02*
X307456Y205474D01*
Y206474D01*
X307956Y206974D01*
X309956D01*
X310455Y206474D01*
Y205474D01*
X309956Y204974D01*
X307956D01*
X307456Y209973D02*
Y207973D01*
X308956D01*
X308456Y208973D01*
Y209473D01*
X308956Y209973D01*
X309956D01*
X310455Y209473D01*
Y208473D01*
X309956Y207973D01*
X307602Y78413D02*
X304603D01*
Y79913D01*
X305103Y80413D01*
X306102D01*
X306602Y79913D01*
Y78413D01*
Y79413D02*
X307602Y80413D01*
Y81412D02*
Y82412D01*
Y81912D01*
X304603D01*
X305103Y81412D01*
Y83911D02*
X304603Y84411D01*
Y85411D01*
X305103Y85911D01*
X307102D01*
X307602Y85411D01*
Y84411D01*
X307102Y83911D01*
X305103D01*
X307602Y88410D02*
X304603D01*
X306102Y86910D01*
Y88910D01*
X232799Y77429D02*
X229800D01*
Y78928D01*
X230299Y79428D01*
X231299D01*
X231799Y78928D01*
Y77429D01*
Y78429D02*
X232799Y79428D01*
Y80428D02*
Y81428D01*
Y80928D01*
X229800D01*
X230299Y80428D01*
Y82927D02*
X229800Y83427D01*
Y84427D01*
X230299Y84926D01*
X232299D01*
X232799Y84427D01*
Y83427D01*
X232299Y82927D01*
X230299D01*
Y85926D02*
X229800Y86426D01*
Y87426D01*
X230299Y87925D01*
X230799D01*
X231299Y87426D01*
Y86926D01*
Y87426D01*
X231799Y87925D01*
X232299D01*
X232799Y87426D01*
Y86426D01*
X232299Y85926D01*
X110791Y77429D02*
X107791D01*
Y78928D01*
X108291Y79428D01*
X109291D01*
X109791Y78928D01*
Y77429D01*
Y78429D02*
X110791Y79428D01*
Y80428D02*
Y81428D01*
Y80928D01*
X107791D01*
X108291Y80428D01*
Y82927D02*
X107791Y83427D01*
Y84427D01*
X108291Y84926D01*
X110291D01*
X110791Y84427D01*
Y83427D01*
X110291Y82927D01*
X108291D01*
X110791Y87925D02*
Y85926D01*
X108791Y87925D01*
X108291D01*
X107791Y87426D01*
Y86426D01*
X108291Y85926D01*
X33882Y77709D02*
X30883D01*
Y79208D01*
X31383Y79708D01*
X32383D01*
X32883Y79208D01*
Y77709D01*
Y78709D02*
X33882Y79708D01*
Y80708D02*
Y81708D01*
Y81208D01*
X30883D01*
X31383Y80708D01*
Y83207D02*
X30883Y83707D01*
Y84707D01*
X31383Y85207D01*
X33383D01*
X33882Y84707D01*
Y83707D01*
X33383Y83207D01*
X31383D01*
X33882Y86206D02*
Y87206D01*
Y86706D01*
X30883D01*
X31383Y86206D01*
X161933Y198492D02*
X158933D01*
Y199991D01*
X159433Y200491D01*
X160433D01*
X160933Y199991D01*
Y198492D01*
Y199492D02*
X161933Y200491D01*
Y201491D02*
Y202491D01*
Y201991D01*
X158933D01*
X159433Y201491D01*
Y203990D02*
X158933Y204490D01*
Y205490D01*
X159433Y205989D01*
X161433D01*
X161933Y205490D01*
Y204490D01*
X161433Y203990D01*
X159433D01*
X158933Y206989D02*
Y208988D01*
X159433D01*
X161433Y206989D01*
X161933D01*
X88114Y199476D02*
X85115D01*
Y200976D01*
X85615Y201476D01*
X86614D01*
X87114Y200976D01*
Y199476D01*
Y200476D02*
X88114Y201476D01*
Y202475D02*
Y203475D01*
Y202975D01*
X85115D01*
X85615Y202475D01*
Y204974D02*
X85115Y205474D01*
Y206474D01*
X85615Y206974D01*
X87614D01*
X88114Y206474D01*
Y205474D01*
X87614Y204974D01*
X85615D01*
Y207973D02*
X85115Y208473D01*
Y209473D01*
X85615Y209973D01*
X86114D01*
X86614Y209473D01*
X87114Y209973D01*
X87614D01*
X88114Y209473D01*
Y208473D01*
X87614Y207973D01*
X87114D01*
X86614Y208473D01*
X86114Y207973D01*
X85615D01*
X86614Y208473D02*
Y209473D01*
X271184Y157184D02*
X268185D01*
Y158684D01*
X268685Y159184D01*
X269685D01*
X270185Y158684D01*
Y157184D01*
Y158184D02*
X271184Y159184D01*
Y160183D02*
Y161183D01*
Y160683D01*
X268185D01*
X268685Y160183D01*
X271184Y162682D02*
Y163682D01*
Y163182D01*
X268185D01*
X268685Y162682D01*
X282996Y156684D02*
X279996D01*
Y158184D01*
X280496Y158684D01*
X281496D01*
X281996Y158184D01*
Y156684D01*
Y157684D02*
X282996Y158684D01*
Y159683D02*
Y160683D01*
Y160183D01*
X279996D01*
X280496Y159683D01*
Y162182D02*
X279996Y162682D01*
Y163682D01*
X280496Y164182D01*
X282496D01*
X282996Y163682D01*
Y162682D01*
X282496Y162182D01*
X280496D01*
X319600Y200698D02*
X323599Y194700D01*
Y200698D02*
X319600Y194700D01*
X325598Y193700D02*
X329597D01*
X334595Y200698D02*
X332596D01*
X331596Y199698D01*
Y195700D01*
X332596Y194700D01*
X334595D01*
X335595Y195700D01*
Y199698D01*
X334595Y200698D01*
X337594Y198699D02*
Y195700D01*
X338594Y194700D01*
X341593D01*
Y198699D01*
X344592Y199698D02*
Y198699D01*
X343592D01*
X345592D01*
X344592D01*
Y195700D01*
X345592Y194700D01*
X8204Y199365D02*
X12203Y193367D01*
Y199365D02*
X8204Y193367D01*
X14202Y192367D02*
X18201D01*
X20200Y199365D02*
X22200D01*
X21200D01*
Y193367D01*
X20200D01*
X22200D01*
X25199D02*
Y197366D01*
X28198D01*
X29197Y196366D01*
Y193367D01*
D16*
X131524Y31622D02*
X133190D01*
X132357D01*
Y36620D01*
X131524Y35787D01*
Y22455D02*
X132357Y21622D01*
X134023D01*
X134856Y22455D01*
Y25787D01*
X134023Y26620D01*
X132357D01*
X131524Y25787D01*
Y24954D01*
X132357Y24121D01*
X134856D01*
X131524Y261937D02*
X133190D01*
X132357D01*
Y266935D01*
X131524Y266102D01*
Y252770D02*
X132357Y251937D01*
X134023D01*
X134856Y252770D01*
Y256102D01*
X134023Y256935D01*
X132357D01*
X131524Y256102D01*
Y255269D01*
X132357Y254436D01*
X134856D01*
M02*
