G04*
G04 #@! TF.GenerationSoftware,Altium Limited,Altium Designer,24.5.2 (23)*
G04*
G04 Layer_Color=32896*
%FSLAX25Y25*%
%MOIN*%
G70*
G04*
G04 #@! TF.SameCoordinates,F9E145AB-4376-4A3A-B871-3CA844BA1A44*
G04*
G04*
G04 #@! TF.FilePolarity,Positive*
G04*
G01*
G75*
%ADD10C,0.00787*%
%ADD13C,0.00598*%
%ADD15C,0.01000*%
D10*
X338583Y189567D02*
Y194291D01*
X326870Y195669D02*
X338484D01*
X326870D02*
Y198031D01*
X338484D01*
Y195669D02*
Y198031D01*
D13*
X225046Y88995D02*
Y90334D01*
X221897Y88995D02*
Y90334D01*
X299771Y89291D02*
Y90630D01*
X296621Y89291D02*
Y90630D01*
Y201102D02*
Y202441D01*
X299771Y201102D02*
Y202441D01*
X221818Y201102D02*
Y202441D01*
X224968Y201102D02*
Y202441D01*
X72212Y201102D02*
Y202441D01*
X75361Y201102D02*
Y202441D01*
X147015Y201102D02*
Y202441D01*
X150164Y201102D02*
Y202441D01*
X75642Y164173D02*
X76980D01*
X75642Y161024D02*
X76980D01*
X130543Y89291D02*
Y90630D01*
X127393Y89291D02*
Y90630D01*
X55740Y88898D02*
Y90236D01*
X52590Y88898D02*
Y90236D01*
D15*
X81185Y153015D02*
Y150016D01*
X79685D01*
X79186Y150516D01*
Y151015D01*
Y151515D01*
X79685Y152015D01*
X81185D01*
X76687Y150016D02*
X77686D01*
X78186Y150516D01*
Y151515D01*
X77686Y152015D01*
X76687D01*
X76187Y151515D01*
Y151015D01*
X78186D01*
X75187Y150016D02*
X74187D01*
X74687D01*
Y152015D01*
X75187D01*
X69689Y150016D02*
X68689D01*
X69189D01*
Y153015D01*
X69689D01*
X65690Y150016D02*
X66690D01*
X67190Y150516D01*
Y151515D01*
X66690Y152015D01*
X65690D01*
X65190Y151515D01*
Y151015D01*
X67190D01*
X63691Y152515D02*
Y152015D01*
X64191D01*
X63191D01*
X63691D01*
Y150516D01*
X63191Y150016D01*
X61691Y152015D02*
X59692D01*
X61691Y150016D01*
X59692D01*
X58192Y152515D02*
Y152015D01*
X58692D01*
X57693D01*
X58192D01*
Y150516D01*
X57693Y150016D01*
X54694D02*
X55693D01*
X56193Y150516D01*
Y151515D01*
X55693Y152015D01*
X54694D01*
X54194Y151515D01*
Y151015D01*
X56193D01*
X53194Y152015D02*
Y150016D01*
Y151015D01*
X52694Y151515D01*
X52194Y152015D01*
X51695D01*
X47196Y150016D02*
Y153015D01*
X45696D01*
X45197Y152515D01*
Y151515D01*
X45696Y151015D01*
X47196D01*
X44197Y150016D02*
X43197D01*
X43697D01*
Y153015D01*
X44197D01*
X41198Y152015D02*
X40198D01*
X39698Y151515D01*
Y150016D01*
X41198D01*
X41698Y150516D01*
X41198Y151015D01*
X39698D01*
X38199Y152515D02*
Y152015D01*
X38699D01*
X37699D01*
X38199D01*
Y150516D01*
X37699Y150016D01*
X36200D02*
X35200D01*
X35700D01*
Y152015D01*
X36200D01*
X33700Y150016D02*
Y152015D01*
X32201D01*
X31701Y151515D01*
Y150016D01*
X29202D02*
X30202D01*
X30701Y150516D01*
Y151515D01*
X30202Y152015D01*
X29202D01*
X28702Y151515D01*
Y151015D01*
X30701D01*
X81382Y155724D02*
Y158723D01*
X79382Y155724D01*
Y158723D01*
X78383Y157724D02*
Y156224D01*
X77883Y155724D01*
X76384D01*
Y157724D01*
X75384D02*
Y155724D01*
Y156724D01*
X74884Y157224D01*
X74384Y157724D01*
X73884D01*
X69386Y158723D02*
Y155724D01*
X67886D01*
X67386Y156224D01*
Y156724D01*
Y157224D01*
X67886Y157724D01*
X69386D01*
X64887Y155724D02*
X65887D01*
X66387Y156224D01*
Y157224D01*
X65887Y157724D01*
X64887D01*
X64387Y157224D01*
Y156724D01*
X66387D01*
X63388Y155724D02*
X61888D01*
X61388Y156224D01*
X61888Y156724D01*
X62888D01*
X63388Y157224D01*
X62888Y157724D01*
X61388D01*
X59889Y158224D02*
Y157724D01*
X60389D01*
X59389D01*
X59889D01*
Y156224D01*
X59389Y155724D01*
X57889Y157724D02*
Y156224D01*
X57390Y155724D01*
X55890D01*
Y157724D01*
X53391Y155724D02*
X54391D01*
X54891Y156224D01*
Y157224D01*
X54391Y157724D01*
X53391D01*
X52891Y157224D01*
Y156724D01*
X54891D01*
X49892Y157724D02*
X51392D01*
X51891Y157224D01*
Y156224D01*
X51392Y155724D01*
X49892D01*
X48892D02*
Y158723D01*
Y156724D02*
X47393Y157724D01*
X48892Y156724D02*
X47393Y155724D01*
X44394D02*
X45393D01*
X45893Y156224D01*
Y157224D01*
X45393Y157724D01*
X44394D01*
X43894Y157224D01*
Y156724D01*
X45893D01*
X42894Y155724D02*
Y157724D01*
X41395D01*
X40895Y157224D01*
Y155724D01*
X337676Y206927D02*
Y208927D01*
X338175Y209427D01*
X339175D01*
X339675Y208927D01*
Y206927D01*
X339175Y206428D01*
X338175D01*
X338675Y207427D02*
X337676Y206428D01*
X338175D02*
X337676Y206927D01*
X336676Y205928D02*
X334677D01*
X333677Y209427D02*
Y206428D01*
X331678D01*
X328678Y209427D02*
X330678D01*
Y206428D01*
X328678D01*
X330678Y207927D02*
X329678D01*
X327679Y209427D02*
Y206428D01*
X326179D01*
X325679Y206927D01*
Y208927D01*
X326179Y209427D01*
X327679D01*
X81214Y167550D02*
Y170549D01*
X79715D01*
X79215Y170049D01*
Y169049D01*
X79715Y168549D01*
X81214D01*
X80214D02*
X79215Y167550D01*
X78215Y167050D02*
X76216D01*
X75216Y167550D02*
Y170549D01*
X73716D01*
X73217Y170049D01*
Y169049D01*
X73716Y168549D01*
X75216D01*
X72217Y169549D02*
Y168050D01*
X71717Y167550D01*
X70218D01*
Y169549D01*
X69218Y167550D02*
X68218D01*
X68718D01*
Y170549D01*
X69218D01*
X66719Y167550D02*
X65719D01*
X66219D01*
Y170549D01*
X66719D01*
X64219D02*
Y167550D01*
X62720D01*
X62220Y168050D01*
Y170049D01*
X62720Y170549D01*
X64219D01*
X60721Y167550D02*
X59721D01*
X59221Y168050D01*
Y169049D01*
X59721Y169549D01*
X60721D01*
X61221Y169049D01*
Y168050D01*
X60721Y167550D01*
X58221Y169549D02*
Y168050D01*
X57722Y167550D01*
X57222Y168050D01*
X56722Y167550D01*
X56222Y168050D01*
Y169549D01*
X55222Y167550D02*
Y169549D01*
X53723D01*
X53223Y169049D01*
Y167550D01*
X52223Y167050D02*
X50224D01*
X47225Y170049D02*
X47725Y170549D01*
X48724D01*
X49224Y170049D01*
Y169549D01*
X48724Y169049D01*
X47725D01*
X47225Y168549D01*
Y168050D01*
X47725Y167550D01*
X48724D01*
X49224Y168050D01*
X44226Y170549D02*
X46225D01*
Y167550D01*
X44226D01*
X46225Y169049D02*
X45226D01*
X43226Y167550D02*
Y170549D01*
X41727D01*
X41227Y170049D01*
Y169049D01*
X41727Y168549D01*
X43226D01*
X42227D02*
X41227Y167550D01*
X70692Y206239D02*
X67693D01*
Y204740D01*
X68193Y204240D01*
X69193D01*
X69693Y204740D01*
Y206239D01*
Y205240D02*
X70692Y204240D01*
X68193Y203240D02*
X67693Y202741D01*
Y201741D01*
X68193Y201241D01*
X68693D01*
X69193Y201741D01*
X69693Y201241D01*
X70193D01*
X70692Y201741D01*
Y202741D01*
X70193Y203240D01*
X69693D01*
X69193Y202741D01*
X68693Y203240D01*
X68193D01*
X69193Y202741D02*
Y201741D01*
X144774Y206633D02*
X141775D01*
Y205134D01*
X142275Y204634D01*
X143275D01*
X143775Y205134D01*
Y206633D01*
Y205633D02*
X144774Y204634D01*
X141775Y203634D02*
Y201635D01*
X142275D01*
X144274Y203634D01*
X144774D01*
X219577Y206436D02*
X216578D01*
Y204937D01*
X217078Y204437D01*
X218078D01*
X218578Y204937D01*
Y206436D01*
Y205436D02*
X219577Y204437D01*
X216578Y201438D02*
X217078Y202437D01*
X218078Y203437D01*
X219078D01*
X219577Y202937D01*
Y201938D01*
X219078Y201438D01*
X218578D01*
X218078Y201938D01*
Y203437D01*
X294282Y206633D02*
X291283D01*
Y205134D01*
X291782Y204634D01*
X292782D01*
X293282Y205134D01*
Y206633D01*
Y205633D02*
X294282Y204634D01*
X291283Y201635D02*
Y203634D01*
X292782D01*
X292282Y202634D01*
Y202134D01*
X292782Y201635D01*
X293782D01*
X294282Y202134D01*
Y203134D01*
X293782Y203634D01*
X294118Y94625D02*
X291119D01*
Y93125D01*
X291618Y92625D01*
X292618D01*
X293118Y93125D01*
Y94625D01*
Y93625D02*
X294118Y92625D01*
Y90126D02*
X291119D01*
X292618Y91625D01*
Y89626D01*
X219315Y94527D02*
X216315D01*
Y93027D01*
X216815Y92527D01*
X217815D01*
X218315Y93027D01*
Y94527D01*
Y93527D02*
X219315Y92527D01*
X216815Y91528D02*
X216315Y91028D01*
Y90028D01*
X216815Y89528D01*
X217315D01*
X217815Y90028D01*
Y90528D01*
Y90028D01*
X218315Y89528D01*
X218815D01*
X219315Y90028D01*
Y91028D01*
X218815Y91528D01*
X124464Y94822D02*
X121465D01*
Y93322D01*
X121965Y92822D01*
X122964D01*
X123464Y93322D01*
Y94822D01*
Y93822D02*
X124464Y92822D01*
Y89823D02*
Y91823D01*
X122464Y89823D01*
X121965D01*
X121465Y90323D01*
Y91323D01*
X121965Y91823D01*
X58571Y84615D02*
X61570D01*
Y86114D01*
X61070Y86614D01*
X60071D01*
X59571Y86114D01*
Y84615D01*
Y85615D02*
X58571Y86614D01*
Y87614D02*
Y88613D01*
Y88114D01*
X61570D01*
X61070Y87614D01*
M02*
