G04*
G04 #@! TF.GenerationSoftware,Altium Limited,Altium Designer,24.5.2 (23)*
G04*
G04 Layer_Physical_Order=1*
G04 Layer_Color=255*
%FSLAX25Y25*%
%MOIN*%
G70*
G04*
G04 #@! TF.SameCoordinates,F9E145AB-4376-4A3A-B871-3CA844BA1A44*
G04*
G04*
G04 #@! TF.FilePolarity,Positive*
G04*
G01*
G75*
%ADD26R,0.02756X0.06890*%
%ADD27R,0.03150X0.06890*%
%ADD32C,0.01181*%
%ADD33R,0.03347X0.03543*%
G04:AMPARAMS|DCode=34|XSize=61.81mil|YSize=16.14mil|CornerRadius=2.02mil|HoleSize=0mil|Usage=FLASHONLY|Rotation=270.000|XOffset=0mil|YOffset=0mil|HoleType=Round|Shape=RoundedRectangle|*
%AMROUNDEDRECTD34*
21,1,0.06181,0.01211,0,0,270.0*
21,1,0.05778,0.01614,0,0,270.0*
1,1,0.00404,-0.00605,-0.02889*
1,1,0.00404,-0.00605,0.02889*
1,1,0.00404,0.00605,0.02889*
1,1,0.00404,0.00605,-0.02889*
%
%ADD34ROUNDEDRECTD34*%
%ADD35R,0.03347X0.03347*%
%ADD36R,0.03347X0.03347*%
%ADD37C,0.05906*%
%ADD38R,0.05906X0.05906*%
%ADD39R,0.05906X0.05906*%
%ADD40C,0.18898*%
%ADD41C,0.05000*%
G36*
X350575Y803D02*
X803D01*
Y285614D01*
X350575D01*
Y803D01*
D02*
G37*
%LPC*%
G36*
X199043Y270184D02*
X188728D01*
X188191Y270077D01*
X187735Y269773D01*
X185364Y267402D01*
X185329Y267422D01*
X184378Y267677D01*
X183393D01*
X182442Y267422D01*
X182407Y267402D01*
X180037Y269773D01*
X179581Y270077D01*
X179043Y270184D01*
X168728D01*
X168191Y270077D01*
X167735Y269773D01*
X165364Y267402D01*
X165330Y267422D01*
X164378Y267677D01*
X163393D01*
X162442Y267422D01*
X162408Y267402D01*
X160037Y269773D01*
X159581Y270077D01*
X159043Y270184D01*
X148728D01*
X148191Y270077D01*
X147735Y269773D01*
X145639Y267677D01*
X140146D01*
Y262980D01*
X66693D01*
X66155Y262873D01*
X65699Y262568D01*
X12168Y209037D01*
X11863Y208581D01*
X11756Y208043D01*
Y129083D01*
X11863Y128545D01*
X12168Y128089D01*
X16220Y124037D01*
X16200Y124003D01*
X15945Y123052D01*
Y122067D01*
X16200Y121115D01*
X16692Y120263D01*
X17389Y119566D01*
X18241Y119074D01*
X19193Y118819D01*
X20177D01*
X21129Y119074D01*
X21163Y119094D01*
X33233Y107024D01*
Y49256D01*
X33340Y48718D01*
X33644Y48262D01*
X56812Y25095D01*
X57267Y24791D01*
X57805Y24684D01*
X112607D01*
X114662Y22629D01*
X115118Y22324D01*
X115656Y22217D01*
X140390D01*
X140401Y22178D01*
X140893Y21326D01*
X141589Y20629D01*
X142442Y20137D01*
X143393Y19882D01*
X144378D01*
X145329Y20137D01*
X145364Y20157D01*
X147735Y17786D01*
X148191Y17481D01*
X148728Y17375D01*
X159043D01*
X159581Y17481D01*
X160037Y17786D01*
X162408Y20157D01*
X162442Y20137D01*
X163393Y19882D01*
X164378D01*
X165330Y20137D01*
X165364Y20157D01*
X167735Y17786D01*
X168191Y17481D01*
X168728Y17375D01*
X179043D01*
X179581Y17481D01*
X180037Y17786D01*
X182407Y20157D01*
X182442Y20137D01*
X183393Y19882D01*
X184378D01*
X185329Y20137D01*
X185364Y20157D01*
X187735Y17786D01*
X188191Y17481D01*
X188728Y17375D01*
X199043D01*
X199581Y17481D01*
X200037Y17786D01*
X202408Y20157D01*
X202442Y20137D01*
X203393Y19882D01*
X204378D01*
X205329Y20137D01*
X206182Y20629D01*
X206879Y21326D01*
X207371Y22178D01*
X207626Y23130D01*
Y24114D01*
X207371Y25066D01*
X206879Y25918D01*
X206182Y26615D01*
X205329Y27107D01*
X204378Y27362D01*
X203393D01*
X202442Y27107D01*
X201589Y26615D01*
X200893Y25918D01*
X200401Y25066D01*
X200146Y24114D01*
Y23130D01*
X200401Y22178D01*
X200421Y22144D01*
X198461Y20185D01*
X196851D01*
X196525Y20972D01*
X196879Y21326D01*
X197371Y22178D01*
X197626Y23130D01*
Y24114D01*
X197371Y25066D01*
X196879Y25918D01*
X196182Y26615D01*
X195750Y26864D01*
X195848Y27717D01*
X196278Y27847D01*
X197359Y28425D01*
X198306Y29202D01*
X199083Y30149D01*
X199661Y31230D01*
X199791Y31660D01*
X200528Y31780D01*
X200648Y31751D01*
X200893Y31326D01*
X201589Y30629D01*
X202442Y30137D01*
X203393Y29882D01*
X204378D01*
X205329Y30137D01*
X206182Y30629D01*
X206879Y31326D01*
X207371Y32178D01*
X207626Y33130D01*
Y34114D01*
X207371Y35066D01*
X207351Y35100D01*
X219074Y46823D01*
X276575D01*
X277112Y46930D01*
X277568Y47235D01*
X308554Y78221D01*
X309547D01*
Y77165D01*
X314469D01*
Y82087D01*
X312153D01*
X311948Y82268D01*
X311980Y82527D01*
X312363Y83055D01*
X314681D01*
Y84728D01*
X312008D01*
Y85728D01*
X311008D01*
Y88402D01*
X309335D01*
Y85315D01*
X308607Y85014D01*
X295696Y97925D01*
Y123031D01*
X295589Y123569D01*
X295285Y124025D01*
X278438Y140872D01*
X278740Y141599D01*
X298343D01*
X322414Y117528D01*
Y116830D01*
Y88287D01*
X322342D01*
Y83366D01*
X327264D01*
Y88287D01*
X325224D01*
Y108120D01*
X325699Y108710D01*
X326011Y108710D01*
X328652D01*
Y112663D01*
Y116616D01*
X326705D01*
X326379Y117403D01*
X328173Y119198D01*
X328208Y119178D01*
X329159Y118923D01*
X330144D01*
X331095Y119178D01*
X331948Y119670D01*
X332645Y120367D01*
X333137Y121220D01*
X333392Y122171D01*
Y123155D01*
X333137Y124107D01*
X333117Y124142D01*
X343478Y134502D01*
X343782Y134958D01*
X343889Y135495D01*
Y145317D01*
X343925Y145495D01*
Y187008D01*
X343818Y187546D01*
X343513Y188001D01*
X336623Y194891D01*
X336168Y195196D01*
X335630Y195303D01*
X320866D01*
X320328Y195196D01*
X319873Y194891D01*
X289871Y164889D01*
X288878D01*
Y165945D01*
X283957D01*
Y161024D01*
X288878D01*
Y162079D01*
X290453D01*
X290990Y162186D01*
X291446Y162491D01*
X321448Y192493D01*
X335048D01*
X341115Y186426D01*
Y145674D01*
X341079Y145495D01*
Y136077D01*
X331130Y126128D01*
X331095Y126148D01*
X330144Y126403D01*
X329159D01*
X328208Y126148D01*
X327355Y125656D01*
X326659Y124960D01*
X326167Y124107D01*
X325912Y123155D01*
Y122171D01*
X326167Y121220D01*
X326186Y121185D01*
X324459Y119457D01*
X301363Y142553D01*
X301665Y143280D01*
X321674D01*
X322211Y143387D01*
X322667Y143692D01*
X328173Y149198D01*
X328208Y149178D01*
X329159Y148923D01*
X330144D01*
X331095Y149178D01*
X331948Y149670D01*
X332645Y150367D01*
X333137Y151219D01*
X333392Y152171D01*
Y153156D01*
X333137Y154107D01*
X332645Y154960D01*
X331948Y155656D01*
X331095Y156148D01*
X330144Y156403D01*
X329159D01*
X328208Y156148D01*
X327355Y155656D01*
X326659Y154960D01*
X326167Y154107D01*
X325912Y153156D01*
Y152171D01*
X326167Y151219D01*
X326186Y151185D01*
X321092Y146090D01*
X286901D01*
X286600Y146818D01*
X306150Y166368D01*
X327014D01*
X327267Y165841D01*
X327269Y165828D01*
X327283Y165584D01*
X326659Y164960D01*
X326167Y164107D01*
X325912Y163155D01*
Y162171D01*
X326167Y161220D01*
X326659Y160367D01*
X327355Y159670D01*
X328208Y159178D01*
X329159Y158923D01*
X330144D01*
X331095Y159178D01*
X331948Y159670D01*
X332645Y160367D01*
X333137Y161220D01*
X333392Y162171D01*
Y163155D01*
X333231Y163756D01*
X333910Y164264D01*
X334142Y164122D01*
X335209Y163210D01*
Y140208D01*
X331130Y136128D01*
X331095Y136148D01*
X330144Y136403D01*
X329159D01*
X328208Y136148D01*
X327355Y135656D01*
X326659Y134960D01*
X326167Y134107D01*
X325912Y133156D01*
Y132171D01*
X326167Y131219D01*
X326659Y130367D01*
X327355Y129670D01*
X328208Y129178D01*
X329159Y128923D01*
X330144D01*
X331095Y129178D01*
X331948Y129670D01*
X332645Y130367D01*
X333137Y131219D01*
X333392Y132171D01*
Y133156D01*
X333137Y134107D01*
X333117Y134142D01*
X337608Y138632D01*
X337912Y139088D01*
X338019Y139626D01*
Y163326D01*
X338019Y163326D01*
X338019D01*
X338005Y163399D01*
X337926Y163994D01*
X337668Y164616D01*
X337258Y165151D01*
X337252Y165156D01*
X337238Y165177D01*
X337206Y165199D01*
X336623Y165693D01*
X335796Y166399D01*
X333837Y167600D01*
X333536Y167724D01*
X333520Y167736D01*
X332357Y168295D01*
X332270Y168317D01*
X332044Y168438D01*
X331614Y168568D01*
X331516Y169421D01*
X331948Y169670D01*
X332645Y170367D01*
X333137Y171220D01*
X333392Y172171D01*
Y173155D01*
X333137Y174107D01*
X332645Y174960D01*
X331948Y175656D01*
X331095Y176148D01*
X330144Y176403D01*
X329159D01*
X328208Y176148D01*
X327355Y175656D01*
X326659Y174960D01*
X326167Y174107D01*
X326156Y174068D01*
X306710D01*
X306172Y173961D01*
X305716Y173657D01*
X289605Y157545D01*
X288878Y157847D01*
Y159843D01*
X283957D01*
Y158802D01*
X283904Y158793D01*
X283832Y158787D01*
X277192D01*
X277119Y158793D01*
X277067Y158802D01*
Y159843D01*
X272146D01*
Y158787D01*
X270079D01*
X269541Y158680D01*
X269085Y158375D01*
X262585Y151875D01*
X260586D01*
X260553Y151911D01*
X260238Y152663D01*
X260295Y152749D01*
X260372Y153135D01*
Y158912D01*
X260295Y159298D01*
X260163Y159496D01*
Y165656D01*
X271251Y176745D01*
X298228D01*
X298766Y176852D01*
X299222Y177156D01*
X315855Y193789D01*
X316159Y194245D01*
X316266Y194783D01*
Y199213D01*
X317322D01*
Y204134D01*
X314899D01*
X314776Y204315D01*
X315194Y205102D01*
X317535D01*
Y206776D01*
X314861D01*
Y207776D01*
X313861D01*
Y210449D01*
X312188D01*
Y207362D01*
X311461Y207061D01*
X308997Y209525D01*
Y231222D01*
X308890Y231760D01*
X308585Y232216D01*
X295181Y245620D01*
X294725Y245925D01*
X294187Y246032D01*
X213778D01*
X207351Y252459D01*
X207371Y252493D01*
X207626Y253445D01*
Y254429D01*
X207371Y255381D01*
X206879Y256234D01*
X206182Y256930D01*
X205329Y257422D01*
X204378Y257677D01*
X203393D01*
X202442Y257422D01*
X201589Y256930D01*
X201236Y256576D01*
X200448Y256902D01*
Y258150D01*
X200341Y258687D01*
X200037Y259143D01*
X199328Y259852D01*
X198872Y260156D01*
X198335Y260263D01*
X196577D01*
X196372Y260617D01*
X196289Y261051D01*
X196879Y261641D01*
X197371Y262493D01*
X197626Y263445D01*
Y264429D01*
X197371Y265381D01*
X196879Y266233D01*
X196525Y266587D01*
X196851Y267375D01*
X198461D01*
X200421Y265415D01*
X200401Y265381D01*
X200146Y264429D01*
Y263445D01*
X200401Y262493D01*
X200893Y261641D01*
X201589Y260944D01*
X202442Y260452D01*
X203393Y260197D01*
X204378D01*
X205329Y260452D01*
X206182Y260944D01*
X206879Y261641D01*
X207371Y262493D01*
X207626Y263445D01*
Y264429D01*
X207371Y265381D01*
X206879Y266233D01*
X206182Y266930D01*
X205329Y267422D01*
X204378Y267677D01*
X203393D01*
X202442Y267422D01*
X202408Y267402D01*
X200037Y269773D01*
X199581Y270077D01*
X199043Y270184D01*
D02*
G37*
G36*
X214378Y267677D02*
X213393D01*
X212442Y267422D01*
X211589Y266930D01*
X210893Y266233D01*
X210401Y265381D01*
X210146Y264429D01*
Y263445D01*
X210401Y262493D01*
X210893Y261641D01*
X211589Y260944D01*
X212442Y260452D01*
X213393Y260197D01*
X214378D01*
X215330Y260452D01*
X216182Y260944D01*
X216879Y261641D01*
X217371Y262493D01*
X217626Y263445D01*
Y264429D01*
X217371Y265381D01*
X216879Y266233D01*
X216182Y266930D01*
X215330Y267422D01*
X214378Y267677D01*
D02*
G37*
G36*
X334670Y278937D02*
X332653D01*
X330676Y278544D01*
X328813Y277772D01*
X327136Y276652D01*
X325710Y275226D01*
X324590Y273550D01*
X323819Y271687D01*
X323425Y269709D01*
Y267693D01*
X323819Y265715D01*
X324590Y263852D01*
X325710Y262176D01*
X327136Y260750D01*
X328813Y259630D01*
X330676Y258858D01*
X332653Y258465D01*
X334670D01*
X336647Y258858D01*
X338510Y259630D01*
X340187Y260750D01*
X341612Y262176D01*
X342733Y263852D01*
X343504Y265715D01*
X343898Y267693D01*
Y269709D01*
X343504Y271687D01*
X342733Y273550D01*
X341612Y275226D01*
X340187Y276652D01*
X338510Y277772D01*
X336647Y278544D01*
X334670Y278937D01*
D02*
G37*
G36*
X18725D02*
X16708D01*
X14731Y278544D01*
X12868Y277772D01*
X11191Y276652D01*
X9766Y275226D01*
X8645Y273550D01*
X7874Y271687D01*
X7480Y269709D01*
Y267693D01*
X7874Y265715D01*
X8645Y263852D01*
X9766Y262176D01*
X11191Y260750D01*
X12868Y259630D01*
X14731Y258858D01*
X16708Y258465D01*
X18725D01*
X20702Y258858D01*
X22565Y259630D01*
X24242Y260750D01*
X25668Y262176D01*
X26788Y263852D01*
X27559Y265715D01*
X27953Y267693D01*
Y269709D01*
X27559Y271687D01*
X26788Y273550D01*
X25668Y275226D01*
X24242Y276652D01*
X22565Y277772D01*
X20702Y278544D01*
X18725Y278937D01*
D02*
G37*
G36*
X214378Y257677D02*
X213393D01*
X212442Y257422D01*
X211589Y256930D01*
X210893Y256234D01*
X210401Y255381D01*
X210146Y254429D01*
Y253445D01*
X210401Y252493D01*
X210893Y251641D01*
X211589Y250944D01*
X212442Y250452D01*
X213393Y250197D01*
X214378D01*
X215330Y250452D01*
X216182Y250944D01*
X216879Y251641D01*
X217371Y252493D01*
X217626Y253445D01*
Y254429D01*
X217371Y255381D01*
X216879Y256234D01*
X216182Y256930D01*
X215330Y257422D01*
X214378Y257677D01*
D02*
G37*
G36*
X317535Y210449D02*
X315861D01*
Y208776D01*
X317535D01*
Y210449D01*
D02*
G37*
G36*
X330144Y186403D02*
X329159D01*
X328208Y186148D01*
X327355Y185656D01*
X326659Y184960D01*
X326167Y184107D01*
X325912Y183156D01*
Y182171D01*
X326167Y181219D01*
X326659Y180367D01*
X327355Y179670D01*
X328208Y179178D01*
X329159Y178923D01*
X330144D01*
X331095Y179178D01*
X331948Y179670D01*
X332645Y180367D01*
X333137Y181219D01*
X333392Y182171D01*
Y183156D01*
X333137Y184107D01*
X332645Y184960D01*
X331948Y185656D01*
X331095Y186148D01*
X330144Y186403D01*
D02*
G37*
G36*
X277279Y166157D02*
X275606D01*
Y164484D01*
X277279D01*
Y166157D01*
D02*
G37*
G36*
X273606D02*
X271933D01*
Y164484D01*
X273606D01*
Y166157D01*
D02*
G37*
G36*
X277279Y162484D02*
X275606D01*
Y160811D01*
X277279D01*
Y162484D01*
D02*
G37*
G36*
X273606D02*
X271933D01*
Y160811D01*
X273606D01*
Y162484D01*
D02*
G37*
G36*
X330144Y146403D02*
X329159D01*
X328208Y146148D01*
X327355Y145656D01*
X326659Y144960D01*
X326167Y144107D01*
X325912Y143156D01*
Y142171D01*
X326167Y141219D01*
X326659Y140367D01*
X327355Y139670D01*
X328208Y139178D01*
X329159Y138923D01*
X330144D01*
X331095Y139178D01*
X331948Y139670D01*
X332645Y140367D01*
X333137Y141219D01*
X333392Y142171D01*
Y143156D01*
X333137Y144107D01*
X332645Y144960D01*
X331948Y145656D01*
X331095Y146148D01*
X330144Y146403D01*
D02*
G37*
G36*
X333605Y116616D02*
X330652D01*
Y113663D01*
X333605D01*
Y116616D01*
D02*
G37*
G36*
X20685Y116383D02*
Y113559D01*
X23509D01*
X23368Y114085D01*
X22848Y114986D01*
X22112Y115722D01*
X21211Y116242D01*
X20685Y116383D01*
D02*
G37*
G36*
X18685D02*
X18159Y116242D01*
X17258Y115722D01*
X16522Y114986D01*
X16002Y114085D01*
X15861Y113559D01*
X18685D01*
Y116383D01*
D02*
G37*
G36*
X23509Y111559D02*
X20685D01*
Y108735D01*
X21211Y108876D01*
X22112Y109396D01*
X22848Y110132D01*
X23368Y111033D01*
X23509Y111559D01*
D02*
G37*
G36*
X18685D02*
X15861D01*
X16002Y111033D01*
X16522Y110132D01*
X17258Y109396D01*
X18159Y108876D01*
X18685Y108735D01*
Y111559D01*
D02*
G37*
G36*
X333605Y111663D02*
X330652D01*
Y108710D01*
X333605D01*
Y111663D01*
D02*
G37*
G36*
X314681Y88402D02*
X313008D01*
Y86728D01*
X314681D01*
Y88402D01*
D02*
G37*
G36*
X342240D02*
X340567D01*
Y86630D01*
X342240D01*
Y88402D01*
D02*
G37*
G36*
X338567D02*
X336894D01*
Y86630D01*
X338567D01*
Y88402D01*
D02*
G37*
G36*
X342240Y84630D02*
X339567D01*
X336894D01*
Y82983D01*
X336894Y82858D01*
X337106Y82159D01*
X337106Y82071D01*
Y80932D01*
X327264D01*
Y82185D01*
X322342D01*
Y77264D01*
X327264D01*
Y78123D01*
X337106D01*
Y77165D01*
X342027D01*
X342028Y82159D01*
X342240Y82858D01*
X342240Y82983D01*
Y84630D01*
D02*
G37*
G36*
X214378Y37362D02*
X213393D01*
X212442Y37107D01*
X211589Y36615D01*
X210893Y35919D01*
X210401Y35066D01*
X210146Y34114D01*
Y33130D01*
X210401Y32178D01*
X210893Y31326D01*
X211589Y30629D01*
X212442Y30137D01*
X213393Y29882D01*
X214378D01*
X215330Y30137D01*
X216182Y30629D01*
X216879Y31326D01*
X217371Y32178D01*
X217626Y33130D01*
Y34114D01*
X217371Y35066D01*
X216879Y35919D01*
X216182Y36615D01*
X215330Y37107D01*
X214378Y37362D01*
D02*
G37*
G36*
Y27362D02*
X213393D01*
X212442Y27107D01*
X211589Y26615D01*
X210893Y25918D01*
X210401Y25066D01*
X210146Y24114D01*
Y23130D01*
X210401Y22178D01*
X210893Y21326D01*
X211589Y20629D01*
X212442Y20137D01*
X213393Y19882D01*
X214378D01*
X215330Y20137D01*
X216182Y20629D01*
X216879Y21326D01*
X217371Y22178D01*
X217626Y23130D01*
Y24114D01*
X217371Y25066D01*
X216879Y25918D01*
X216182Y26615D01*
X215330Y27107D01*
X214378Y27362D01*
D02*
G37*
G36*
X334670Y27953D02*
X332653D01*
X330676Y27559D01*
X328813Y26788D01*
X327136Y25668D01*
X325710Y24242D01*
X324590Y22565D01*
X323819Y20702D01*
X323425Y18725D01*
Y16708D01*
X323819Y14731D01*
X324590Y12868D01*
X325710Y11191D01*
X327136Y9766D01*
X328813Y8645D01*
X330676Y7874D01*
X332653Y7480D01*
X334670D01*
X336647Y7874D01*
X338510Y8645D01*
X340187Y9766D01*
X341612Y11191D01*
X342733Y12868D01*
X343504Y14731D01*
X343898Y16708D01*
Y18725D01*
X343504Y20702D01*
X342733Y22565D01*
X341612Y24242D01*
X340187Y25668D01*
X338510Y26788D01*
X336647Y27559D01*
X334670Y27953D01*
D02*
G37*
G36*
X18725D02*
X16708D01*
X14731Y27559D01*
X12868Y26788D01*
X11191Y25668D01*
X9766Y24242D01*
X8645Y22565D01*
X7874Y20702D01*
X7480Y18725D01*
Y16708D01*
X7874Y14731D01*
X8645Y12868D01*
X9766Y11191D01*
X11191Y9766D01*
X12868Y8645D01*
X14731Y7874D01*
X16708Y7480D01*
X18725D01*
X20702Y7874D01*
X22565Y8645D01*
X24242Y9766D01*
X25668Y11191D01*
X26788Y12868D01*
X27559Y14731D01*
X27953Y16708D01*
Y18725D01*
X27559Y20702D01*
X26788Y22565D01*
X25668Y24242D01*
X24242Y25668D01*
X22565Y26788D01*
X20702Y27559D01*
X18725Y27953D01*
D02*
G37*
%LPD*%
G36*
X191247Y266587D02*
X190893Y266233D01*
X190401Y265381D01*
X190146Y264429D01*
Y263445D01*
X190401Y262493D01*
X190893Y261641D01*
X191483Y261051D01*
X191400Y260617D01*
X191195Y260263D01*
X186577D01*
X186372Y260617D01*
X186289Y261051D01*
X186879Y261641D01*
X187371Y262493D01*
X187626Y263445D01*
Y264429D01*
X187371Y265381D01*
X187351Y265415D01*
X189310Y267375D01*
X190920D01*
X191247Y266587D01*
D02*
G37*
G36*
X180421Y265415D02*
X180401Y265381D01*
X180146Y264429D01*
Y263445D01*
X180401Y262493D01*
X180893Y261641D01*
X181483Y261051D01*
X181400Y260617D01*
X181195Y260263D01*
X176577D01*
X176372Y260617D01*
X176289Y261051D01*
X176879Y261641D01*
X177371Y262493D01*
X177626Y263445D01*
Y264429D01*
X177371Y265381D01*
X176879Y266233D01*
X176525Y266587D01*
X176851Y267375D01*
X178461D01*
X180421Y265415D01*
D02*
G37*
G36*
X171247Y266587D02*
X170893Y266233D01*
X170401Y265381D01*
X170146Y264429D01*
Y263445D01*
X170401Y262493D01*
X170893Y261641D01*
X171483Y261051D01*
X171400Y260617D01*
X171195Y260263D01*
X166577D01*
X166372Y260617D01*
X166289Y261051D01*
X166879Y261641D01*
X167371Y262493D01*
X167626Y263445D01*
Y264429D01*
X167371Y265381D01*
X167351Y265415D01*
X169310Y267375D01*
X170921D01*
X171247Y266587D01*
D02*
G37*
G36*
X160421Y265415D02*
X160401Y265381D01*
X160146Y264429D01*
Y263445D01*
X160401Y262493D01*
X160893Y261641D01*
X161483Y261051D01*
X161400Y260617D01*
X161195Y260263D01*
X156577D01*
X156372Y260617D01*
X156289Y261051D01*
X156879Y261641D01*
X157371Y262493D01*
X157626Y263445D01*
Y264429D01*
X157371Y265381D01*
X156879Y266233D01*
X156525Y266587D01*
X156851Y267375D01*
X158461D01*
X160421Y265415D01*
D02*
G37*
G36*
X151247Y266587D02*
X150893Y266233D01*
X150401Y265381D01*
X150146Y264429D01*
Y263445D01*
X150401Y262493D01*
X150893Y261641D01*
X151483Y261051D01*
X151400Y260617D01*
X151195Y260263D01*
X147626D01*
Y265690D01*
X149310Y267375D01*
X150920D01*
X151247Y266587D01*
D02*
G37*
G36*
X181325Y256666D02*
X180893Y256234D01*
X180401Y255381D01*
X180146Y254429D01*
Y253445D01*
X180401Y252493D01*
X180893Y251641D01*
X181589Y250944D01*
X182442Y250452D01*
X183393Y250197D01*
X184378D01*
X185329Y250452D01*
X185364Y250472D01*
X210452Y225384D01*
X210907Y225080D01*
X211445Y224973D01*
X231925D01*
Y209485D01*
X232032Y208947D01*
X232337Y208491D01*
X238681Y202147D01*
Y199213D01*
X243602D01*
Y202147D01*
X249696Y208241D01*
X259035D01*
X259138Y207496D01*
X259138Y207453D01*
Y205823D01*
X261811D01*
X264484D01*
Y207453D01*
X264484Y207496D01*
X264587Y208241D01*
X287342D01*
X287456Y208071D01*
X287035Y207283D01*
X284941D01*
Y206424D01*
X277854D01*
Y207283D01*
X272933D01*
Y202362D01*
X277854D01*
Y203615D01*
X284941D01*
Y202165D01*
X284941Y202165D01*
X284728Y201590D01*
X284728D01*
X284728Y201466D01*
Y199819D01*
X287402D01*
Y198819D01*
X288402D01*
Y196047D01*
X289646D01*
Y193208D01*
X279355Y182917D01*
X269277D01*
X268739Y182810D01*
X268283Y182505D01*
X252647Y166869D01*
X252342Y166413D01*
X252235Y165875D01*
Y160610D01*
X251686Y159921D01*
X250476D01*
X250090Y159844D01*
X249993Y159779D01*
X249596Y160044D01*
X249522Y160059D01*
Y159189D01*
X249467Y158912D01*
Y156024D01*
Y153135D01*
X249522Y152858D01*
Y151956D01*
X249622Y151967D01*
X250062Y151367D01*
X250304Y151005D01*
X250554Y150754D01*
X250253Y150027D01*
X246547D01*
X246245Y150754D01*
X246777Y151286D01*
X246878Y151437D01*
X247448Y152003D01*
X247522Y151988D01*
Y152858D01*
X247577Y153135D01*
Y156024D01*
Y158912D01*
X247522Y159189D01*
Y160059D01*
X247448Y160044D01*
X247051Y159779D01*
X246954Y159844D01*
X246568Y159921D01*
X245358D01*
X244809Y160610D01*
Y165952D01*
X262854Y183997D01*
X275117Y196260D01*
X277854D01*
Y201181D01*
X272933D01*
Y198050D01*
X263943Y189060D01*
X263216Y189362D01*
Y196135D01*
X263222Y196207D01*
X263231Y196260D01*
X264272D01*
Y201181D01*
X259350D01*
Y196260D01*
X260391D01*
X260400Y196207D01*
X260406Y196135D01*
Y185523D01*
X242822Y167939D01*
X198030D01*
X197492Y167832D01*
X197036Y167527D01*
X191991Y162482D01*
X191687Y162026D01*
X191580Y161488D01*
Y158116D01*
X190819Y158051D01*
X190181D01*
X189393Y158125D01*
Y177568D01*
X202234Y190408D01*
X202538Y190864D01*
X202645Y191402D01*
Y196135D01*
X202652Y196207D01*
X202660Y196260D01*
X203701D01*
Y201181D01*
X198780D01*
Y196260D01*
X199820D01*
X199829Y196207D01*
X199835Y196135D01*
Y191983D01*
X190121Y182269D01*
X189393Y182570D01*
Y196135D01*
X189400Y196207D01*
X189408Y196260D01*
X190453D01*
Y201181D01*
X185531D01*
Y196260D01*
X186568D01*
X186577Y196207D01*
X186583Y196135D01*
Y178150D01*
Y158107D01*
X185819Y158051D01*
X185150Y158051D01*
X184396Y158104D01*
X184389Y158176D01*
Y160519D01*
X184283Y161057D01*
X183978Y161513D01*
X179143Y166348D01*
X178687Y166652D01*
X178150Y166759D01*
X110720D01*
X110418Y167487D01*
X113198Y170266D01*
X126781Y183849D01*
X127085Y184305D01*
X127192Y184842D01*
Y196135D01*
X127199Y196207D01*
X127207Y196260D01*
X128248D01*
Y201181D01*
X123327D01*
Y196260D01*
X124367D01*
X124376Y196207D01*
X124382Y196135D01*
Y185424D01*
X114337Y175379D01*
X113610Y175680D01*
Y196135D01*
X113616Y196207D01*
X113625Y196260D01*
X114665D01*
Y201181D01*
X109744D01*
Y196260D01*
X110785D01*
X110793Y196207D01*
X110800Y196135D01*
Y171842D01*
X105306Y166348D01*
X100784Y161826D01*
X100760Y161790D01*
X99796Y161644D01*
X99789Y161646D01*
X76387Y185049D01*
X75931Y185353D01*
X75394Y185460D01*
X58653D01*
X51405Y192708D01*
Y196135D01*
X51411Y196207D01*
X51420Y196260D01*
X52460D01*
Y201181D01*
X47539D01*
Y196260D01*
X48580D01*
X48588Y196207D01*
X48595Y196135D01*
Y192126D01*
X48702Y191588D01*
X49006Y191133D01*
X53952Y186188D01*
X53650Y185460D01*
X44873D01*
X38807Y191527D01*
Y196135D01*
X38813Y196207D01*
X38822Y196260D01*
X39862D01*
Y201181D01*
X34941D01*
Y196260D01*
X35982D01*
X35990Y196207D01*
X35997Y196135D01*
Y190945D01*
X36104Y190407D01*
X36408Y189951D01*
X43298Y183062D01*
X43754Y182757D01*
X44291Y182650D01*
X74812D01*
X79305Y178157D01*
X79182Y177897D01*
X78841Y177507D01*
X78445Y177586D01*
X43889D01*
X26996Y194480D01*
Y203158D01*
X31094Y207257D01*
X34728D01*
Y205823D01*
X37402D01*
X40075D01*
Y207257D01*
X47539D01*
Y202362D01*
X52460D01*
Y203615D01*
X60532D01*
X60532Y202290D01*
X60319Y201590D01*
X60319Y201466D01*
Y199819D01*
X62992D01*
X65665D01*
Y201466D01*
X65665Y201590D01*
X65453Y202290D01*
X65453Y202378D01*
Y207257D01*
X75205D01*
X79304Y203158D01*
Y199803D01*
X79411Y199266D01*
X79715Y198810D01*
X83652Y194873D01*
X84108Y194568D01*
X84646Y194461D01*
X92520D01*
X93057Y194568D01*
X93513Y194873D01*
X105011Y206371D01*
X109531D01*
Y205823D01*
X112205D01*
X114878D01*
Y206371D01*
X123327D01*
Y202362D01*
X128248D01*
Y203615D01*
X135335D01*
X135335Y202290D01*
X135122Y201590D01*
X135122Y201466D01*
Y199819D01*
X137795D01*
X140469D01*
Y201466D01*
X140469Y201590D01*
X140256Y202290D01*
X140256Y202378D01*
Y206371D01*
X162768D01*
X162841Y206364D01*
X162894Y206356D01*
Y205315D01*
X167815D01*
Y210236D01*
X166759D01*
Y213583D01*
X166652Y214120D01*
X166348Y214576D01*
X152494Y228430D01*
Y240559D01*
X162408Y250472D01*
X162442Y250452D01*
X163393Y250197D01*
X164378D01*
X165330Y250452D01*
X166182Y250944D01*
X166879Y251641D01*
X167371Y252493D01*
X167626Y253445D01*
Y254429D01*
X167371Y255381D01*
X166879Y256234D01*
X166446Y256666D01*
X166772Y257453D01*
X170999D01*
X171325Y256666D01*
X170893Y256234D01*
X170401Y255381D01*
X170146Y254429D01*
Y253445D01*
X170401Y252493D01*
X170893Y251641D01*
X171589Y250944D01*
X172442Y250452D01*
X173393Y250197D01*
X174378D01*
X175329Y250452D01*
X176182Y250944D01*
X176879Y251641D01*
X177371Y252493D01*
X177626Y253445D01*
Y254429D01*
X177371Y255381D01*
X176879Y256234D01*
X176446Y256666D01*
X176772Y257453D01*
X180999D01*
X181325Y256666D01*
D02*
G37*
G36*
X161325D02*
X160893Y256234D01*
X160401Y255381D01*
X160146Y254429D01*
Y253445D01*
X160401Y252493D01*
X160421Y252459D01*
X150096Y242134D01*
X149791Y241678D01*
X149685Y241141D01*
Y227848D01*
X149791Y227310D01*
X150096Y226854D01*
X163949Y213001D01*
Y210236D01*
X162894D01*
Y209196D01*
X162841Y209187D01*
X162768Y209180D01*
X104429D01*
X103892Y209074D01*
X103436Y208769D01*
X94936Y200270D01*
X94209Y200571D01*
Y200674D01*
X92535D01*
Y199001D01*
X92638D01*
X92940Y198273D01*
X91938Y197271D01*
X85228D01*
X82114Y200385D01*
Y203740D01*
X82007Y204278D01*
X81702Y204734D01*
X76781Y209655D01*
X76325Y209959D01*
X75787Y210066D01*
X30512D01*
X29974Y209959D01*
X29518Y209655D01*
X25467Y205604D01*
X24740Y205905D01*
Y207792D01*
X54161Y237213D01*
X75204D01*
X90131Y222287D01*
Y210237D01*
X89075D01*
Y205316D01*
X93996D01*
Y210237D01*
X92940D01*
Y222869D01*
X92833Y223407D01*
X92529Y223863D01*
X79906Y236486D01*
X80207Y237213D01*
X128567D01*
X129105Y237320D01*
X129560Y237625D01*
X142408Y250472D01*
X142442Y250452D01*
X143393Y250197D01*
X144378D01*
X145329Y250452D01*
X146182Y250944D01*
X146879Y251641D01*
X147371Y252493D01*
X147626Y253445D01*
Y254429D01*
X147371Y255381D01*
X146879Y256234D01*
X146446Y256666D01*
X146773Y257453D01*
X150999D01*
X151325Y256666D01*
X150893Y256234D01*
X150401Y255381D01*
X150146Y254429D01*
Y253445D01*
X150401Y252493D01*
X150893Y251641D01*
X151589Y250944D01*
X152442Y250452D01*
X153393Y250197D01*
X154378D01*
X155330Y250452D01*
X156182Y250944D01*
X156879Y251641D01*
X157371Y252493D01*
X157626Y253445D01*
Y254429D01*
X157371Y255381D01*
X156879Y256234D01*
X156446Y256666D01*
X156772Y257453D01*
X160999D01*
X161325Y256666D01*
D02*
G37*
G36*
X141325D02*
X140893Y256234D01*
X140401Y255381D01*
X140146Y254429D01*
Y253445D01*
X140401Y252493D01*
X140421Y252459D01*
X127985Y240023D01*
X53579D01*
X53041Y239916D01*
X52584Y240558D01*
X69480Y257453D01*
X140999D01*
X141325Y256666D01*
D02*
G37*
G36*
X191325D02*
X190893Y256234D01*
X190401Y255381D01*
X190146Y254429D01*
Y253445D01*
X190401Y252493D01*
X190893Y251641D01*
X191589Y250944D01*
X192442Y250452D01*
X193393Y250197D01*
X194378D01*
X195329Y250452D01*
X196182Y250944D01*
X196879Y251641D01*
X196890Y251659D01*
X197720Y251522D01*
X197745Y251394D01*
X198050Y250938D01*
X213761Y235227D01*
X214216Y234923D01*
X214754Y234816D01*
X263672D01*
X286709Y211778D01*
X286408Y211051D01*
X249114D01*
X248576Y210944D01*
X248121Y210639D01*
X244542Y207061D01*
X243815Y207362D01*
Y210450D01*
X242142D01*
Y207776D01*
X240142D01*
Y210450D01*
X238469D01*
Y207362D01*
X237741Y207061D01*
X234735Y210067D01*
Y225686D01*
X234628Y226224D01*
X234324Y226679D01*
X233632Y227371D01*
X233176Y227676D01*
X232639Y227783D01*
X212027D01*
X187351Y252459D01*
X187371Y252493D01*
X187626Y253445D01*
Y254429D01*
X187371Y255381D01*
X186879Y256234D01*
X186446Y256666D01*
X186773Y257453D01*
X190999D01*
X191325Y256666D01*
D02*
G37*
G36*
X163705Y206594D02*
X163693Y206707D01*
X163657Y206807D01*
X163598Y206896D01*
X163514Y206972D01*
X163407Y207037D01*
X163276Y207090D01*
X163120Y207132D01*
X162942Y207161D01*
X162739Y207179D01*
X162512Y207185D01*
Y208366D01*
X162739Y208372D01*
X162942Y208390D01*
X163120Y208419D01*
X163276Y208461D01*
X163407Y208514D01*
X163514Y208579D01*
X163598Y208656D01*
X163657Y208744D01*
X163693Y208844D01*
X163705Y208957D01*
Y206594D01*
D02*
G37*
G36*
X60532Y206424D02*
X52460D01*
Y207257D01*
X60532D01*
Y206424D01*
D02*
G37*
G36*
X262880Y197059D02*
X262779Y197023D01*
X262691Y196964D01*
X262614Y196880D01*
X262549Y196773D01*
X262496Y196642D01*
X262455Y196487D01*
X262425Y196308D01*
X262407Y196105D01*
X262402Y195878D01*
X261221D01*
X261215Y196105D01*
X261197Y196308D01*
X261167Y196487D01*
X261126Y196642D01*
X261073Y196773D01*
X261008Y196880D01*
X260931Y196964D01*
X260842Y197023D01*
X260742Y197059D01*
X260630Y197071D01*
X262992D01*
X262880Y197059D01*
D02*
G37*
G36*
X202309D02*
X202209Y197023D01*
X202120Y196964D01*
X202044Y196880D01*
X201978Y196773D01*
X201925Y196642D01*
X201884Y196487D01*
X201854Y196308D01*
X201837Y196105D01*
X201831Y195878D01*
X200650D01*
X200644Y196105D01*
X200626Y196308D01*
X200597Y196487D01*
X200555Y196642D01*
X200502Y196773D01*
X200437Y196880D01*
X200360Y196964D01*
X200272Y197023D01*
X200171Y197059D01*
X200059Y197071D01*
X202421D01*
X202309Y197059D01*
D02*
G37*
G36*
X189057D02*
X188957Y197023D01*
X188868Y196964D01*
X188792Y196880D01*
X188726Y196773D01*
X188673Y196642D01*
X188632Y196487D01*
X188602Y196308D01*
X188585Y196105D01*
X188579Y195878D01*
X187398D01*
X187392Y196105D01*
X187374Y196308D01*
X187345Y196487D01*
X187303Y196642D01*
X187250Y196773D01*
X187185Y196880D01*
X187108Y196964D01*
X187020Y197023D01*
X186919Y197059D01*
X186807Y197071D01*
X189169D01*
X189057Y197059D01*
D02*
G37*
G36*
X126856D02*
X126756Y197023D01*
X126667Y196964D01*
X126590Y196880D01*
X126525Y196773D01*
X126472Y196642D01*
X126431Y196487D01*
X126401Y196308D01*
X126384Y196105D01*
X126378Y195878D01*
X125197D01*
X125191Y196105D01*
X125173Y196308D01*
X125144Y196487D01*
X125102Y196642D01*
X125049Y196773D01*
X124984Y196880D01*
X124907Y196964D01*
X124819Y197023D01*
X124718Y197059D01*
X124606Y197071D01*
X126968D01*
X126856Y197059D01*
D02*
G37*
G36*
X113274D02*
X113173Y197023D01*
X113085Y196964D01*
X113008Y196880D01*
X112943Y196773D01*
X112890Y196642D01*
X112848Y196487D01*
X112819Y196308D01*
X112801Y196105D01*
X112795Y195878D01*
X111614D01*
X111608Y196105D01*
X111591Y196308D01*
X111561Y196487D01*
X111520Y196642D01*
X111467Y196773D01*
X111402Y196880D01*
X111325Y196964D01*
X111236Y197023D01*
X111136Y197059D01*
X111024Y197071D01*
X113386D01*
X113274Y197059D01*
D02*
G37*
G36*
X51069D02*
X50968Y197023D01*
X50880Y196964D01*
X50803Y196880D01*
X50738Y196773D01*
X50685Y196642D01*
X50643Y196487D01*
X50614Y196308D01*
X50596Y196105D01*
X50590Y195878D01*
X49409D01*
X49403Y196105D01*
X49386Y196308D01*
X49356Y196487D01*
X49315Y196642D01*
X49262Y196773D01*
X49197Y196880D01*
X49120Y196964D01*
X49031Y197023D01*
X48931Y197059D01*
X48819Y197071D01*
X51181D01*
X51069Y197059D01*
D02*
G37*
G36*
X38471D02*
X38370Y197023D01*
X38282Y196964D01*
X38205Y196880D01*
X38140Y196773D01*
X38087Y196642D01*
X38045Y196487D01*
X38016Y196308D01*
X37998Y196105D01*
X37992Y195878D01*
X36811D01*
X36805Y196105D01*
X36787Y196308D01*
X36758Y196487D01*
X36716Y196642D01*
X36663Y196773D01*
X36598Y196880D01*
X36522Y196964D01*
X36433Y197023D01*
X36333Y197059D01*
X36220Y197071D01*
X38583D01*
X38471Y197059D01*
D02*
G37*
G36*
X212203Y243633D02*
X212658Y243329D01*
X213196Y243222D01*
X293605D01*
X306187Y230640D01*
Y208943D01*
X306294Y208405D01*
X306598Y207949D01*
X312401Y202147D01*
Y199213D01*
X313456D01*
Y195365D01*
X297646Y179555D01*
X283948D01*
X283647Y180282D01*
X293726Y190361D01*
X294030Y190817D01*
X294137Y191354D01*
Y207742D01*
X294030Y208280D01*
X293726Y208736D01*
X265248Y237214D01*
X264792Y237519D01*
X264254Y237625D01*
X215336D01*
X203552Y249410D01*
X203878Y250197D01*
X204378D01*
X205329Y250452D01*
X205364Y250472D01*
X212203Y243633D01*
D02*
G37*
G36*
X326167Y171220D02*
X326659Y170367D01*
X327060Y169965D01*
X326734Y169178D01*
X306325D01*
X305999Y169965D01*
X307292Y171258D01*
X326156D01*
X326167Y171220D01*
D02*
G37*
G36*
X20356Y212152D02*
X20249Y211614D01*
Y190212D01*
X20356Y189674D01*
X20660Y189219D01*
X22792Y187087D01*
X22466Y186299D01*
X15945D01*
Y178819D01*
X23425D01*
Y185340D01*
X24213Y185666D01*
X40187Y169692D01*
X39886Y168964D01*
X22436D01*
X22423Y168982D01*
X22167Y169751D01*
X22678Y170263D01*
X23170Y171115D01*
X23425Y172067D01*
Y173052D01*
X23170Y174003D01*
X22678Y174856D01*
X21982Y175552D01*
X21129Y176044D01*
X20177Y176299D01*
X19193D01*
X18241Y176044D01*
X17389Y175552D01*
X16692Y174856D01*
X16200Y174003D01*
X15945Y173052D01*
Y172067D01*
X16200Y171115D01*
X16692Y170263D01*
X17203Y169751D01*
X16948Y168982D01*
X16934Y168964D01*
X15949D01*
X15412Y168857D01*
X15354Y168818D01*
X14566Y169239D01*
Y207461D01*
X19714Y212609D01*
X20356Y212152D01*
D02*
G37*
G36*
X254232Y160075D02*
X254288Y159288D01*
X254309Y159197D01*
X254333Y159128D01*
X254360Y159082D01*
X254391Y159058D01*
X252889D01*
X252920Y159082D01*
X252947Y159128D01*
X252971Y159197D01*
X252992Y159288D01*
X253010Y159401D01*
X253035Y159694D01*
X253048Y160075D01*
X253049Y160299D01*
X254231D01*
X254232Y160075D01*
D02*
G37*
G36*
X56857Y153022D02*
X57312Y152718D01*
X57850Y152611D01*
X67843D01*
X74794Y145660D01*
X75250Y145355D01*
X75787Y145249D01*
X88583D01*
X89120Y145355D01*
X89576Y145660D01*
X92535Y148619D01*
X92840Y149075D01*
X92922Y149491D01*
X92957Y149622D01*
X93495Y150118D01*
X94706D01*
X95255Y149429D01*
Y149403D01*
X95362Y148866D01*
X95666Y148410D01*
X100061Y144015D01*
X100051Y143860D01*
X99804Y143228D01*
X41161D01*
X30836Y153552D01*
X30380Y153857D01*
X29842Y153964D01*
X23181D01*
X23170Y154003D01*
X22678Y154856D01*
X21982Y155552D01*
X21129Y156044D01*
X20177Y156299D01*
X19193D01*
X18241Y156044D01*
X17389Y155552D01*
X17035Y155198D01*
X16248Y155524D01*
Y159594D01*
X17035Y159920D01*
X17389Y159566D01*
X18241Y159074D01*
X19193Y158819D01*
X20177D01*
X21129Y159074D01*
X21982Y159566D01*
X22678Y160263D01*
X23170Y161115D01*
X23425Y162067D01*
Y163051D01*
X23170Y164003D01*
X22678Y164856D01*
X22167Y165367D01*
X22423Y166136D01*
X22436Y166154D01*
X43725D01*
X56857Y153022D01*
D02*
G37*
G36*
X181580Y159937D02*
Y158176D01*
X181573Y158104D01*
X180819Y158051D01*
X180150Y158051D01*
X179396Y158104D01*
X179390Y158176D01*
Y158630D01*
X179283Y159167D01*
X178978Y159623D01*
X175439Y163162D01*
X175765Y163949D01*
X177568D01*
X181580Y159937D01*
D02*
G37*
G36*
X175789Y158839D02*
X175785Y158596D01*
X175392Y158193D01*
X175031Y158051D01*
X171062D01*
X170362Y158264D01*
X170120Y158264D01*
X168788D01*
Y153819D01*
Y149374D01*
X170120D01*
X170362Y149374D01*
X170799Y149507D01*
X170811Y149507D01*
X170820Y149507D01*
X171296Y149233D01*
X171580Y148805D01*
Y147882D01*
X171687Y147344D01*
X171991Y146888D01*
X173743Y145136D01*
X173442Y144409D01*
X170979D01*
X169422Y145966D01*
X168966Y146270D01*
X168429Y146377D01*
X136575D01*
X136248Y147165D01*
X150080Y160997D01*
X173631D01*
X175789Y158839D01*
D02*
G37*
G36*
X97814Y159648D02*
Y158602D01*
X97265Y157913D01*
X96055D01*
X95506Y158602D01*
Y160525D01*
X95427Y160922D01*
X95816Y161262D01*
X96076Y161386D01*
X97814Y159648D01*
D02*
G37*
G36*
X42314Y175188D02*
X42769Y174883D01*
X43307Y174776D01*
X77863D01*
X92696Y159943D01*
Y158602D01*
X92147Y157913D01*
X90936D01*
X90387Y158602D01*
Y160328D01*
X90281Y160866D01*
X89976Y161322D01*
X83966Y167332D01*
X83510Y167637D01*
X82973Y167744D01*
X48487D01*
X25171Y191059D01*
X25197Y191191D01*
X26051Y191450D01*
X42314Y175188D01*
D02*
G37*
G36*
X183581Y158206D02*
X183599Y158003D01*
X183628Y157824D01*
X183670Y157669D01*
X183723Y157538D01*
X183788Y157431D01*
X183864Y157347D01*
X183953Y157288D01*
X184054Y157252D01*
X184166Y157240D01*
X181804D01*
X181916Y157252D01*
X182016Y157288D01*
X182105Y157347D01*
X182181Y157431D01*
X182246Y157538D01*
X182299Y157669D01*
X182341Y157824D01*
X182370Y158003D01*
X182388Y158206D01*
X182394Y158433D01*
X183575D01*
X183581Y158206D01*
D02*
G37*
G36*
X178581D02*
X178599Y158003D01*
X178628Y157824D01*
X178670Y157669D01*
X178723Y157538D01*
X178788Y157431D01*
X178865Y157347D01*
X178953Y157288D01*
X179053Y157252D01*
X179166Y157240D01*
X176804D01*
X176916Y157252D01*
X177016Y157288D01*
X177105Y157347D01*
X177181Y157431D01*
X177246Y157538D01*
X177299Y157669D01*
X177341Y157824D01*
X177370Y158003D01*
X177388Y158206D01*
X177394Y158433D01*
X178575D01*
X178581Y158206D01*
D02*
G37*
G36*
X99811Y158067D02*
X99867Y157280D01*
X99888Y157189D01*
X99912Y157121D01*
X99939Y157074D01*
X99969Y157050D01*
X98468D01*
X98499Y157074D01*
X98526Y157121D01*
X98550Y157189D01*
X98571Y157280D01*
X98588Y157393D01*
X98614Y157686D01*
X98627Y158067D01*
X98628Y158291D01*
X99809D01*
X99811Y158067D01*
D02*
G37*
G36*
X94693D02*
X94749Y157280D01*
X94770Y157189D01*
X94794Y157121D01*
X94821Y157074D01*
X94851Y157050D01*
X93350D01*
X93380Y157074D01*
X93408Y157121D01*
X93432Y157189D01*
X93453Y157280D01*
X93470Y157393D01*
X93496Y157686D01*
X93509Y158067D01*
X93510Y158291D01*
X94691D01*
X94693Y158067D01*
D02*
G37*
G36*
X89575D02*
X89631Y157280D01*
X89652Y157189D01*
X89675Y157121D01*
X89703Y157074D01*
X89733Y157050D01*
X88232D01*
X88262Y157074D01*
X88290Y157121D01*
X88314Y157189D01*
X88334Y157280D01*
X88352Y157393D01*
X88378Y157686D01*
X88390Y158067D01*
X88392Y158291D01*
X89573D01*
X89575Y158067D01*
D02*
G37*
G36*
X284768Y156201D02*
X284756Y156313D01*
X284720Y156413D01*
X284661Y156502D01*
X284577Y156579D01*
X284470Y156644D01*
X284339Y156697D01*
X284184Y156738D01*
X284004Y156768D01*
X283802Y156785D01*
X283575Y156791D01*
Y157972D01*
X283802Y157978D01*
X284004Y157996D01*
X284184Y158026D01*
X284339Y158067D01*
X284470Y158120D01*
X284577Y158185D01*
X284661Y158262D01*
X284720Y158350D01*
X284756Y158451D01*
X284768Y158563D01*
Y156201D01*
D02*
G37*
G36*
X276268Y158451D02*
X276303Y158350D01*
X276363Y158262D01*
X276446Y158185D01*
X276554Y158120D01*
X276685Y158067D01*
X276840Y158026D01*
X277019Y157996D01*
X277222Y157978D01*
X277449Y157972D01*
Y156791D01*
X277222Y156785D01*
X277019Y156768D01*
X276840Y156738D01*
X276685Y156697D01*
X276554Y156644D01*
X276446Y156579D01*
X276363Y156502D01*
X276303Y156413D01*
X276268Y156313D01*
X276255Y156201D01*
Y158563D01*
X276268Y158451D01*
D02*
G37*
G36*
X87578Y159747D02*
Y158602D01*
X87029Y157913D01*
X85818D01*
X85432Y157836D01*
X85105Y157618D01*
X84886Y157290D01*
X84810Y156904D01*
Y155435D01*
X84761Y155427D01*
X84688Y155421D01*
X58432D01*
X49646Y164206D01*
X49948Y164934D01*
X82390D01*
X87578Y159747D01*
D02*
G37*
G36*
X283904Y155971D02*
X283957Y155962D01*
Y154921D01*
X284172D01*
X284474Y154194D01*
X280307Y150027D01*
X265739D01*
X265438Y150754D01*
X270661Y155977D01*
X272146D01*
Y154921D01*
X277067D01*
Y155962D01*
X277119Y155971D01*
X277192Y155977D01*
X283832D01*
X283904Y155971D01*
D02*
G37*
G36*
X85625Y152835D02*
X85613Y152947D01*
X85577Y153047D01*
X85517Y153136D01*
X85434Y153213D01*
X85326Y153278D01*
X85195Y153331D01*
X85040Y153372D01*
X84861Y153402D01*
X84658Y153419D01*
X84432Y153425D01*
Y154606D01*
X84658Y154612D01*
X84861Y154630D01*
X85040Y154659D01*
X85195Y154701D01*
X85326Y154754D01*
X85434Y154819D01*
X85517Y154896D01*
X85577Y154984D01*
X85613Y155085D01*
X85625Y155197D01*
Y152835D01*
D02*
G37*
G36*
X241999Y159496D02*
X241867Y159298D01*
X241790Y158912D01*
Y153135D01*
X241860Y152783D01*
X241863Y152743D01*
X241423Y151996D01*
X235818D01*
X223412Y164401D01*
X223714Y165129D01*
X241999D01*
Y159496D01*
D02*
G37*
G36*
X233085Y150754D02*
X232784Y150027D01*
X228928D01*
X224143Y154812D01*
X223687Y155117D01*
X223150Y155224D01*
X205544D01*
Y158051D01*
X200819D01*
Y158051D01*
X200150D01*
Y158051D01*
X196858D01*
Y160422D01*
X199401Y162965D01*
X220875D01*
X233085Y150754D01*
D02*
G37*
G36*
X99939Y150958D02*
X99912Y150913D01*
X99888Y150847D01*
X99867Y150760D01*
X99849Y150652D01*
X99824Y150373D01*
X99811Y150010D01*
X99809Y149797D01*
X98628D01*
X98627Y150010D01*
X98571Y150760D01*
X98550Y150847D01*
X98526Y150913D01*
X98499Y150958D01*
X98468Y150982D01*
X99969D01*
X99939Y150958D01*
D02*
G37*
G36*
X97380Y150957D02*
X97353Y150911D01*
X97329Y150842D01*
X97308Y150751D01*
X97290Y150638D01*
X97265Y150346D01*
X97252Y149964D01*
X97250Y149741D01*
X96069D01*
X96068Y149964D01*
X96012Y150751D01*
X95991Y150842D01*
X95967Y150911D01*
X95940Y150957D01*
X95909Y150982D01*
X97410D01*
X97380Y150957D01*
D02*
G37*
G36*
X92262D02*
X92235Y150911D01*
X92211Y150842D01*
X92190Y150751D01*
X92172Y150638D01*
X92147Y150346D01*
X92134Y149964D01*
X92132Y149741D01*
X90951D01*
X90949Y149964D01*
X90894Y150751D01*
X90873Y150842D01*
X90849Y150911D01*
X90821Y150957D01*
X90791Y150982D01*
X92292D01*
X92262Y150957D01*
D02*
G37*
G36*
X226196Y148786D02*
X225894Y148058D01*
X200385D01*
X199644Y148799D01*
X199718Y148978D01*
X200150Y149587D01*
X200819D01*
Y149587D01*
X205544D01*
Y152414D01*
X222568D01*
X226196Y148786D01*
D02*
G37*
G36*
X186694Y149069D02*
X186999Y148613D01*
X187983Y147629D01*
X188439Y147324D01*
X188976Y147217D01*
X194153D01*
X194691Y147324D01*
X195146Y147629D01*
X195812Y148294D01*
X196667Y148035D01*
X196687Y147934D01*
X196991Y147479D01*
X197652Y146818D01*
X197351Y146090D01*
X176763D01*
X174390Y148463D01*
Y149461D01*
X174396Y149534D01*
X175150Y149587D01*
X175819D01*
Y149587D01*
X180150D01*
Y149587D01*
X180819D01*
Y149587D01*
X185150D01*
Y149587D01*
X185819D01*
Y149587D01*
X186591D01*
X186694Y149069D01*
D02*
G37*
G36*
X174054Y150386D02*
X173953Y150350D01*
X173864Y150291D01*
X173788Y150207D01*
X173723Y150100D01*
X173670Y149969D01*
X173628Y149813D01*
X173599Y149634D01*
X173581Y149432D01*
X173575Y149205D01*
X172394D01*
X172388Y149432D01*
X172370Y149634D01*
X172341Y149813D01*
X172300Y149969D01*
X172246Y150100D01*
X172181Y150207D01*
X172105Y150291D01*
X172016Y150350D01*
X171916Y150386D01*
X171803Y150398D01*
X174166D01*
X174054Y150386D01*
D02*
G37*
G36*
X148272Y163162D02*
X134153Y149043D01*
X102404D01*
X102195Y149331D01*
X102278Y149680D01*
X102569Y150155D01*
X102769Y150195D01*
X103096Y150414D01*
X103315Y150741D01*
X103392Y151127D01*
Y156904D01*
X103315Y157290D01*
X103183Y157488D01*
Y160251D01*
X106881Y163949D01*
X147946D01*
X148272Y163162D01*
D02*
G37*
G36*
X287565Y152871D02*
X287843Y152034D01*
X284068Y148260D01*
X283679Y148312D01*
X283397Y149144D01*
X287180Y152927D01*
X287565Y152871D01*
D02*
G37*
G36*
X84761Y152604D02*
X84810Y152596D01*
Y151127D01*
X84886Y150741D01*
X85105Y150414D01*
X85432Y150195D01*
X85818Y150118D01*
X87029D01*
X87415Y150195D01*
X87703Y150388D01*
X87991Y150195D01*
X88377Y150118D01*
X88947D01*
X89273Y149331D01*
X88001Y148058D01*
X76369D01*
X72544Y151883D01*
X72846Y152611D01*
X84688D01*
X84761Y152604D01*
D02*
G37*
G36*
X38519Y141896D02*
X38217Y141169D01*
X32078D01*
X23888Y149359D01*
X23432Y149664D01*
X23232Y149703D01*
X23116Y149821D01*
X22858Y150395D01*
X22852Y150503D01*
X23349Y151154D01*
X29261D01*
X38519Y141896D01*
D02*
G37*
G36*
X249121Y140872D02*
X247529Y139279D01*
X247345Y139004D01*
X246665Y138818D01*
X246420Y138816D01*
X244364Y140872D01*
X244665Y141599D01*
X248819D01*
X249121Y140872D01*
D02*
G37*
G36*
X246524Y137168D02*
X246553Y136806D01*
X246570Y136713D01*
X246591Y136634D01*
X246616Y136570D01*
X246645Y136519D01*
X246677Y136482D01*
X246713Y136459D01*
X245212D01*
X245237Y136477D01*
X245259Y136511D01*
X245278Y136559D01*
X245295Y136622D01*
X245309Y136700D01*
X245321Y136793D01*
X245336Y137025D01*
X245341Y137317D01*
X246522D01*
X246524Y137168D01*
D02*
G37*
G36*
X224696Y140872D02*
X207277Y123452D01*
X196448D01*
X194389Y125511D01*
Y126561D01*
X194673Y126989D01*
X195149Y127262D01*
X195158Y127263D01*
X195170Y127263D01*
X195607Y127130D01*
X195849Y127130D01*
X196985D01*
Y131575D01*
Y136020D01*
X195849D01*
X195607Y136020D01*
X194907Y135807D01*
X190819D01*
Y135807D01*
X190150D01*
Y135807D01*
X185819D01*
Y135807D01*
X185263D01*
X184476Y136081D01*
Y136811D01*
X184369Y137349D01*
X184064Y137804D01*
X182096Y139773D01*
X181640Y140077D01*
X181102Y140184D01*
X177165D01*
X176628Y140077D01*
X176172Y139773D01*
X175067Y138668D01*
X174888Y138647D01*
X174114Y138829D01*
X173978Y139032D01*
X172139Y140872D01*
X172440Y141599D01*
X201777D01*
Y136364D01*
X201299Y135886D01*
X200989Y135829D01*
X200362Y136020D01*
X200120Y136020D01*
X198985D01*
Y131575D01*
Y127130D01*
X200120D01*
X200362Y127130D01*
X201062Y127342D01*
X201150D01*
X205544D01*
Y135807D01*
X204586D01*
Y141599D01*
X224395D01*
X224696Y140872D01*
D02*
G37*
G36*
X181300Y136594D02*
X181230Y136424D01*
X180819Y135807D01*
X180150D01*
Y135807D01*
X177032D01*
X176967Y136594D01*
X177747Y137375D01*
X180520D01*
X181300Y136594D01*
D02*
G37*
G36*
X171580Y137457D02*
Y135872D01*
X170819Y135807D01*
X170150D01*
Y135807D01*
X165426D01*
Y127389D01*
X147236D01*
X134994Y139630D01*
X135137Y140187D01*
X135296Y140418D01*
X168619D01*
X171580Y137457D01*
D02*
G37*
G36*
X92696Y136617D02*
Y136004D01*
X92147Y135315D01*
X90936D01*
X90387Y136004D01*
Y136411D01*
X90281Y136949D01*
X89976Y137405D01*
X89749Y137631D01*
X90051Y138359D01*
X90953D01*
X92696Y136617D01*
D02*
G37*
G36*
X94693Y135469D02*
X94749Y134682D01*
X94770Y134591D01*
X94794Y134522D01*
X94821Y134476D01*
X94851Y134451D01*
X93350D01*
X93380Y134476D01*
X93408Y134522D01*
X93432Y134591D01*
X93453Y134682D01*
X93470Y134795D01*
X93496Y135087D01*
X93509Y135469D01*
X93510Y135693D01*
X94691D01*
X94693Y135469D01*
D02*
G37*
G36*
X89575D02*
X89631Y134682D01*
X89652Y134591D01*
X89675Y134522D01*
X89703Y134476D01*
X89733Y134451D01*
X88232D01*
X88262Y134476D01*
X88290Y134522D01*
X88314Y134591D01*
X88334Y134682D01*
X88352Y134795D01*
X88378Y135087D01*
X88390Y135469D01*
X88392Y135693D01*
X89573D01*
X89575Y135469D01*
D02*
G37*
G36*
X85625Y130236D02*
X85613Y130348D01*
X85577Y130449D01*
X85517Y130537D01*
X85434Y130614D01*
X85326Y130679D01*
X85195Y130732D01*
X85040Y130774D01*
X84861Y130803D01*
X84658Y130821D01*
X84432Y130827D01*
Y132008D01*
X84658Y132014D01*
X84861Y132032D01*
X85040Y132061D01*
X85195Y132102D01*
X85326Y132156D01*
X85434Y132220D01*
X85517Y132297D01*
X85577Y132386D01*
X85613Y132486D01*
X85625Y132598D01*
Y130236D01*
D02*
G37*
G36*
X256919Y130367D02*
X256892Y130320D01*
X256868Y130252D01*
X256847Y130161D01*
X256830Y130048D01*
X256804Y129755D01*
X256791Y129374D01*
X256790Y129150D01*
X255609D01*
X255607Y129374D01*
X255551Y130161D01*
X255530Y130252D01*
X255506Y130320D01*
X255479Y130367D01*
X255449Y130391D01*
X256950D01*
X256919Y130367D01*
D02*
G37*
G36*
X246683D02*
X246656Y130320D01*
X246632Y130252D01*
X246611Y130161D01*
X246593Y130048D01*
X246568Y129755D01*
X246555Y129374D01*
X246553Y129150D01*
X245372D01*
X245371Y129374D01*
X245315Y130161D01*
X245294Y130252D01*
X245270Y130320D01*
X245243Y130367D01*
X245212Y130391D01*
X246713D01*
X246683Y130367D01*
D02*
G37*
G36*
X100100Y140187D02*
X100242Y139630D01*
X98225Y137614D01*
X97921Y137158D01*
X97814Y136620D01*
Y136225D01*
X97660Y136030D01*
Y134583D01*
X97605Y134306D01*
Y131417D01*
Y128528D01*
X97660Y128252D01*
Y127382D01*
X97734Y127397D01*
X98083Y127266D01*
X98282Y126351D01*
X83652Y111722D01*
X71841Y99911D01*
X71537Y99455D01*
X71430Y98917D01*
Y95204D01*
X71423Y95131D01*
X71415Y95079D01*
X70374D01*
Y90158D01*
X75295D01*
Y95079D01*
X74255D01*
X74246Y95131D01*
X74240Y95204D01*
Y98335D01*
X82513Y106609D01*
X83241Y106308D01*
Y95204D01*
X83234Y95131D01*
X83226Y95079D01*
X82185D01*
Y90158D01*
X87106D01*
Y95079D01*
X86066D01*
X86057Y95131D01*
X86051Y95204D01*
Y110146D01*
X101624Y125720D01*
X104322Y123022D01*
X104777Y122718D01*
X105315Y122611D01*
X144197D01*
X144335Y122505D01*
X144763Y121823D01*
X144717Y121595D01*
Y106486D01*
Y95597D01*
X144711Y95525D01*
X144702Y95472D01*
X143504D01*
Y90551D01*
X148425D01*
Y95472D01*
X147542D01*
X147533Y95525D01*
X147527Y95597D01*
Y102065D01*
X148255Y102366D01*
X157136Y93485D01*
Y90551D01*
X162057D01*
Y95472D01*
X159123D01*
X147527Y107068D01*
Y120189D01*
X177697D01*
X178235Y120297D01*
X178690Y120601D01*
X183978Y125889D01*
X184283Y126345D01*
X184389Y126882D01*
Y127217D01*
X184396Y127290D01*
X185150Y127342D01*
X185819Y127342D01*
X186573Y127290D01*
X186580Y127217D01*
Y125008D01*
X186587Y124970D01*
Y95302D01*
X186581Y95229D01*
X186572Y95176D01*
X185531D01*
Y90255D01*
X190453D01*
Y95176D01*
X189412D01*
X189403Y95229D01*
X189397Y95302D01*
Y120579D01*
X190124Y120881D01*
X193888Y117117D01*
X199186Y111820D01*
Y95302D01*
X199179Y95229D01*
X199171Y95176D01*
X198130D01*
Y90255D01*
X203051D01*
Y95176D01*
X202011D01*
X202002Y95229D01*
X201996Y95302D01*
Y112401D01*
X201889Y112939D01*
X201584Y113395D01*
X199001Y115978D01*
X199302Y116705D01*
X233268D01*
X233805Y116812D01*
X234261Y117117D01*
X243771Y126626D01*
X244558Y126300D01*
Y121458D01*
X244665Y120921D01*
X244970Y120465D01*
X260406Y105028D01*
Y95597D01*
X260400Y95525D01*
X260391Y95472D01*
X259350D01*
Y90551D01*
X264272D01*
Y95472D01*
X263231D01*
X263222Y95525D01*
X263216Y95597D01*
Y101189D01*
X263943Y101491D01*
X271949Y93485D01*
Y90551D01*
X276870D01*
Y95472D01*
X273936D01*
X262952Y106456D01*
X247368Y122040D01*
Y128839D01*
X247917Y129528D01*
X249127D01*
X249513Y129605D01*
X249801Y129797D01*
X250090Y129605D01*
X250476Y129528D01*
X251686D01*
X252072Y129605D01*
X252361Y129797D01*
X252649Y129605D01*
X253035Y129528D01*
X254245D01*
X254794Y128839D01*
Y128643D01*
X254901Y128106D01*
X255206Y127650D01*
X286837Y96019D01*
X286536Y95291D01*
X283744D01*
Y93520D01*
X286417D01*
Y91520D01*
X283744D01*
Y89873D01*
X283744Y89748D01*
X283957Y89049D01*
X283957Y88961D01*
Y88117D01*
X276870D01*
Y89370D01*
X271949D01*
Y84448D01*
X276870D01*
Y85307D01*
X283957D01*
Y84055D01*
X288878D01*
X288878Y89049D01*
X289090Y89748D01*
X289090Y89873D01*
Y92736D01*
X289818Y93038D01*
X292886Y89969D01*
Y86212D01*
X287705Y81031D01*
X239791D01*
X239718Y81037D01*
X239665Y81046D01*
Y82087D01*
X234744D01*
Y79152D01*
X220987Y65395D01*
X217534D01*
X216996Y65288D01*
X216540Y64984D01*
X201190Y49633D01*
X198492D01*
X197954Y49526D01*
X197499Y49222D01*
X185364Y37087D01*
X185329Y37107D01*
X184378Y37362D01*
X183393D01*
X182442Y37107D01*
X181589Y36615D01*
X180893Y35919D01*
X180401Y35066D01*
X180146Y34114D01*
Y33130D01*
X180401Y32178D01*
X180893Y31326D01*
X181247Y30972D01*
X180921Y30185D01*
X176851D01*
X176525Y30972D01*
X176879Y31326D01*
X177371Y32178D01*
X177626Y33130D01*
Y34114D01*
X177371Y35066D01*
X176879Y35919D01*
X176182Y36615D01*
X175329Y37107D01*
X174378Y37362D01*
X173393D01*
X172442Y37107D01*
X171589Y36615D01*
X170893Y35919D01*
X170401Y35066D01*
X170146Y34114D01*
Y33130D01*
X170401Y32178D01*
X170893Y31326D01*
X171247Y30972D01*
X170921Y30185D01*
X166851D01*
X166525Y30972D01*
X166879Y31326D01*
X167371Y32178D01*
X167626Y33130D01*
Y34114D01*
X167371Y35066D01*
X166879Y35919D01*
X166182Y36615D01*
X165330Y37107D01*
X164378Y37362D01*
X163393D01*
X162442Y37107D01*
X162408Y37087D01*
X150273Y49222D01*
X149817Y49526D01*
X149279Y49633D01*
X127550D01*
X116562Y60621D01*
Y77040D01*
X116569Y77113D01*
X116577Y77165D01*
X117618D01*
Y82087D01*
X112697D01*
Y81031D01*
X69578D01*
X66759Y83850D01*
Y107095D01*
X78338Y118674D01*
X86614D01*
X87152Y118781D01*
X87608Y119085D01*
X92535Y124013D01*
X92840Y124469D01*
X92947Y125006D01*
Y126831D01*
X93495Y127520D01*
X94706D01*
X95092Y127597D01*
X95189Y127662D01*
X95586Y127397D01*
X95660Y127382D01*
Y128252D01*
X95715Y128528D01*
Y131417D01*
Y134306D01*
X95660Y134583D01*
Y136030D01*
X95506Y136225D01*
Y137198D01*
X95399Y137736D01*
X95094Y138192D01*
X93596Y139690D01*
X93897Y140418D01*
X99941D01*
X100100Y140187D01*
D02*
G37*
G36*
X92262Y128359D02*
X92235Y128312D01*
X92211Y128244D01*
X92190Y128153D01*
X92172Y128040D01*
X92147Y127747D01*
X92134Y127366D01*
X92132Y127142D01*
X90951D01*
X90949Y127366D01*
X90894Y128153D01*
X90873Y128244D01*
X90849Y128312D01*
X90821Y128359D01*
X90791Y128383D01*
X92292D01*
X92262Y128359D01*
D02*
G37*
G36*
X89703D02*
X89675Y128312D01*
X89652Y128244D01*
X89631Y128153D01*
X89613Y128040D01*
X89587Y127747D01*
X89575Y127366D01*
X89573Y127142D01*
X88392D01*
X88390Y127366D01*
X88334Y128153D01*
X88314Y128244D01*
X88290Y128312D01*
X88262Y128359D01*
X88232Y128383D01*
X89733D01*
X89703Y128359D01*
D02*
G37*
G36*
X194053Y128142D02*
X193953Y128106D01*
X193865Y128047D01*
X193788Y127963D01*
X193723Y127856D01*
X193670Y127724D01*
X193628Y127569D01*
X193599Y127390D01*
X193581Y127188D01*
X193575Y126961D01*
X192394D01*
X192388Y127188D01*
X192370Y127390D01*
X192341Y127569D01*
X192299Y127724D01*
X192246Y127856D01*
X192181Y127963D01*
X192105Y128047D01*
X192016Y128106D01*
X191916Y128142D01*
X191804Y128154D01*
X194166D01*
X194053Y128142D01*
D02*
G37*
G36*
X189053D02*
X188953Y128106D01*
X188865Y128047D01*
X188788Y127963D01*
X188723Y127856D01*
X188670Y127724D01*
X188628Y127569D01*
X188599Y127390D01*
X188581Y127188D01*
X188575Y126961D01*
X187394D01*
X187388Y127188D01*
X187370Y127390D01*
X187341Y127569D01*
X187300Y127724D01*
X187246Y127856D01*
X187181Y127963D01*
X187105Y128047D01*
X187016Y128106D01*
X186916Y128142D01*
X186803Y128154D01*
X189166D01*
X189053Y128142D01*
D02*
G37*
G36*
X184054D02*
X183953Y128106D01*
X183864Y128047D01*
X183788Y127963D01*
X183723Y127856D01*
X183670Y127724D01*
X183628Y127569D01*
X183599Y127390D01*
X183581Y127188D01*
X183575Y126961D01*
X182394D01*
X182388Y127188D01*
X182370Y127390D01*
X182341Y127569D01*
X182299Y127724D01*
X182246Y127856D01*
X182181Y127963D01*
X182105Y128047D01*
X182016Y128106D01*
X181916Y128142D01*
X181804Y128154D01*
X184166D01*
X184054Y128142D01*
D02*
G37*
G36*
X144503Y126148D02*
X144201Y125421D01*
X105897D01*
X103259Y128059D01*
X103315Y128143D01*
X103392Y128528D01*
Y134306D01*
X103315Y134692D01*
X103096Y135019D01*
X102769Y135238D01*
X102383Y135315D01*
X101173D01*
X100624Y136004D01*
Y136038D01*
X101960Y137375D01*
X133276D01*
X144503Y126148D01*
D02*
G37*
G36*
X191573Y127290D02*
X191580Y127217D01*
Y124929D01*
X191687Y124391D01*
X191045Y123934D01*
X189390Y125590D01*
Y127217D01*
X189396Y127290D01*
X190150Y127342D01*
X190819Y127342D01*
X191573Y127290D01*
D02*
G37*
G36*
X243212Y138050D02*
X242910Y137322D01*
X242798D01*
X242413Y137246D01*
X242085Y137027D01*
X241867Y136700D01*
X241790Y136314D01*
Y130536D01*
X241867Y130150D01*
X241999Y129953D01*
Y128828D01*
X232686Y119515D01*
X195464D01*
X194871Y120108D01*
X195328Y120749D01*
X195866Y120642D01*
X207859D01*
X208396Y120749D01*
X208852Y121054D01*
X227338Y139540D01*
X241722D01*
X243212Y138050D01*
D02*
G37*
G36*
X84761Y130006D02*
X84810Y129998D01*
Y128528D01*
X84886Y128143D01*
X85105Y127815D01*
X85432Y127597D01*
X85818Y127520D01*
X87018D01*
X87041Y127496D01*
X87403Y126792D01*
X85048Y124436D01*
X78331D01*
X77794Y124329D01*
X77338Y124025D01*
X62429Y109116D01*
X61641Y109442D01*
Y112804D01*
X78850Y130012D01*
X84688D01*
X84761Y130006D01*
D02*
G37*
G36*
X282060Y116544D02*
Y105799D01*
X281332Y105497D01*
X258062Y128768D01*
X258070Y128838D01*
X258415Y129528D01*
X259364D01*
X259749Y129605D01*
X260077Y129823D01*
X260295Y130150D01*
X260372Y130536D01*
Y136314D01*
X260295Y136700D01*
X260424Y137066D01*
X261315Y137289D01*
X282060Y116544D01*
D02*
G37*
G36*
X292886Y122450D02*
Y98009D01*
X292099Y97683D01*
X284870Y104913D01*
Y117126D01*
X284763Y117664D01*
X284458Y118119D01*
X263387Y139190D01*
X263688Y139918D01*
X275418D01*
X292886Y122450D01*
D02*
G37*
G36*
X262407Y95627D02*
X262425Y95424D01*
X262455Y95245D01*
X262496Y95090D01*
X262549Y94959D01*
X262614Y94851D01*
X262691Y94768D01*
X262779Y94708D01*
X262880Y94673D01*
X262992Y94661D01*
X260630D01*
X260742Y94673D01*
X260842Y94708D01*
X260931Y94768D01*
X261008Y94851D01*
X261073Y94959D01*
X261126Y95090D01*
X261167Y95245D01*
X261197Y95424D01*
X261215Y95627D01*
X261221Y95854D01*
X262402D01*
X262407Y95627D01*
D02*
G37*
G36*
X146719D02*
X146736Y95424D01*
X146766Y95245D01*
X146807Y95090D01*
X146860Y94959D01*
X146925Y94851D01*
X147002Y94768D01*
X147091Y94708D01*
X147191Y94673D01*
X147303Y94661D01*
X144941D01*
X145053Y94673D01*
X145153Y94708D01*
X145242Y94768D01*
X145319Y94851D01*
X145384Y94959D01*
X145437Y95090D01*
X145478Y95245D01*
X145508Y95424D01*
X145526Y95627D01*
X145531Y95854D01*
X146713D01*
X146719Y95627D01*
D02*
G37*
G36*
X201187Y95331D02*
X201205Y95129D01*
X201234Y94950D01*
X201276Y94794D01*
X201329Y94663D01*
X201394Y94556D01*
X201471Y94472D01*
X201559Y94413D01*
X201660Y94377D01*
X201772Y94365D01*
X199410D01*
X199522Y94377D01*
X199622Y94413D01*
X199711Y94472D01*
X199788Y94556D01*
X199853Y94663D01*
X199906Y94794D01*
X199947Y94950D01*
X199977Y95129D01*
X199994Y95331D01*
X200000Y95558D01*
X201181D01*
X201187Y95331D01*
D02*
G37*
G36*
X188589D02*
X188606Y95129D01*
X188636Y94950D01*
X188677Y94794D01*
X188730Y94663D01*
X188795Y94556D01*
X188872Y94472D01*
X188961Y94413D01*
X189061Y94377D01*
X189173Y94365D01*
X186811D01*
X186923Y94377D01*
X187024Y94413D01*
X187112Y94472D01*
X187189Y94556D01*
X187254Y94663D01*
X187307Y94794D01*
X187348Y94950D01*
X187378Y95129D01*
X187396Y95331D01*
X187402Y95558D01*
X188583D01*
X188589Y95331D01*
D02*
G37*
G36*
X85242Y95234D02*
X85260Y95031D01*
X85289Y94852D01*
X85331Y94697D01*
X85384Y94566D01*
X85449Y94458D01*
X85526Y94375D01*
X85614Y94315D01*
X85715Y94279D01*
X85827Y94267D01*
X83465D01*
X83577Y94279D01*
X83677Y94315D01*
X83766Y94375D01*
X83842Y94458D01*
X83908Y94566D01*
X83961Y94697D01*
X84002Y94852D01*
X84031Y95031D01*
X84049Y95234D01*
X84055Y95460D01*
X85236D01*
X85242Y95234D01*
D02*
G37*
G36*
X73431D02*
X73449Y95031D01*
X73478Y94852D01*
X73520Y94697D01*
X73573Y94566D01*
X73638Y94458D01*
X73715Y94375D01*
X73803Y94315D01*
X73904Y94279D01*
X74016Y94267D01*
X71653D01*
X71766Y94279D01*
X71866Y94315D01*
X71955Y94375D01*
X72031Y94458D01*
X72097Y94566D01*
X72150Y94697D01*
X72191Y94852D01*
X72220Y95031D01*
X72238Y95234D01*
X72244Y95460D01*
X73425D01*
X73431Y95234D01*
D02*
G37*
G36*
X16212Y147362D02*
X17293Y146784D01*
X17723Y146654D01*
X17821Y145801D01*
X17389Y145552D01*
X16692Y144856D01*
X16200Y144003D01*
X15945Y143052D01*
Y142067D01*
X16200Y141115D01*
X16692Y140263D01*
X17389Y139566D01*
X18241Y139074D01*
X19193Y138819D01*
X20177D01*
X21129Y139074D01*
X21982Y139566D01*
X22678Y140263D01*
X23170Y141115D01*
X23425Y142067D01*
Y143052D01*
X23170Y144003D01*
X22678Y144856D01*
X21982Y145552D01*
X21549Y145801D01*
X21647Y146654D01*
X22077Y146784D01*
X22345Y146928D01*
X30503Y138770D01*
X30958Y138466D01*
X31496Y138359D01*
X85048D01*
X87354Y136053D01*
X87079Y135429D01*
X86979Y135315D01*
X85818D01*
X85432Y135238D01*
X85105Y135019D01*
X84886Y134692D01*
X84810Y134306D01*
Y132837D01*
X84761Y132829D01*
X84688Y132822D01*
X78268D01*
X77730Y132715D01*
X77274Y132411D01*
X59243Y114379D01*
X58938Y113924D01*
X58831Y113386D01*
Y96251D01*
X43611Y81031D01*
X39987D01*
X39915Y81037D01*
X39862Y81046D01*
Y82087D01*
X36043D01*
Y83055D01*
X36402D01*
Y85728D01*
Y88402D01*
X36043D01*
Y107606D01*
X35936Y108144D01*
X35631Y108600D01*
X23150Y121081D01*
X23170Y121115D01*
X23425Y122067D01*
Y123052D01*
X23170Y124003D01*
X22678Y124856D01*
X21982Y125552D01*
X21129Y126044D01*
X20177Y126299D01*
X19193D01*
X18241Y126044D01*
X18207Y126024D01*
X14566Y129665D01*
Y147889D01*
X14661Y147923D01*
X15354Y148067D01*
X16212Y147362D01*
D02*
G37*
G36*
X310589Y81889D02*
X311023Y81521D01*
X311215Y81387D01*
X311391Y81287D01*
X311549Y81220D01*
X311691Y81187D01*
X311817D01*
X311925Y81220D01*
X312017Y81287D01*
X310347Y79617D01*
X310414Y79709D01*
X310447Y79817D01*
Y79943D01*
X310414Y80085D01*
X310347Y80243D01*
X310246Y80419D01*
X310113Y80611D01*
X309946Y80819D01*
X309511Y81287D01*
X310347Y82122D01*
X310589Y81889D01*
D02*
G37*
G36*
X238866Y80695D02*
X238902Y80594D01*
X238961Y80506D01*
X239045Y80429D01*
X239152Y80364D01*
X239283Y80311D01*
X239439Y80270D01*
X239617Y80240D01*
X239820Y80222D01*
X240047Y80216D01*
Y79035D01*
X239820Y79030D01*
X239617Y79012D01*
X239439Y78982D01*
X239283Y78941D01*
X239152Y78888D01*
X239045Y78823D01*
X238961Y78746D01*
X238902Y78658D01*
X238866Y78557D01*
X238854Y78445D01*
Y80807D01*
X238866Y80695D01*
D02*
G37*
G36*
X39063D02*
X39099Y80594D01*
X39158Y80506D01*
X39242Y80429D01*
X39349Y80364D01*
X39480Y80311D01*
X39635Y80270D01*
X39814Y80240D01*
X40017Y80222D01*
X40244Y80216D01*
Y79035D01*
X40017Y79030D01*
X39814Y79012D01*
X39635Y78982D01*
X39480Y78941D01*
X39349Y78888D01*
X39242Y78823D01*
X39158Y78746D01*
X39099Y78658D01*
X39063Y78557D01*
X39051Y78445D01*
Y80807D01*
X39063Y80695D01*
D02*
G37*
G36*
X116226Y77965D02*
X116126Y77929D01*
X116037Y77869D01*
X115961Y77786D01*
X115896Y77679D01*
X115842Y77547D01*
X115801Y77392D01*
X115772Y77213D01*
X115754Y77010D01*
X115748Y76784D01*
X114567D01*
X114561Y77010D01*
X114543Y77213D01*
X114514Y77392D01*
X114472Y77547D01*
X114419Y77679D01*
X114354Y77786D01*
X114278Y77869D01*
X114189Y77929D01*
X114089Y77965D01*
X113976Y77977D01*
X116339D01*
X116226Y77965D01*
D02*
G37*
G36*
X38471D02*
X38370Y77929D01*
X38282Y77869D01*
X38205Y77786D01*
X38140Y77679D01*
X38087Y77547D01*
X38045Y77392D01*
X38016Y77213D01*
X37998Y77010D01*
X37992Y76784D01*
X36811D01*
X36805Y77010D01*
X36787Y77213D01*
X36758Y77392D01*
X36716Y77547D01*
X36663Y77679D01*
X36598Y77786D01*
X36522Y77869D01*
X36433Y77929D01*
X36333Y77965D01*
X36220Y77977D01*
X38583D01*
X38471Y77965D01*
D02*
G37*
G36*
X307850Y81797D02*
X307580Y80953D01*
X307435Y80924D01*
X306979Y80619D01*
X299321Y72962D01*
X298595Y73350D01*
X298649Y73619D01*
Y89884D01*
X299436Y90210D01*
X307850Y81797D01*
D02*
G37*
G36*
X280285Y53925D02*
X275993Y49633D01*
X264263D01*
X263962Y50361D01*
X268198Y54597D01*
X279628D01*
X279897Y54651D01*
X280285Y53925D01*
D02*
G37*
G36*
X295839Y84077D02*
Y74200D01*
X279046Y57407D01*
X267616D01*
X267079Y57300D01*
X266623Y56996D01*
X260942Y51314D01*
X217796D01*
X217258Y51207D01*
X216802Y50903D01*
X205759Y39860D01*
X205233Y39828D01*
X204809Y39822D01*
X204613Y39829D01*
X204612Y39829D01*
X204595Y39829D01*
X204242Y39838D01*
X203886Y39873D01*
X203123Y39797D01*
X202987Y39805D01*
X202728Y39767D01*
X202607Y39724D01*
X202432Y39701D01*
X202409Y39692D01*
X202367Y39688D01*
X202115Y39613D01*
X201989Y39547D01*
X201494Y39397D01*
X200413Y38819D01*
X199466Y38042D01*
X198689Y37095D01*
X198111Y36014D01*
X197981Y35585D01*
X197244Y35464D01*
X197124Y35494D01*
X196879Y35919D01*
X196182Y36615D01*
X195329Y37107D01*
X194378Y37362D01*
X193393D01*
X192442Y37107D01*
X191589Y36615D01*
X190893Y35919D01*
X190401Y35066D01*
X190146Y34114D01*
Y33130D01*
X190401Y32178D01*
X190893Y31326D01*
X191247Y30972D01*
X190920Y30185D01*
X186851D01*
X186525Y30972D01*
X186879Y31326D01*
X187371Y32178D01*
X187626Y33130D01*
Y34114D01*
X187371Y35066D01*
X187351Y35100D01*
X199074Y46823D01*
X201772D01*
X202309Y46930D01*
X202765Y47235D01*
X218115Y62585D01*
X221569D01*
X222107Y62692D01*
X222563Y62997D01*
X236731Y77165D01*
X239665D01*
Y78206D01*
X239718Y78215D01*
X239791Y78221D01*
X288287D01*
X288825Y78328D01*
X289281Y78632D01*
X295052Y84403D01*
X295839Y84077D01*
D02*
G37*
G36*
X61587Y93920D02*
Y76772D01*
X61694Y76234D01*
X61999Y75778D01*
X100384Y37392D01*
X100840Y37088D01*
X101378Y36981D01*
X124460D01*
X124856Y37060D01*
X140146D01*
Y35027D01*
X67354D01*
X38807Y63574D01*
Y77040D01*
X38813Y77113D01*
X38822Y77165D01*
X39862D01*
Y78206D01*
X39915Y78215D01*
X39987Y78221D01*
X44193D01*
X44731Y78328D01*
X45186Y78632D01*
X60800Y94246D01*
X61587Y93920D01*
D02*
G37*
G36*
X68003Y78632D02*
X68458Y78328D01*
X68996Y78221D01*
X112697D01*
Y77165D01*
X113737D01*
X113746Y77113D01*
X113752Y77040D01*
Y60039D01*
X113859Y59502D01*
X114164Y59046D01*
X125975Y47235D01*
X126431Y46930D01*
X126968Y46823D01*
X148698D01*
X160421Y35100D01*
X160401Y35066D01*
X160146Y34114D01*
Y33130D01*
X160401Y32178D01*
X160893Y31326D01*
X161247Y30972D01*
X160921Y30185D01*
X156851D01*
X156525Y30972D01*
X156879Y31326D01*
X157371Y32178D01*
X157626Y33130D01*
Y34114D01*
X157371Y35066D01*
X156879Y35919D01*
X156182Y36615D01*
X155330Y37107D01*
X154378Y37362D01*
X153393D01*
X152442Y37107D01*
X151589Y36615D01*
X151236Y36261D01*
X150448Y36587D01*
Y37043D01*
X150341Y37580D01*
X150037Y38036D01*
X148615Y39458D01*
X148159Y39763D01*
X147621Y39869D01*
X124539D01*
X124143Y39791D01*
X101960D01*
X64397Y77354D01*
Y81209D01*
X65124Y81511D01*
X68003Y78632D01*
D02*
G37*
G36*
X191555Y26715D02*
X191562Y26587D01*
X190893Y25918D01*
X190401Y25066D01*
X190146Y24114D01*
Y23130D01*
X190401Y22178D01*
X190893Y21326D01*
X191247Y20972D01*
X190920Y20185D01*
X189310D01*
X187351Y22144D01*
X187371Y22178D01*
X187626Y23130D01*
Y24114D01*
X187371Y25066D01*
X186879Y25918D01*
X186210Y26587D01*
X186216Y26715D01*
X186441Y27375D01*
X191330D01*
X191555Y26715D01*
D02*
G37*
G36*
X181555D02*
X181562Y26587D01*
X180893Y25918D01*
X180401Y25066D01*
X180146Y24114D01*
Y23130D01*
X180401Y22178D01*
X180421Y22144D01*
X178461Y20185D01*
X176851D01*
X176525Y20972D01*
X176879Y21326D01*
X177371Y22178D01*
X177626Y23130D01*
Y24114D01*
X177371Y25066D01*
X176879Y25918D01*
X176210Y26587D01*
X176216Y26715D01*
X176441Y27375D01*
X181330D01*
X181555Y26715D01*
D02*
G37*
G36*
X171555D02*
X171562Y26587D01*
X170893Y25918D01*
X170401Y25066D01*
X170146Y24114D01*
Y23130D01*
X170401Y22178D01*
X170893Y21326D01*
X171247Y20972D01*
X170921Y20185D01*
X169310D01*
X167351Y22144D01*
X167371Y22178D01*
X167626Y23130D01*
Y24114D01*
X167371Y25066D01*
X166879Y25918D01*
X166210Y26587D01*
X166216Y26715D01*
X166441Y27375D01*
X171330D01*
X171555Y26715D01*
D02*
G37*
G36*
X161555D02*
X161562Y26587D01*
X160893Y25918D01*
X160401Y25066D01*
X160146Y24114D01*
Y23130D01*
X160401Y22178D01*
X160421Y22144D01*
X158461Y20185D01*
X156851D01*
X156525Y20972D01*
X156879Y21326D01*
X157371Y22178D01*
X157626Y23130D01*
Y24114D01*
X157371Y25066D01*
X156879Y25918D01*
X156210Y26587D01*
X156216Y26715D01*
X156441Y27375D01*
X161330D01*
X161555Y26715D01*
D02*
G37*
G36*
X65778Y32629D02*
X66234Y32324D01*
X66772Y32217D01*
X140146D01*
Y29882D01*
X147626D01*
Y29933D01*
X148413Y30259D01*
X150887Y27786D01*
X151342Y27481D01*
X151471Y27456D01*
X151608Y26626D01*
X151589Y26615D01*
X150893Y25918D01*
X150401Y25066D01*
X150146Y24114D01*
Y23130D01*
X150401Y22178D01*
X150893Y21326D01*
X151247Y20972D01*
X150920Y20185D01*
X149310D01*
X147351Y22144D01*
X147371Y22178D01*
X147626Y23130D01*
Y24114D01*
X147371Y25066D01*
X146879Y25918D01*
X146182Y26615D01*
X145329Y27107D01*
X144378Y27362D01*
X143393D01*
X142442Y27107D01*
X141589Y26615D01*
X140893Y25918D01*
X140401Y25066D01*
X140390Y25027D01*
X116237D01*
X114182Y27082D01*
X113727Y27387D01*
X113189Y27494D01*
X58387D01*
X36043Y49838D01*
Y61251D01*
X36830Y61577D01*
X65778Y32629D01*
D02*
G37*
%LPC*%
G36*
X216043Y207283D02*
X211122D01*
Y206424D01*
X203701D01*
Y207283D01*
X198780D01*
Y202362D01*
X203701D01*
Y203615D01*
X211122D01*
X211122Y202290D01*
X210910Y201590D01*
X210910Y201466D01*
Y199819D01*
X213583D01*
X216256D01*
Y201466D01*
X216256Y201590D01*
X216043Y202290D01*
X216043Y202378D01*
Y207283D01*
D02*
G37*
G36*
X190665Y207496D02*
X188992D01*
Y205823D01*
X190665D01*
Y207496D01*
D02*
G37*
G36*
X186992D02*
X185319D01*
Y205823D01*
X186992D01*
Y207496D01*
D02*
G37*
G36*
X168028Y204346D02*
X166354D01*
Y202673D01*
X168028D01*
Y204346D01*
D02*
G37*
G36*
X164354D02*
X162681D01*
Y202673D01*
X164354D01*
Y204346D01*
D02*
G37*
G36*
X264484Y203823D02*
X262811D01*
Y202150D01*
X264484D01*
Y203823D01*
D02*
G37*
G36*
X260811D02*
X259138D01*
Y202150D01*
X260811D01*
Y203823D01*
D02*
G37*
G36*
X190665Y203823D02*
X188992D01*
Y202150D01*
X190665D01*
Y203823D01*
D02*
G37*
G36*
X186992D02*
X185319D01*
Y202150D01*
X186992D01*
Y203823D01*
D02*
G37*
G36*
X114878Y203823D02*
X113205D01*
Y202150D01*
X114878D01*
Y203823D01*
D02*
G37*
G36*
X111205D02*
X109531D01*
Y202150D01*
X111205D01*
Y203823D01*
D02*
G37*
G36*
X40075D02*
X38402D01*
Y202150D01*
X40075D01*
Y203823D01*
D02*
G37*
G36*
X36402D02*
X34728D01*
Y202150D01*
X36402D01*
Y203823D01*
D02*
G37*
G36*
X168028Y200673D02*
X166354D01*
Y199000D01*
X168028D01*
Y200673D01*
D02*
G37*
G36*
X164354D02*
X162681D01*
Y199000D01*
X164354D01*
Y200673D01*
D02*
G37*
G36*
X286402Y197819D02*
X284728D01*
Y196047D01*
X286402D01*
Y197819D01*
D02*
G37*
G36*
X216256Y197819D02*
X214583D01*
Y196047D01*
X216256D01*
Y197819D01*
D02*
G37*
G36*
X212583D02*
X210910D01*
Y196047D01*
X212583D01*
Y197819D01*
D02*
G37*
G36*
X140469D02*
X138795D01*
Y196047D01*
X140469D01*
Y197819D01*
D02*
G37*
G36*
X136795D02*
X135122D01*
Y196047D01*
X136795D01*
Y197819D01*
D02*
G37*
G36*
X65665D02*
X63992D01*
Y196047D01*
X65665D01*
Y197819D01*
D02*
G37*
G36*
X61992D02*
X60319D01*
Y196047D01*
X61992D01*
Y197819D01*
D02*
G37*
G36*
X94209Y204347D02*
X92535D01*
Y202674D01*
X94209D01*
Y204347D01*
D02*
G37*
G36*
X90535D02*
X88862D01*
Y202674D01*
X90535D01*
Y204347D01*
D02*
G37*
G36*
Y200674D02*
X88862D01*
Y199001D01*
X90535D01*
Y200674D01*
D02*
G37*
G36*
X166788Y158264D02*
X165213D01*
Y154819D01*
X166788D01*
Y158264D01*
D02*
G37*
G36*
Y152819D02*
X165213D01*
Y149374D01*
X166788D01*
Y152819D01*
D02*
G37*
G36*
X99130Y95291D02*
X97457D01*
Y93520D01*
X99130D01*
Y95291D01*
D02*
G37*
G36*
X95457D02*
X93783D01*
Y93520D01*
X95457D01*
Y95291D01*
D02*
G37*
G36*
X215272D02*
X213598D01*
Y93520D01*
X215272D01*
Y95291D01*
D02*
G37*
G36*
X172949D02*
X171276D01*
Y93520D01*
X172949D01*
Y95291D01*
D02*
G37*
G36*
X211598D02*
X209925D01*
Y93520D01*
X211598D01*
Y95291D01*
D02*
G37*
G36*
X169276D02*
X167602D01*
Y93520D01*
X169276D01*
Y95291D01*
D02*
G37*
G36*
X172949Y91520D02*
X170276D01*
X167602D01*
Y89873D01*
X167602Y89748D01*
X167815Y89049D01*
X167815Y88961D01*
Y87969D01*
X162057D01*
Y89370D01*
X157136D01*
Y84448D01*
X162057D01*
Y85159D01*
X167815D01*
Y84055D01*
X172736D01*
X172736Y89049D01*
X172949Y89748D01*
X172949Y89873D01*
Y91520D01*
D02*
G37*
G36*
X148638Y89582D02*
X146965D01*
Y87909D01*
X148638D01*
Y89582D01*
D02*
G37*
G36*
X144965D02*
X143291D01*
Y87909D01*
X144965D01*
Y89582D01*
D02*
G37*
G36*
X264484D02*
X262811D01*
Y87909D01*
X264484D01*
Y89582D01*
D02*
G37*
G36*
X260811D02*
X259138D01*
Y87909D01*
X260811D01*
Y89582D01*
D02*
G37*
G36*
X215272Y91520D02*
X212598D01*
X209925D01*
Y89873D01*
X209925Y89748D01*
X210138Y89049D01*
X210138Y88961D01*
Y87822D01*
X203051D01*
Y89074D01*
X198130D01*
Y84153D01*
X203051D01*
Y85012D01*
X210138D01*
Y84055D01*
X215059D01*
X215059Y89049D01*
X215272Y89748D01*
X215272Y89873D01*
Y91520D01*
D02*
G37*
G36*
X99130Y91520D02*
X96457D01*
X93783D01*
Y89873D01*
X93783Y89748D01*
X93996Y89049D01*
X93996Y88961D01*
Y87773D01*
X87106D01*
Y88976D01*
X82185D01*
Y84055D01*
X87106D01*
Y84963D01*
X93996D01*
Y84055D01*
X98917D01*
X98917Y89049D01*
X99130Y89748D01*
X99130Y89873D01*
Y91520D01*
D02*
G37*
G36*
X190665Y89287D02*
X188992D01*
Y87613D01*
X190665D01*
Y89287D01*
D02*
G37*
G36*
X186992D02*
X185319D01*
Y87613D01*
X186992D01*
Y89287D01*
D02*
G37*
G36*
X75508Y89189D02*
X73835D01*
Y87516D01*
X75508D01*
Y89189D01*
D02*
G37*
G36*
X71835D02*
X70161D01*
Y87516D01*
X71835D01*
Y89189D01*
D02*
G37*
G36*
X239878Y88402D02*
X238205D01*
Y86728D01*
X239878D01*
Y88402D01*
D02*
G37*
G36*
X236205D02*
X234531D01*
Y86728D01*
X236205D01*
Y88402D01*
D02*
G37*
G36*
X117831D02*
X116157D01*
Y86728D01*
X117831D01*
Y88402D01*
D02*
G37*
G36*
X114157D02*
X112484D01*
Y86728D01*
X114157D01*
Y88402D01*
D02*
G37*
G36*
X264484Y85909D02*
X262811D01*
Y84236D01*
X264484D01*
Y85909D01*
D02*
G37*
G36*
X260811D02*
X259138D01*
Y84236D01*
X260811D01*
Y85909D01*
D02*
G37*
G36*
X148638Y85909D02*
X146965D01*
Y84236D01*
X148638D01*
Y85909D01*
D02*
G37*
G36*
X144965D02*
X143291D01*
Y84236D01*
X144965D01*
Y85909D01*
D02*
G37*
G36*
X190665Y85613D02*
X188992D01*
Y83940D01*
X190665D01*
Y85613D01*
D02*
G37*
G36*
X186992D02*
X185319D01*
Y83940D01*
X186992D01*
Y85613D01*
D02*
G37*
G36*
X75508Y85516D02*
X73835D01*
Y83842D01*
X75508D01*
Y85516D01*
D02*
G37*
G36*
X71835D02*
X70161D01*
Y83842D01*
X71835D01*
Y85516D01*
D02*
G37*
G36*
X239878Y84728D02*
X238205D01*
Y83055D01*
X239878D01*
Y84728D01*
D02*
G37*
G36*
X236205D02*
X234531D01*
Y83055D01*
X236205D01*
Y84728D01*
D02*
G37*
G36*
X117831Y84728D02*
X116157D01*
Y83055D01*
X117831D01*
Y84728D01*
D02*
G37*
G36*
X114157D02*
X112484D01*
Y83055D01*
X114157D01*
Y84728D01*
D02*
G37*
G36*
X20177Y136299D02*
X19193D01*
X18241Y136044D01*
X17389Y135552D01*
X16692Y134856D01*
X16200Y134003D01*
X15945Y133052D01*
Y132067D01*
X16200Y131115D01*
X16692Y130263D01*
X17389Y129566D01*
X18241Y129074D01*
X19193Y128819D01*
X20177D01*
X21129Y129074D01*
X21982Y129566D01*
X22678Y130263D01*
X23170Y131115D01*
X23425Y132067D01*
Y133052D01*
X23170Y134003D01*
X22678Y134856D01*
X21982Y135552D01*
X21129Y136044D01*
X20177Y136299D01*
D02*
G37*
G36*
X40075Y88402D02*
X38402D01*
Y86728D01*
X40075D01*
Y88402D01*
D02*
G37*
G36*
Y84728D02*
X38402D01*
Y83055D01*
X40075D01*
Y84728D01*
D02*
G37*
%LPD*%
D26*
X197985Y153819D02*
D03*
X192985D02*
D03*
X187985D02*
D03*
X182985D02*
D03*
X177985D02*
D03*
X172985D02*
D03*
Y131575D02*
D03*
X177985D02*
D03*
X182985D02*
D03*
X187985D02*
D03*
X192985D02*
D03*
X197985D02*
D03*
D27*
X203181Y153819D02*
D03*
X167788D02*
D03*
Y131575D02*
D03*
X203181D02*
D03*
D32*
X204854Y38386D02*
G03*
X204856Y38386I132J1174D01*
G01*
X204438Y38433D02*
G03*
X203189Y38414I-552J-4811D01*
G01*
X202930Y38377D02*
G03*
X202765Y38340I170J-1169D01*
G01*
X193886Y28780D02*
G03*
X198576Y32416I0J4843D01*
G01*
X202514Y38266D02*
G03*
X199196Y34828I1372J-4644D01*
G01*
X14842Y152559D02*
G03*
X22107Y148366I4843J0D01*
G01*
X329060Y167640D02*
G03*
X327187Y167773I-1873J-13091D01*
G01*
X336245Y164184D02*
G03*
X332912Y166469I-9058J-9634D01*
G01*
X336614Y163326D02*
G03*
X336245Y164184I-1181J0D01*
G01*
X331748Y167028D02*
G03*
X330338Y167457I-2097J-4365D01*
G01*
X338779Y79528D02*
X338976Y79724D01*
X339567D01*
X66772Y33622D02*
X143886D01*
X37402Y62992D02*
X66772Y33622D01*
X126968Y48228D02*
X149279D01*
X163886Y33622D01*
X198492Y48228D02*
X201772D01*
X183886Y33622D02*
X198492Y48228D01*
X204856Y38386D02*
X206272D01*
X218492Y48228D02*
X276575D01*
X261524Y49909D02*
X267616Y56002D01*
X217796Y49909D02*
X261524D01*
X206272Y38386D02*
X217796Y49909D01*
X203886Y33622D02*
X218492Y48228D01*
X204438Y38433D02*
X204854Y38386D01*
X151880Y28780D02*
X193886D01*
X198576Y32416D02*
X199196Y34828D01*
X202514Y38266D02*
X202765Y38340D01*
X202930Y38377D02*
X203189Y38414D01*
X147621Y38465D02*
X149043Y37043D01*
Y31616D02*
Y37043D01*
X124539Y38465D02*
X147621D01*
X124460Y38386D02*
X124539Y38465D01*
X149043Y31616D02*
X151880Y28780D01*
X101378Y38386D02*
X124460D01*
X199043Y18779D02*
X203886Y23622D01*
X188728Y18779D02*
X199043D01*
X183886Y23622D02*
X188728Y18779D01*
X168728D02*
X179043D01*
X183886Y23622D01*
X163886D02*
X168728Y18779D01*
X159043D02*
X163886Y23622D01*
X148728Y18779D02*
X159043D01*
X143886Y23622D02*
X148728Y18779D01*
X115656Y23622D02*
X143886D01*
X113189Y26089D02*
X115656Y23622D01*
X57805Y26089D02*
X113189D01*
X23335Y208374D02*
X53579Y238618D01*
X75786D01*
X23335Y190908D02*
Y208374D01*
X128567Y238618D02*
X143886Y253937D01*
X75786Y238618D02*
X128567D01*
X75786D02*
X91535Y222869D01*
X68898Y258858D02*
X198335D01*
X21654Y190212D02*
Y211614D01*
X68898Y258858D01*
X66693Y261575D02*
X141524D01*
X13161Y129083D02*
Y208043D01*
X66693Y261575D01*
X183886Y263937D02*
X188728Y268779D01*
X199043D01*
X203886Y263937D01*
X179043Y268779D02*
X183886Y263937D01*
X168728Y268779D02*
X179043D01*
X163886Y263937D02*
X168728Y268779D01*
X148728D02*
X159043D01*
X143886Y263937D02*
X148728Y268779D01*
X159043D02*
X163886Y263937D01*
X141524Y261575D02*
X143886Y263937D01*
X22107Y148366D02*
X22894D01*
X14842Y152559D02*
Y166452D01*
X151089Y227848D02*
Y241141D01*
X165354Y207776D02*
Y213583D01*
X151089Y227848D02*
X165354Y213583D01*
X233330Y209485D02*
Y225686D01*
X183886Y253937D02*
X211445Y226378D01*
X232639D01*
X233330Y225686D01*
X214754Y236221D02*
X264254D01*
X199043Y251931D02*
X214754Y236221D01*
X264254D02*
X292732Y207742D01*
X213196Y244627D02*
X294187D01*
X256199Y156024D02*
Y166057D01*
Y151328D02*
Y156024D01*
X151089Y241141D02*
X163886Y253937D01*
X199043Y251931D02*
Y258150D01*
X198335Y258858D02*
X199043Y258150D01*
X203886Y253937D02*
X213196Y244627D01*
X294187D02*
X307592Y231222D01*
X284449Y146653D02*
X305568Y167773D01*
X327187D01*
X306710Y172663D02*
X329652D01*
X288665Y154618D02*
X306710Y172663D01*
X336614Y139626D02*
Y163326D01*
X329060Y167640D02*
X330338Y167457D01*
X331748Y167028D02*
X332912Y166469D01*
X280889Y148622D02*
X286885Y154618D01*
X288665D01*
X199803Y146653D02*
X284449D01*
X256199Y151328D02*
X257057Y150470D01*
X252826D02*
X257057D01*
X251298Y151998D02*
X252826Y150470D01*
X263167D02*
X270079Y157382D01*
X257057Y150470D02*
X263167D01*
X251298Y151998D02*
Y155807D01*
X228346Y148622D02*
X280889D01*
X254512Y141323D02*
X276000D01*
X256033Y139642D02*
X257012D01*
X248522Y138286D02*
X253240Y143004D01*
X257012Y139642D02*
X260949D01*
X203181Y143004D02*
X253240D01*
X276000Y141323D02*
X294291Y123031D01*
X251081Y137892D02*
X254512Y141323D01*
X253240Y143004D02*
X298925D01*
X257012Y139642D02*
X258758Y137895D01*
X176181Y144685D02*
X321674D01*
X223150Y153819D02*
X228346Y148622D01*
X253857Y137465D02*
X256033Y139642D01*
X245784Y155845D02*
X245963Y156024D01*
X245784Y152280D02*
Y155845D01*
X244094Y150591D02*
X245784Y152280D01*
X235236Y150591D02*
X244094D01*
X221457Y164370D02*
X235236Y150591D01*
X203181Y153819D02*
X223150D01*
X197985Y148472D02*
Y153819D01*
Y148472D02*
X199803Y146653D01*
X253857Y133642D02*
Y137465D01*
X253640Y133425D02*
X253857Y133642D01*
X101091Y144972D02*
X168429D01*
X170397Y143004D01*
X172985Y147882D02*
X176181Y144685D01*
X260949Y139642D02*
X283465Y117126D01*
X170397Y143004D02*
X203181D01*
X298925D02*
X323819Y118110D01*
X203181Y131575D02*
Y143004D01*
X321674Y144685D02*
X329652Y152663D01*
X96660Y149403D02*
X101091Y144972D01*
X251081Y156024D02*
X251298Y155807D01*
X270079Y157382D02*
X274606D01*
X21654Y190212D02*
X44307Y167559D01*
X15949D02*
X44307D01*
X29842Y152559D02*
X40579Y141823D01*
X19685Y152559D02*
X29842D01*
X31496Y139764D02*
X85630D01*
X22894Y148366D02*
X31496Y139764D01*
X34638Y49256D02*
Y107606D01*
X19685Y122559D02*
X34638Y107606D01*
X13161Y129083D02*
X19685Y122559D01*
X329652Y132663D02*
X336614Y139626D01*
X342520Y145495D02*
Y187008D01*
X342484Y135495D02*
Y145495D01*
X329652Y122663D02*
X342484Y135495D01*
X323819Y116830D02*
Y118110D01*
Y86811D02*
Y116830D01*
X329652Y122663D01*
X323819Y86811D02*
X324803Y85827D01*
X320866Y193898D02*
X335630D01*
X342520Y187008D01*
X290453Y163484D02*
X320866Y193898D01*
X286417Y163484D02*
X290453D01*
X270669Y178150D02*
X298228D01*
X314861Y194783D02*
Y201673D01*
X298228Y178150D02*
X314861Y194783D01*
X195453Y149922D02*
Y161004D01*
X198819Y164370D01*
X187985Y153819D02*
X187992Y153811D01*
Y149606D02*
Y153811D01*
Y149606D02*
X188976Y148622D01*
X194153D01*
X195453Y149922D01*
X198819Y164370D02*
X221457D01*
X192985Y153819D02*
Y161488D01*
X198030Y166534D02*
X243404D01*
X192985Y161488D02*
X198030Y166534D01*
X243404Y156024D02*
Y166534D01*
X177165Y138779D02*
X181102D01*
X183071Y131661D02*
Y136811D01*
X181102Y138779D02*
X183071Y136811D01*
X146653Y125984D02*
X173759D01*
X175516Y127741D01*
X169201Y141823D02*
X172985Y138039D01*
Y131575D02*
Y138039D01*
X175516Y137130D02*
X177165Y138779D01*
X175516Y127741D02*
Y137130D01*
X182985Y131575D02*
X183071Y131661D01*
X133858Y138779D02*
X146653Y125984D01*
X101378Y138779D02*
X133858D01*
X99219Y131417D02*
Y136620D01*
X101378Y138779D01*
X177985Y125819D02*
Y131575D01*
X176181Y124016D02*
X177985Y125819D01*
X105315Y124016D02*
X176181D01*
X101687Y127644D02*
X105315Y124016D01*
X101561Y127644D02*
X101687D01*
X101561D02*
Y131201D01*
X101778Y131417D01*
X84646Y110728D02*
X101561Y127644D01*
X342484Y145495D02*
X342520D01*
X37402Y62992D02*
Y79626D01*
X226756Y140945D02*
X242303D01*
X245932Y137317D01*
Y133456D02*
X245963Y133425D01*
X245932Y133456D02*
Y137317D01*
X245963Y121458D02*
Y133425D01*
X207859Y122047D02*
X226756Y140945D01*
X274606Y157382D02*
X286417D01*
X88983Y154016D02*
Y160328D01*
X82973Y166339D02*
X88983Y160328D01*
X47905Y166339D02*
X82973D01*
X78445Y176181D02*
X94101Y160525D01*
Y154016D02*
Y160525D01*
X43307Y176181D02*
X78445D01*
X58071Y184055D02*
X75394D01*
X99219Y154016D02*
Y160230D01*
X75394Y184055D02*
X99219Y160230D01*
Y149797D02*
Y154016D01*
X84646Y92618D02*
Y110728D01*
X72835Y98917D02*
X84646Y110728D01*
X72835Y92618D02*
Y98917D01*
X325000Y79528D02*
X338779D01*
X324803Y79724D02*
X325000Y79528D01*
X256199Y166057D02*
X269973Y179831D01*
X253640Y165875D02*
X269277Y181512D01*
X253640Y156024D02*
Y165875D01*
X269973Y179831D02*
X281209D01*
X269277Y181512D02*
X279937D01*
X291051Y192626D01*
X258758Y166238D02*
X270669Y178150D01*
X258758Y156024D02*
Y166238D01*
X288451Y209646D02*
X291051Y207046D01*
X281209Y179831D02*
X292732Y191354D01*
X249114Y209646D02*
X288451D01*
X291051Y192626D02*
Y207046D01*
X292732Y191354D02*
Y207742D01*
X23335Y190908D02*
X47905Y166339D01*
X25591Y193898D02*
Y203740D01*
Y193898D02*
X43307Y176181D01*
X25591Y203740D02*
X30512Y208661D01*
X75787D01*
X88583Y146653D02*
X91542Y149612D01*
X68425Y154016D02*
X75787Y146653D01*
X88583D01*
X57850Y154016D02*
X68425D01*
X86423D01*
X40579Y141823D02*
X169201D01*
X91542Y149612D02*
Y154016D01*
X104429Y207776D02*
X165354D01*
X92520Y195866D02*
X104429Y207776D01*
X75787Y208661D02*
X80709Y203740D01*
X61811Y205019D02*
X62008Y205216D01*
X50000Y204823D02*
X50196Y205019D01*
X61811D01*
X37402Y190945D02*
Y198721D01*
X44291Y184055D02*
X58071D01*
X37402Y190945D02*
X44291Y184055D01*
X50000Y192126D02*
Y198721D01*
Y192126D02*
X58071Y184055D01*
X44307Y167559D02*
X57850Y154016D01*
X91535Y207776D02*
Y222869D01*
X80709Y199803D02*
Y203740D01*
Y199803D02*
X84646Y195866D01*
X92520D01*
X125787Y204823D02*
X125984Y205019D01*
X138583D02*
X138779Y205216D01*
X125984Y205019D02*
X138583D01*
X125787Y184842D02*
Y198721D01*
X112205Y171260D02*
X125787Y184842D01*
X106299Y165354D02*
X112205Y171260D01*
X101778Y160833D02*
X106299Y165354D01*
X112205Y171260D02*
Y198721D01*
X106299Y165354D02*
X178150D01*
X101778Y154016D02*
Y160833D01*
X34638Y49256D02*
X57805Y26089D01*
X187988Y153823D02*
Y178150D01*
X14842Y166452D02*
X15949Y167559D01*
X94101Y131417D02*
Y137198D01*
X91535Y139764D02*
X94101Y137198D01*
X85630Y139764D02*
X91535D01*
X85630D02*
X88983Y136411D01*
Y131417D02*
Y136411D01*
X78331Y123031D02*
X85630D01*
X88983Y126384D02*
Y131417D01*
X85630Y123031D02*
X88983Y126384D01*
X62992Y107692D02*
X78331Y123031D01*
X62992Y76772D02*
X101378Y38386D01*
X62992Y76772D02*
Y107692D01*
X65354Y83268D02*
Y107677D01*
X77756Y120079D01*
X267616Y56002D02*
X279628D01*
X297244Y73619D01*
Y90551D01*
X283465Y104331D02*
X297244Y90551D01*
X283465Y104331D02*
Y117126D01*
X294291Y97342D02*
X312008Y79626D01*
X294291Y97342D02*
Y123031D01*
X258758Y133425D02*
Y137895D01*
X251081Y133425D02*
Y137892D01*
X201437Y205019D02*
X213702D01*
X213898Y205216D01*
X201240Y204823D02*
X201437Y205019D01*
X187988Y178150D02*
Y198717D01*
X201240Y191402D02*
Y198721D01*
X187988Y178150D02*
X201240Y191402D01*
X187985Y153819D02*
X187988Y153823D01*
Y198717D02*
X187992Y198721D01*
X261860Y184990D02*
X275590Y198721D01*
X243404Y166534D02*
X261860Y184990D01*
X261811Y185039D02*
X261860Y184990D01*
X261811Y185039D02*
Y198721D01*
X275590Y204823D02*
X275787Y205019D01*
X288189D02*
X288386Y205216D01*
X275787Y205019D02*
X288189D01*
X241142Y201673D02*
X249114Y209646D01*
X307592Y208943D02*
Y231222D01*
Y208943D02*
X314861Y201673D01*
X233330Y209485D02*
X241142Y201673D01*
X212402Y86417D02*
X212598Y86220D01*
X200787Y86417D02*
X212402D01*
X200591Y86613D02*
X200787Y86417D01*
X200591Y92716D02*
Y112401D01*
X194882Y118110D02*
X200591Y112401D01*
X187992Y125000D02*
X194882Y118110D01*
X187992Y92716D02*
Y125000D01*
X187985Y125008D02*
X187992Y125000D01*
X261959Y105463D02*
X274410Y93011D01*
X245963Y121458D02*
X261959Y105463D01*
X261811Y93011D02*
Y105315D01*
X261959Y105463D01*
X294291Y85630D02*
Y90551D01*
X256199Y128643D02*
Y133425D01*
Y128643D02*
X294291Y90551D01*
X288287Y79626D02*
X294291Y85630D01*
X237205Y79626D02*
X288287D01*
X274410Y86909D02*
X274606Y86712D01*
X286221D01*
X286417Y86516D01*
X307972Y79626D02*
X312008D01*
X276575Y48228D02*
X307972Y79626D01*
X217534Y63990D02*
X221569D01*
X201772Y48228D02*
X217534Y63990D01*
X221569D02*
X237205Y79626D01*
X177985Y153819D02*
Y158630D01*
X149498Y162402D02*
X174213D01*
X177985Y158630D01*
X134734Y147638D02*
X149498Y162402D01*
X101378Y147638D02*
X134734D01*
X99219Y149797D02*
X101378Y147638D01*
X182985Y153819D02*
Y160519D01*
X178150Y165354D02*
X182985Y160519D01*
X248522Y133425D02*
Y138286D01*
X146122Y121595D02*
X177697D01*
X182985Y126882D01*
Y131575D01*
X146122Y106486D02*
Y121595D01*
X192985Y124929D02*
X195866Y122047D01*
X207859D01*
X192985Y124929D02*
Y131575D01*
X187985Y125008D02*
Y131575D01*
X194882Y118110D02*
X233268D01*
X243404Y128246D01*
Y133425D01*
X96660Y149403D02*
Y154016D01*
X172985Y147882D02*
Y153819D01*
X60236Y95669D02*
Y113386D01*
X78268Y131417D02*
X86423D01*
X60236Y113386D02*
X78268Y131417D01*
X77756Y120079D02*
X86614D01*
X91542Y125006D01*
Y131417D01*
X146122Y93011D02*
Y106486D01*
X159597Y93011D01*
Y86909D02*
X159941Y86564D01*
X170620D02*
X170964Y86220D01*
X159941Y86564D02*
X170620D01*
X115157Y60039D02*
X126968Y48228D01*
X115157Y60039D02*
Y79626D01*
X65354Y83268D02*
X68996Y79626D01*
X115157D01*
X37402D02*
X44193D01*
X60236Y95669D01*
X84793Y86368D02*
X96309D01*
X96457Y86221D01*
X84646Y86516D02*
X84793Y86368D01*
D33*
X287402Y198819D02*
D03*
Y204724D02*
D03*
X213583Y198819D02*
D03*
Y204724D02*
D03*
X137795Y198819D02*
D03*
Y204724D02*
D03*
X62992Y198819D02*
D03*
Y204724D02*
D03*
X96457Y92520D02*
D03*
Y86614D02*
D03*
X170276Y92520D02*
D03*
Y86614D02*
D03*
X212598Y92520D02*
D03*
Y86614D02*
D03*
X286417Y92520D02*
D03*
Y86614D02*
D03*
X339567Y85630D02*
D03*
Y79724D02*
D03*
D34*
X101778Y131417D02*
D03*
X99219D02*
D03*
X96660D02*
D03*
X94101D02*
D03*
X91542D02*
D03*
X88983D02*
D03*
X86423D02*
D03*
Y154016D02*
D03*
X88983D02*
D03*
X91542D02*
D03*
X94101D02*
D03*
X96660D02*
D03*
X99219D02*
D03*
X101778D02*
D03*
X243404Y156024D02*
D03*
X245963D02*
D03*
X248522D02*
D03*
X251081D02*
D03*
X253640D02*
D03*
X256199D02*
D03*
X258758D02*
D03*
Y133425D02*
D03*
X256199D02*
D03*
X253640D02*
D03*
X251081D02*
D03*
X248522D02*
D03*
X245963D02*
D03*
X243404D02*
D03*
D35*
X324803Y79724D02*
D03*
Y85827D02*
D03*
X286417Y163484D02*
D03*
Y157382D02*
D03*
X274606D02*
D03*
Y163484D02*
D03*
X50000Y198721D02*
D03*
Y204823D02*
D03*
X37402Y198721D02*
D03*
Y204823D02*
D03*
X91535Y207776D02*
D03*
Y201674D02*
D03*
X125787Y204823D02*
D03*
Y198721D02*
D03*
X112205Y204823D02*
D03*
Y198721D02*
D03*
X165354Y207776D02*
D03*
Y201673D02*
D03*
X201240Y204823D02*
D03*
Y198721D02*
D03*
X187992Y204823D02*
D03*
Y198721D02*
D03*
X275394Y204823D02*
D03*
Y198721D02*
D03*
X261811Y204823D02*
D03*
Y198721D02*
D03*
X261811Y86909D02*
D03*
Y93011D02*
D03*
X237205Y85728D02*
D03*
Y79626D02*
D03*
X115157D02*
D03*
Y85728D02*
D03*
X145965Y93011D02*
D03*
Y86909D02*
D03*
X314861Y201673D02*
D03*
Y207776D02*
D03*
X187992Y92716D02*
D03*
Y86613D02*
D03*
X37402Y79626D02*
D03*
Y85728D02*
D03*
X312008Y79626D02*
D03*
Y85728D02*
D03*
X241142Y207776D02*
D03*
Y201674D02*
D03*
X200591Y86613D02*
D03*
Y92716D02*
D03*
X274410Y86909D02*
D03*
Y93011D02*
D03*
X159597Y86909D02*
D03*
Y93011D02*
D03*
X72835Y86516D02*
D03*
X84646D02*
D03*
Y92618D02*
D03*
D36*
X72835D02*
D03*
D37*
X143886Y23622D02*
D03*
X153886D02*
D03*
Y33622D02*
D03*
X163886Y23622D02*
D03*
Y33622D02*
D03*
X173886Y23622D02*
D03*
Y33622D02*
D03*
X183886Y23622D02*
D03*
Y33622D02*
D03*
X193886Y23622D02*
D03*
Y33622D02*
D03*
X203886Y23622D02*
D03*
Y33622D02*
D03*
X213886Y23622D02*
D03*
Y33622D02*
D03*
X143886Y253937D02*
D03*
X153886D02*
D03*
Y263937D02*
D03*
X163886Y253937D02*
D03*
Y263937D02*
D03*
X173886Y253937D02*
D03*
Y263937D02*
D03*
X183886Y253937D02*
D03*
Y263937D02*
D03*
X193886Y253937D02*
D03*
Y263937D02*
D03*
X203886Y253937D02*
D03*
Y263937D02*
D03*
X213886Y253937D02*
D03*
Y263937D02*
D03*
X329652Y182663D02*
D03*
Y172663D02*
D03*
Y162663D02*
D03*
Y152663D02*
D03*
Y142663D02*
D03*
Y132663D02*
D03*
Y122663D02*
D03*
X19685Y112559D02*
D03*
Y122559D02*
D03*
Y132559D02*
D03*
Y142559D02*
D03*
Y152559D02*
D03*
Y162559D02*
D03*
Y172559D02*
D03*
D38*
X143886Y33622D02*
D03*
Y263937D02*
D03*
D39*
X329652Y112663D02*
D03*
X19685Y182559D02*
D03*
D40*
X17717Y17717D02*
D03*
X333661D02*
D03*
Y268701D02*
D03*
X17717D02*
D03*
D41*
X212063Y137528D02*
D03*
X336000Y252000D02*
D03*
X342000Y240000D02*
D03*
X336000Y228000D02*
D03*
X342000Y216000D02*
D03*
Y96000D02*
D03*
Y72000D02*
D03*
X336000Y60000D02*
D03*
X342000Y48000D02*
D03*
X336000Y36000D02*
D03*
X324000Y252000D02*
D03*
X330000Y240000D02*
D03*
X324000Y228000D02*
D03*
X330000Y216000D02*
D03*
X324000Y156000D02*
D03*
X330000Y72000D02*
D03*
X324000Y60000D02*
D03*
X330000Y48000D02*
D03*
X324000Y36000D02*
D03*
X312000Y276000D02*
D03*
X318000Y264000D02*
D03*
X312000Y252000D02*
D03*
X318000Y240000D02*
D03*
X312000Y228000D02*
D03*
X318000Y216000D02*
D03*
X312000Y156000D02*
D03*
Y108000D02*
D03*
X318000Y72000D02*
D03*
X312000Y60000D02*
D03*
X318000Y48000D02*
D03*
X312000Y36000D02*
D03*
Y12000D02*
D03*
X300000Y276000D02*
D03*
X306000Y264000D02*
D03*
X300000Y252000D02*
D03*
X306000Y240000D02*
D03*
X300000Y228000D02*
D03*
X306000Y192000D02*
D03*
X300000Y156000D02*
D03*
Y108000D02*
D03*
X306000Y48000D02*
D03*
X300000Y36000D02*
D03*
X306000Y24000D02*
D03*
X300000Y12000D02*
D03*
X288000Y276000D02*
D03*
X294000Y264000D02*
D03*
X288000Y252000D02*
D03*
Y228000D02*
D03*
Y108000D02*
D03*
X294000Y24000D02*
D03*
X288000Y12000D02*
D03*
X276000Y276000D02*
D03*
X282000Y264000D02*
D03*
X276000Y252000D02*
D03*
X282000Y240000D02*
D03*
Y192000D02*
D03*
Y168000D02*
D03*
Y72000D02*
D03*
Y24000D02*
D03*
X276000Y12000D02*
D03*
X264000Y276000D02*
D03*
X270000Y264000D02*
D03*
X264000Y252000D02*
D03*
Y228000D02*
D03*
X270000Y216000D02*
D03*
Y168000D02*
D03*
Y72000D02*
D03*
X264000Y60000D02*
D03*
X270000Y24000D02*
D03*
X264000Y12000D02*
D03*
X252000Y276000D02*
D03*
X258000Y264000D02*
D03*
X252000Y228000D02*
D03*
X258000Y216000D02*
D03*
X252000Y204000D02*
D03*
Y108000D02*
D03*
Y84000D02*
D03*
X258000Y72000D02*
D03*
X252000Y60000D02*
D03*
X258000Y24000D02*
D03*
X252000Y12000D02*
D03*
X240000Y276000D02*
D03*
X246000Y264000D02*
D03*
X240000Y228000D02*
D03*
X246000Y216000D02*
D03*
Y192000D02*
D03*
X240000Y180000D02*
D03*
Y108000D02*
D03*
X246000Y72000D02*
D03*
X240000Y60000D02*
D03*
X246000Y24000D02*
D03*
X240000Y12000D02*
D03*
X228000Y276000D02*
D03*
X234000Y264000D02*
D03*
Y192000D02*
D03*
X228000Y180000D02*
D03*
Y108000D02*
D03*
Y60000D02*
D03*
X234000Y24000D02*
D03*
X228000Y12000D02*
D03*
X222000Y264000D02*
D03*
Y192000D02*
D03*
X216000Y180000D02*
D03*
Y108000D02*
D03*
X222000Y24000D02*
D03*
X210000Y216000D02*
D03*
Y192000D02*
D03*
X204000Y180000D02*
D03*
X210000Y72000D02*
D03*
X192000Y276000D02*
D03*
Y228000D02*
D03*
X198000Y216000D02*
D03*
Y72000D02*
D03*
X192000Y60000D02*
D03*
Y12000D02*
D03*
X180000Y276000D02*
D03*
X186000Y240000D02*
D03*
X180000Y228000D02*
D03*
X186000Y216000D02*
D03*
X180000Y204000D02*
D03*
Y180000D02*
D03*
Y108000D02*
D03*
Y84000D02*
D03*
X186000Y72000D02*
D03*
X180000Y60000D02*
D03*
X186000Y48000D02*
D03*
X180000Y12000D02*
D03*
X168000Y276000D02*
D03*
X174000Y240000D02*
D03*
X168000Y228000D02*
D03*
X174000Y216000D02*
D03*
Y192000D02*
D03*
X168000Y180000D02*
D03*
Y108000D02*
D03*
X174000Y72000D02*
D03*
X168000Y60000D02*
D03*
X174000Y48000D02*
D03*
X168000Y12000D02*
D03*
X156000Y276000D02*
D03*
X162000Y192000D02*
D03*
X156000Y180000D02*
D03*
Y156000D02*
D03*
Y108000D02*
D03*
X162000Y72000D02*
D03*
X156000Y12000D02*
D03*
X144000Y276000D02*
D03*
X150000Y192000D02*
D03*
X144000Y180000D02*
D03*
X150000Y72000D02*
D03*
X144000Y12000D02*
D03*
X132000Y276000D02*
D03*
Y252000D02*
D03*
Y228000D02*
D03*
X138000Y216000D02*
D03*
Y192000D02*
D03*
X132000Y180000D02*
D03*
Y156000D02*
D03*
Y108000D02*
D03*
X138000Y72000D02*
D03*
X132000Y60000D02*
D03*
Y12000D02*
D03*
X120000Y276000D02*
D03*
Y252000D02*
D03*
Y228000D02*
D03*
X126000Y216000D02*
D03*
X120000Y156000D02*
D03*
Y108000D02*
D03*
X126000Y72000D02*
D03*
X120000Y12000D02*
D03*
X108000Y276000D02*
D03*
Y252000D02*
D03*
Y228000D02*
D03*
X114000Y216000D02*
D03*
X108000Y180000D02*
D03*
Y156000D02*
D03*
Y108000D02*
D03*
Y84000D02*
D03*
Y60000D02*
D03*
Y12000D02*
D03*
X96000Y276000D02*
D03*
Y252000D02*
D03*
Y228000D02*
D03*
X102000Y216000D02*
D03*
Y192000D02*
D03*
X96000Y180000D02*
D03*
Y108000D02*
D03*
X102000Y72000D02*
D03*
X96000Y60000D02*
D03*
Y12000D02*
D03*
X84000Y276000D02*
D03*
Y252000D02*
D03*
X90000Y72000D02*
D03*
X84000Y12000D02*
D03*
X72000Y276000D02*
D03*
Y252000D02*
D03*
Y228000D02*
D03*
X78000Y216000D02*
D03*
Y192000D02*
D03*
X72000Y108000D02*
D03*
X78000Y72000D02*
D03*
X72000Y60000D02*
D03*
X78000Y48000D02*
D03*
X72000Y12000D02*
D03*
X60000Y276000D02*
D03*
Y228000D02*
D03*
X66000Y216000D02*
D03*
Y192000D02*
D03*
X60000Y12000D02*
D03*
X48000Y276000D02*
D03*
X54000Y264000D02*
D03*
Y216000D02*
D03*
X48000Y156000D02*
D03*
Y108000D02*
D03*
X54000Y72000D02*
D03*
X48000Y60000D02*
D03*
X54000Y24000D02*
D03*
X48000Y12000D02*
D03*
X36000Y276000D02*
D03*
X42000Y264000D02*
D03*
X36000Y252000D02*
D03*
X42000Y216000D02*
D03*
Y96000D02*
D03*
Y48000D02*
D03*
X36000Y36000D02*
D03*
X42000Y24000D02*
D03*
X36000Y12000D02*
D03*
X24000Y252000D02*
D03*
X30000Y240000D02*
D03*
Y96000D02*
D03*
X24000Y84000D02*
D03*
X30000Y72000D02*
D03*
X24000Y60000D02*
D03*
X30000Y48000D02*
D03*
X24000Y36000D02*
D03*
X12000Y252000D02*
D03*
X18000Y240000D02*
D03*
X12000Y228000D02*
D03*
Y84000D02*
D03*
X18000Y72000D02*
D03*
X12000Y60000D02*
D03*
X18000Y48000D02*
D03*
X12000Y36000D02*
D03*
M02*
