M48
;Layer_Color=9474304
;FILE_FORMAT=2:5
INCH,TZ
;TYPE=PLATED
T01F00S00C0.02800
T02F00S00C0.03543
T03F00S00C0.17717
%
T01
X36000Y12000
X48000
X60000
X72000
X84000
X96000
X108000
X120000
X132000
X144000
X156000
X150000Y72000
X138000
X126000
X132000Y60000
X108000
X96000
X102000Y72000
X90000
X78000
X72000Y60000
X78000Y48000
X42000
X30000
X18000
X24000Y60000
X12000
X18000Y72000
X30000
X24000Y84000
X12000
X30000Y96000
X42000
X48000Y108000
X72000
X96000
X108000
X120000
X132000
X156000
Y156000
X132000
X120000
X108000
X48000
X54000Y72000
X48000Y60000
X36000Y36000
X24000
X12000
X42000Y24000
X54000
X108000Y84000
X162000Y72000
X174000
X186000
X198000
X210000
X228000Y60000
X240000
X252000
X264000
X270000Y72000
X282000
X258000
X246000
X252000Y84000
Y108000
X240000
X228000
X216000
X212063Y137528
X180000Y108000
X168000
X180000Y84000
Y60000
X192000
X186000Y48000
X174000
X168000Y60000
Y12000
X180000
X192000
X228000
X240000
X252000
X264000
X276000
X288000
X300000
X312000
X306000Y24000
X294000
X282000
X270000
X258000
X246000
X234000
X222000
X300000Y36000
X312000
X306000Y48000
X312000Y60000
Y108000
X300000
X288000
X300000Y156000
X312000
X324000
X342000Y96000
Y72000
X330000
X318000
X324000Y60000
X336000
X342000Y48000
X330000
X318000
X324000Y36000
X336000
X342000Y216000
X330000
X318000
X324000Y228000
X336000
X342000Y240000
X330000
X318000
X324000Y252000
X336000
X318000Y264000
X306000
X294000
X282000
X270000
X258000
X246000
X234000
X222000
X228000Y276000
X240000
X252000
X264000
X276000
X288000
X300000
X312000
Y252000
X300000
X288000
X276000
X264000
Y228000
X252000
X240000
X246000Y216000
X258000
X270000
X288000Y228000
X300000
X312000
X306000Y240000
X282000
Y192000
X306000
X282000Y168000
X270000
X240000Y180000
X228000
X216000
X204000
X210000Y192000
X222000
X234000
X246000
X252000Y204000
X210000Y216000
X198000
X186000
X174000
X180000Y228000
X192000
X186000Y240000
X174000
X168000Y228000
X180000Y204000
X174000Y192000
X162000
X168000Y180000
X180000
Y276000
X192000
X168000
X156000
X144000
X132000
X120000
X108000
X96000
X84000
X72000
X60000
X48000
X36000
X42000Y264000
X54000
X72000Y252000
X84000
X96000
X108000
X120000
X132000
Y228000
X120000
X108000
X96000
X102000Y216000
X114000
X126000
X138000
Y192000
X150000
X156000Y180000
X144000
X132000
X108000
X96000
X102000Y192000
X78000
X66000
Y216000
X78000
X72000Y228000
X60000
X54000Y216000
X42000
X30000Y240000
X18000
X24000Y252000
X36000
X12000
Y228000
T02
X19685Y112559
Y122559
Y132559
Y142559
Y152559
X143886Y33622
Y23622
X153886
Y33622
X163886
Y23622
X173886
Y33622
X183886
Y23622
X193886
Y33622
X203886
Y23622
X213886
Y33622
X329652Y112663
Y122663
Y132663
Y142663
Y152663
Y162663
Y172663
Y182663
X213886Y253937
X203886
X193886
X183886
X173886
X163886
Y263937
X173886
X183886
X193886
X203886
X213886
X153886
X143886
Y253937
X153886
X19685Y182559
Y172559
Y162559
T03
X17717Y17717
X333661
Y268701
X17717
M30
