G04*
G04 #@! TF.GenerationSoftware,Altium Limited,Altium Designer,24.5.2 (23)*
G04*
G04 Layer_Physical_Order=2*
G04 Layer_Color=16711680*
%FSLAX25Y25*%
%MOIN*%
G70*
G04*
G04 #@! TF.SameCoordinates,F9E145AB-4376-4A3A-B871-3CA844BA1A44*
G04*
G04*
G04 #@! TF.FilePolarity,Positive*
G04*
G01*
G75*
%ADD32C,0.01181*%
%ADD35R,0.03347X0.03347*%
%ADD36R,0.03347X0.03347*%
%ADD37C,0.05906*%
%ADD38R,0.05906X0.05906*%
%ADD39R,0.05906X0.05906*%
%ADD40C,0.18898*%
%ADD41C,0.05000*%
%ADD42R,0.02362X0.04724*%
G36*
X320866Y255906D02*
X350575D01*
Y29528D01*
X319882D01*
Y803D01*
X29528D01*
Y29528D01*
X803D01*
Y255906D01*
X29528D01*
X30512Y256890D01*
Y285614D01*
X320866D01*
Y255906D01*
D02*
G37*
%LPC*%
G36*
X147154Y272074D02*
X70866D01*
X70328Y271967D01*
X69873Y271663D01*
X8849Y210639D01*
X8545Y210183D01*
X8438Y209646D01*
Y173228D01*
X8545Y172691D01*
X8849Y172235D01*
X16522Y164561D01*
X16200Y164003D01*
X15945Y163051D01*
Y162067D01*
X16200Y161115D01*
X16220Y161081D01*
X7370Y152231D01*
X7065Y151775D01*
X6958Y151237D01*
Y109747D01*
X7065Y109209D01*
X7370Y108754D01*
X88337Y27786D01*
X88793Y27481D01*
X89331Y27375D01*
X141330D01*
X141555Y26715D01*
X141562Y26587D01*
X140893Y25918D01*
X140401Y25066D01*
X140146Y24114D01*
Y23130D01*
X140401Y22178D01*
X140893Y21326D01*
X141589Y20629D01*
X142442Y20137D01*
X143393Y19882D01*
X144378D01*
X145329Y20137D01*
X146182Y20629D01*
X146879Y21326D01*
X147371Y22178D01*
X147626Y23130D01*
Y24114D01*
X147371Y25066D01*
X146879Y25918D01*
X146210Y26587D01*
X146216Y26715D01*
X146441Y27375D01*
X148146D01*
X150421Y25100D01*
X150401Y25066D01*
X150146Y24114D01*
Y23130D01*
X150401Y22178D01*
X150893Y21326D01*
X151589Y20629D01*
X152442Y20137D01*
X153393Y19882D01*
X154378D01*
X155330Y20137D01*
X155364Y20157D01*
X157735Y17786D01*
X158191Y17481D01*
X158728Y17375D01*
X169043D01*
X169581Y17481D01*
X170037Y17786D01*
X172407Y20157D01*
X172442Y20137D01*
X173393Y19882D01*
X174378D01*
X175329Y20137D01*
X175364Y20157D01*
X177735Y17786D01*
X178191Y17481D01*
X178728Y17375D01*
X189043D01*
X189581Y17481D01*
X190037Y17786D01*
X192408Y20157D01*
X192442Y20137D01*
X193393Y19882D01*
X194378D01*
X195329Y20137D01*
X195364Y20157D01*
X197735Y17786D01*
X198191Y17481D01*
X198728Y17375D01*
X209043D01*
X209581Y17481D01*
X210037Y17786D01*
X212407Y20157D01*
X212442Y20137D01*
X213393Y19882D01*
X214378D01*
X215330Y20137D01*
X216182Y20629D01*
X216879Y21326D01*
X217371Y22178D01*
X217626Y23130D01*
Y24114D01*
X217371Y25066D01*
X216879Y25918D01*
X216182Y26615D01*
X215330Y27107D01*
X214378Y27362D01*
X213393D01*
X212442Y27107D01*
X211589Y26615D01*
X210893Y25918D01*
X210401Y25066D01*
X210146Y24114D01*
Y23130D01*
X210401Y22178D01*
X210421Y22144D01*
X208461Y20185D01*
X206851D01*
X206525Y20972D01*
X206879Y21326D01*
X207371Y22178D01*
X207626Y23130D01*
Y24114D01*
X207371Y25066D01*
X206879Y25918D01*
X206182Y26615D01*
X205329Y27107D01*
X204378Y27362D01*
X203393D01*
X202442Y27107D01*
X201589Y26615D01*
X200893Y25918D01*
X200401Y25066D01*
X200146Y24114D01*
Y23130D01*
X200401Y22178D01*
X200893Y21326D01*
X201247Y20972D01*
X200921Y20185D01*
X199310D01*
X197351Y22144D01*
X197371Y22178D01*
X197626Y23130D01*
Y24114D01*
X197371Y25066D01*
X196879Y25918D01*
X196182Y26615D01*
X195329Y27107D01*
X194378Y27362D01*
X193393D01*
X192442Y27107D01*
X191589Y26615D01*
X190893Y25918D01*
X190401Y25066D01*
X190146Y24114D01*
Y23130D01*
X190401Y22178D01*
X190421Y22144D01*
X188461Y20185D01*
X186851D01*
X186525Y20972D01*
X186879Y21326D01*
X187371Y22178D01*
X187626Y23130D01*
Y24114D01*
X187371Y25066D01*
X186879Y25918D01*
X186182Y26615D01*
X185329Y27107D01*
X184378Y27362D01*
X183393D01*
X182442Y27107D01*
X181589Y26615D01*
X180893Y25918D01*
X180401Y25066D01*
X180146Y24114D01*
Y23130D01*
X180401Y22178D01*
X180893Y21326D01*
X181247Y20972D01*
X180921Y20185D01*
X179310D01*
X177351Y22144D01*
X177371Y22178D01*
X177626Y23130D01*
Y24114D01*
X177371Y25066D01*
X176879Y25918D01*
X176182Y26615D01*
X175329Y27107D01*
X174378Y27362D01*
X173393D01*
X172442Y27107D01*
X171589Y26615D01*
X170893Y25918D01*
X170401Y25066D01*
X170146Y24114D01*
Y23130D01*
X170401Y22178D01*
X170421Y22144D01*
X168461Y20185D01*
X166851D01*
X166525Y20972D01*
X166879Y21326D01*
X167371Y22178D01*
X167626Y23130D01*
Y24114D01*
X167371Y25066D01*
X166879Y25918D01*
X166182Y26615D01*
X165330Y27107D01*
X164378Y27362D01*
X163393D01*
X162442Y27107D01*
X161589Y26615D01*
X160893Y25918D01*
X160401Y25066D01*
X160146Y24114D01*
Y23130D01*
X160401Y22178D01*
X160893Y21326D01*
X161247Y20972D01*
X160921Y20185D01*
X159310D01*
X157351Y22144D01*
X157371Y22178D01*
X157626Y23130D01*
Y24114D01*
X157371Y25066D01*
X156879Y25918D01*
X156182Y26615D01*
X155330Y27107D01*
X154378Y27362D01*
X153393D01*
X152442Y27107D01*
X152408Y27087D01*
X149722Y29773D01*
X149266Y30077D01*
X148728Y30185D01*
X147626D01*
Y36781D01*
X148413Y37108D01*
X150421Y35100D01*
X150401Y35066D01*
X150146Y34114D01*
Y33130D01*
X150401Y32178D01*
X150893Y31326D01*
X151589Y30629D01*
X152442Y30137D01*
X153393Y29882D01*
X154378D01*
X155330Y30137D01*
X156182Y30629D01*
X156879Y31326D01*
X157371Y32178D01*
X157626Y33130D01*
Y34114D01*
X157371Y35066D01*
X156879Y35919D01*
X156182Y36615D01*
X155330Y37107D01*
X154378Y37362D01*
X153393D01*
X152442Y37107D01*
X152408Y37087D01*
X138372Y51123D01*
X137916Y51428D01*
X137378Y51534D01*
X91133D01*
X56626Y86042D01*
Y88976D01*
X51704D01*
Y84055D01*
X54639D01*
X89558Y49136D01*
X90013Y48832D01*
X90551Y48725D01*
X136796D01*
X147371Y38150D01*
X147045Y37362D01*
X140146D01*
Y30185D01*
X89913D01*
X9768Y110329D01*
Y150655D01*
X18207Y159094D01*
X18241Y159074D01*
X19193Y158819D01*
X20177D01*
X21129Y159074D01*
X21982Y159566D01*
X22678Y160263D01*
X23170Y161115D01*
X23425Y162067D01*
Y163051D01*
X23386Y163198D01*
X24145Y163957D01*
X40581D01*
X40907Y163170D01*
X31701Y153964D01*
X23181D01*
X23170Y154003D01*
X22678Y154856D01*
X21982Y155552D01*
X21129Y156044D01*
X20177Y156299D01*
X19193D01*
X18241Y156044D01*
X17389Y155552D01*
X16692Y154856D01*
X16200Y154003D01*
X15945Y153051D01*
Y152067D01*
X16200Y151115D01*
X16692Y150263D01*
X17389Y149566D01*
X18241Y149074D01*
X19193Y148819D01*
X20177D01*
X21129Y149074D01*
X21982Y149566D01*
X22678Y150263D01*
X23170Y151115D01*
X23181Y151154D01*
X32283D01*
X32821Y151261D01*
X33277Y151566D01*
X42905Y161194D01*
X70799D01*
Y160138D01*
X75721D01*
Y163957D01*
X76689D01*
Y163598D01*
X79362D01*
X82036D01*
Y163957D01*
X197823D01*
X200110Y161670D01*
X200566Y161365D01*
X201104Y161258D01*
X326156D01*
X326167Y161220D01*
X326659Y160367D01*
X327355Y159670D01*
X328208Y159178D01*
X329159Y158923D01*
X330144D01*
X331095Y159178D01*
X331948Y159670D01*
X332645Y160367D01*
X333137Y161220D01*
X333392Y162171D01*
Y163155D01*
X333137Y164107D01*
X332645Y164960D01*
X331948Y165656D01*
X331095Y166148D01*
X330144Y166403D01*
X329159D01*
X328208Y166148D01*
X327355Y165656D01*
X326659Y164960D01*
X326167Y164107D01*
X326156Y164068D01*
X201686D01*
X199398Y166356D01*
X198942Y166660D01*
X198405Y166767D01*
X23563D01*
X23026Y166660D01*
X22570Y166356D01*
X21845Y165631D01*
X21129Y166044D01*
X20177Y166299D01*
X19193D01*
X18850Y166208D01*
X11248Y173810D01*
Y209064D01*
X71448Y269264D01*
X146572D01*
X147371Y268465D01*
X147045Y267677D01*
X140146D01*
Y260197D01*
X147626D01*
Y267096D01*
X148413Y267423D01*
X150421Y265415D01*
X150401Y265381D01*
X150146Y264429D01*
Y263445D01*
X150401Y262493D01*
X150893Y261641D01*
X151589Y260944D01*
X152442Y260452D01*
X153393Y260197D01*
X154378D01*
X155330Y260452D01*
X156182Y260944D01*
X156879Y261641D01*
X157371Y262493D01*
X157626Y263445D01*
Y264429D01*
X157371Y265381D01*
X157351Y265415D01*
X159310Y267375D01*
X160921D01*
X161247Y266587D01*
X160893Y266233D01*
X160401Y265381D01*
X160146Y264429D01*
Y263445D01*
X160401Y262493D01*
X160893Y261641D01*
X161589Y260944D01*
X162442Y260452D01*
X163393Y260197D01*
X164378D01*
X165330Y260452D01*
X166182Y260944D01*
X166879Y261641D01*
X167371Y262493D01*
X167626Y263445D01*
Y264429D01*
X167371Y265381D01*
X166879Y266233D01*
X166525Y266587D01*
X166851Y267375D01*
X168461D01*
X170421Y265415D01*
X170401Y265381D01*
X170146Y264429D01*
Y263445D01*
X170401Y262493D01*
X170893Y261641D01*
X171589Y260944D01*
X172442Y260452D01*
X173393Y260197D01*
X174378D01*
X175329Y260452D01*
X176182Y260944D01*
X176879Y261641D01*
X177371Y262493D01*
X177626Y263445D01*
Y264429D01*
X177371Y265381D01*
X177351Y265415D01*
X179310Y267375D01*
X180921D01*
X181247Y266587D01*
X180893Y266233D01*
X180401Y265381D01*
X180146Y264429D01*
Y263445D01*
X180401Y262493D01*
X180893Y261641D01*
X181589Y260944D01*
X182442Y260452D01*
X183393Y260197D01*
X184378D01*
X185329Y260452D01*
X186182Y260944D01*
X186879Y261641D01*
X187371Y262493D01*
X187626Y263445D01*
Y264429D01*
X187371Y265381D01*
X186879Y266233D01*
X186525Y266587D01*
X186851Y267375D01*
X188461D01*
X190421Y265415D01*
X190401Y265381D01*
X190146Y264429D01*
Y263445D01*
X190401Y262493D01*
X190893Y261641D01*
X191589Y260944D01*
X192442Y260452D01*
X193393Y260197D01*
X194378D01*
X195329Y260452D01*
X196182Y260944D01*
X196879Y261641D01*
X197371Y262493D01*
X197626Y263445D01*
Y264429D01*
X197371Y265381D01*
X197351Y265415D01*
X199310Y267375D01*
X200921D01*
X201247Y266587D01*
X200893Y266233D01*
X200401Y265381D01*
X200146Y264429D01*
Y263445D01*
X200401Y262493D01*
X200893Y261641D01*
X201589Y260944D01*
X202442Y260452D01*
X203393Y260197D01*
X204378D01*
X205329Y260452D01*
X206182Y260944D01*
X206879Y261641D01*
X207371Y262493D01*
X207626Y263445D01*
Y264429D01*
X207371Y265381D01*
X206879Y266233D01*
X206525Y266587D01*
X206851Y267375D01*
X208461D01*
X210421Y265415D01*
X210401Y265381D01*
X210146Y264429D01*
Y263445D01*
X210401Y262493D01*
X210893Y261641D01*
X211589Y260944D01*
X212442Y260452D01*
X213393Y260197D01*
X214378D01*
X215330Y260452D01*
X216182Y260944D01*
X216879Y261641D01*
X217371Y262493D01*
X217626Y263445D01*
Y264429D01*
X217371Y265381D01*
X216879Y266233D01*
X216182Y266930D01*
X215330Y267422D01*
X214378Y267677D01*
X213393D01*
X212442Y267422D01*
X212407Y267402D01*
X210037Y269773D01*
X209581Y270077D01*
X209043Y270184D01*
X198728D01*
X198191Y270077D01*
X197735Y269773D01*
X195364Y267402D01*
X195329Y267422D01*
X194378Y267677D01*
X193393D01*
X192442Y267422D01*
X192408Y267402D01*
X190037Y269773D01*
X189581Y270077D01*
X189043Y270184D01*
X178728D01*
X178191Y270077D01*
X177735Y269773D01*
X175364Y267402D01*
X175329Y267422D01*
X174378Y267677D01*
X173393D01*
X172442Y267422D01*
X172407Y267402D01*
X170037Y269773D01*
X169581Y270077D01*
X169043Y270184D01*
X158728D01*
X158191Y270077D01*
X157735Y269773D01*
X155364Y267402D01*
X155330Y267422D01*
X154378Y267677D01*
X153393D01*
X152442Y267422D01*
X152408Y267402D01*
X148147Y271663D01*
X147691Y271967D01*
X147154Y272074D01*
D02*
G37*
G36*
X204378Y257677D02*
X203393D01*
X202442Y257422D01*
X201589Y256930D01*
X200893Y256234D01*
X200401Y255381D01*
X200146Y254429D01*
Y253445D01*
X200401Y252493D01*
X200893Y251641D01*
X201589Y250944D01*
X202442Y250452D01*
X203393Y250197D01*
X204378D01*
X205329Y250452D01*
X206182Y250944D01*
X206879Y251641D01*
X207371Y252493D01*
X207626Y253445D01*
Y254429D01*
X207371Y255381D01*
X206879Y256234D01*
X206182Y256930D01*
X205329Y257422D01*
X204378Y257677D01*
D02*
G37*
G36*
X184378D02*
X183393D01*
X182442Y257422D01*
X181589Y256930D01*
X180893Y256234D01*
X180401Y255381D01*
X180146Y254429D01*
Y253445D01*
X180401Y252493D01*
X180893Y251641D01*
X181589Y250944D01*
X182442Y250452D01*
X183393Y250197D01*
X184378D01*
X185329Y250452D01*
X186182Y250944D01*
X186879Y251641D01*
X187371Y252493D01*
X187626Y253445D01*
Y254429D01*
X187371Y255381D01*
X186879Y256234D01*
X186182Y256930D01*
X185329Y257422D01*
X184378Y257677D01*
D02*
G37*
G36*
X174378D02*
X173393D01*
X172442Y257422D01*
X171589Y256930D01*
X170893Y256234D01*
X170401Y255381D01*
X170146Y254429D01*
Y253445D01*
X170401Y252493D01*
X170421Y252459D01*
X148096Y230134D01*
X147792Y229679D01*
X147685Y229141D01*
Y207283D01*
X146129D01*
Y202362D01*
X151050D01*
Y207283D01*
X150495D01*
Y228559D01*
X172407Y250472D01*
X172442Y250452D01*
X173393Y250197D01*
X174378D01*
X175329Y250452D01*
X176182Y250944D01*
X176879Y251641D01*
X177371Y252493D01*
X177626Y253445D01*
Y254429D01*
X177371Y255381D01*
X176879Y256234D01*
X176182Y256930D01*
X175329Y257422D01*
X174378Y257677D01*
D02*
G37*
G36*
X164378D02*
X163393D01*
X162442Y257422D01*
X161589Y256930D01*
X160893Y256234D01*
X160401Y255381D01*
X160146Y254429D01*
Y253445D01*
X160401Y252493D01*
X160893Y251641D01*
X161589Y250944D01*
X162442Y250452D01*
X163393Y250197D01*
X164378D01*
X165330Y250452D01*
X166182Y250944D01*
X166879Y251641D01*
X167371Y252493D01*
X167626Y253445D01*
Y254429D01*
X167371Y255381D01*
X166879Y256234D01*
X166182Y256930D01*
X165330Y257422D01*
X164378Y257677D01*
D02*
G37*
G36*
X154378D02*
X153393D01*
X152442Y257422D01*
X151589Y256930D01*
X150893Y256234D01*
X150401Y255381D01*
X150146Y254429D01*
Y253445D01*
X150401Y252493D01*
X150421Y252459D01*
X131650Y233688D01*
X85630D01*
X85092Y233581D01*
X84636Y233277D01*
X72793Y221434D01*
X72489Y220978D01*
X72382Y220440D01*
Y207283D01*
X71326D01*
Y202362D01*
X76247D01*
Y207283D01*
X75192D01*
Y219858D01*
X86212Y230878D01*
X132232D01*
X132770Y230985D01*
X133226Y231290D01*
X152408Y250472D01*
X152442Y250452D01*
X153393Y250197D01*
X154378D01*
X155330Y250452D01*
X156182Y250944D01*
X156879Y251641D01*
X157371Y252493D01*
X157626Y253445D01*
Y254429D01*
X157371Y255381D01*
X156879Y256234D01*
X156182Y256930D01*
X155330Y257422D01*
X154378Y257677D01*
D02*
G37*
G36*
X144378D02*
X143393D01*
X142442Y257422D01*
X141589Y256930D01*
X140893Y256234D01*
X140401Y255381D01*
X140146Y254429D01*
Y253445D01*
X140401Y252493D01*
X140893Y251641D01*
X141589Y250944D01*
X142442Y250452D01*
X143393Y250197D01*
X144378D01*
X145329Y250452D01*
X146182Y250944D01*
X146879Y251641D01*
X147371Y252493D01*
X147626Y253445D01*
Y254429D01*
X147371Y255381D01*
X146879Y256234D01*
X146182Y256930D01*
X145329Y257422D01*
X144378Y257677D01*
D02*
G37*
G36*
X214378D02*
X213393D01*
X212442Y257422D01*
X211589Y256930D01*
X210893Y256234D01*
X210401Y255381D01*
X210146Y254429D01*
Y253445D01*
X210401Y252493D01*
X210893Y251641D01*
X211589Y250944D01*
X212442Y250452D01*
X213393Y250197D01*
X214378D01*
X215330Y250452D01*
X216182Y250944D01*
X216879Y251641D01*
X217371Y252493D01*
X217382Y252532D01*
X253355D01*
X296791Y209096D01*
Y207283D01*
X295735D01*
Y206041D01*
X295708Y205906D01*
X295735Y205770D01*
Y202362D01*
X300657D01*
Y207283D01*
X299601D01*
Y209678D01*
X299494Y210216D01*
X299189Y210671D01*
X254930Y254930D01*
X254475Y255235D01*
X253937Y255342D01*
X217382D01*
X217371Y255381D01*
X216879Y256234D01*
X216182Y256930D01*
X215330Y257422D01*
X214378Y257677D01*
D02*
G37*
G36*
X194378D02*
X193393D01*
X192442Y257422D01*
X191589Y256930D01*
X190893Y256234D01*
X190401Y255381D01*
X190146Y254429D01*
Y253445D01*
X190401Y252493D01*
X190893Y251641D01*
X191589Y250944D01*
X192442Y250452D01*
X193393Y250197D01*
X194378D01*
X195329Y250452D01*
X195364Y250472D01*
X202788Y243048D01*
Y235768D01*
X202895Y235230D01*
X203199Y234775D01*
X221988Y215986D01*
Y207283D01*
X220932D01*
Y202362D01*
X225853D01*
Y207283D01*
X224798D01*
Y216568D01*
X224691Y217105D01*
X224386Y217561D01*
X205597Y236350D01*
Y243630D01*
X205491Y244168D01*
X205186Y244624D01*
X197351Y252459D01*
X197371Y252493D01*
X197626Y253445D01*
Y254429D01*
X197371Y255381D01*
X196879Y256234D01*
X196182Y256930D01*
X195329Y257422D01*
X194378Y257677D01*
D02*
G37*
G36*
X334646Y204921D02*
X330709D01*
Y203192D01*
X330656Y203183D01*
X330583Y203177D01*
X321850D01*
X321313Y203070D01*
X320857Y202765D01*
X318217Y200125D01*
X300782D01*
X300709Y200132D01*
X300657Y200140D01*
Y201181D01*
X295735D01*
Y200125D01*
X225979D01*
X225906Y200132D01*
X225853Y200140D01*
Y201181D01*
X220932D01*
Y200125D01*
X151176D01*
X151103Y200132D01*
X151050Y200140D01*
Y201181D01*
X146129D01*
Y200125D01*
X76372D01*
X76300Y200132D01*
X76247Y200140D01*
Y201181D01*
X71326D01*
Y196260D01*
X76247D01*
Y197301D01*
X76300Y197309D01*
X76372Y197316D01*
X146129D01*
Y196260D01*
X151050D01*
Y197301D01*
X151103Y197309D01*
X151176Y197316D01*
X220932D01*
Y196260D01*
X225853D01*
Y197301D01*
X225906Y197309D01*
X225979Y197316D01*
X295735D01*
Y196260D01*
X300657D01*
Y197301D01*
X300709Y197309D01*
X300782Y197316D01*
X318799D01*
X319337Y197423D01*
X319793Y197727D01*
X322432Y200367D01*
X330583D01*
X330656Y200360D01*
X330709Y200352D01*
Y198622D01*
X334646D01*
Y200367D01*
X337017D01*
X344068Y193316D01*
Y116964D01*
X321418Y94314D01*
X300657D01*
Y95472D01*
X295735D01*
Y94283D01*
X295683Y94275D01*
X295610Y94269D01*
X225932D01*
Y95176D01*
X221011D01*
Y94283D01*
X220958Y94275D01*
X220885Y94269D01*
X131429D01*
Y95472D01*
X126507D01*
Y94235D01*
X126455Y94226D01*
X126382Y94220D01*
X56626D01*
Y95079D01*
X51704D01*
Y90158D01*
X56626D01*
Y91410D01*
X126382D01*
X126455Y91403D01*
X126507Y91395D01*
Y90551D01*
X131429D01*
Y91459D01*
X220885D01*
X220958Y91452D01*
X221011Y91444D01*
Y90255D01*
X225932D01*
Y91459D01*
X295610D01*
X295683Y91452D01*
X295735Y91444D01*
Y90551D01*
X300657D01*
Y91505D01*
X322000D01*
X322538Y91611D01*
X322993Y91916D01*
X346466Y115388D01*
X346770Y115844D01*
X346877Y116382D01*
Y193898D01*
X346770Y194435D01*
X346466Y194891D01*
X338592Y202765D01*
X338136Y203070D01*
X337598Y203177D01*
X334646D01*
Y204921D01*
D02*
G37*
G36*
X331118Y195291D02*
X329937D01*
Y192929D01*
X331118D01*
Y195291D01*
D02*
G37*
G36*
X327937D02*
X326756D01*
Y192929D01*
X327937D01*
Y195291D01*
D02*
G37*
G36*
X331118Y190929D02*
X329937D01*
Y188567D01*
X331118D01*
Y190929D01*
D02*
G37*
G36*
X327937D02*
X326756D01*
Y188567D01*
X327937D01*
Y190929D01*
D02*
G37*
G36*
X330144Y186403D02*
X329159D01*
X328208Y186148D01*
X327355Y185656D01*
X326659Y184960D01*
X326167Y184107D01*
X325912Y183156D01*
Y182171D01*
X326167Y181219D01*
X326659Y180367D01*
X327355Y179670D01*
X328208Y179178D01*
X329159Y178923D01*
X330144D01*
X331095Y179178D01*
X331948Y179670D01*
X332645Y180367D01*
X333137Y181219D01*
X333392Y182171D01*
Y183156D01*
X333137Y184107D01*
X332645Y184960D01*
X331948Y185656D01*
X331095Y186148D01*
X330144Y186403D01*
D02*
G37*
G36*
X23425Y186299D02*
X15945D01*
Y178819D01*
X23425D01*
Y186299D01*
D02*
G37*
G36*
X330144Y176403D02*
X329159D01*
X328208Y176148D01*
X327355Y175656D01*
X326659Y174960D01*
X326167Y174107D01*
X326142Y174016D01*
X23163D01*
X22678Y174856D01*
X21982Y175552D01*
X21129Y176044D01*
X20177Y176299D01*
X19193D01*
X18241Y176044D01*
X17389Y175552D01*
X16692Y174856D01*
X16200Y174003D01*
X15945Y173052D01*
Y172067D01*
X16200Y171115D01*
X16692Y170263D01*
X17389Y169566D01*
X18241Y169074D01*
X19193Y168819D01*
X20177D01*
X21129Y169074D01*
X21982Y169566D01*
X22678Y170263D01*
X23170Y171115D01*
X23195Y171206D01*
X326174D01*
X326659Y170367D01*
X327355Y169670D01*
X328208Y169178D01*
X329159Y168923D01*
X330144D01*
X331095Y169178D01*
X331948Y169670D01*
X332645Y170367D01*
X333137Y171220D01*
X333392Y172171D01*
Y173155D01*
X333137Y174107D01*
X332645Y174960D01*
X331948Y175656D01*
X331095Y176148D01*
X330144Y176403D01*
D02*
G37*
G36*
X82036Y161598D02*
X80362D01*
Y159925D01*
X82036D01*
Y161598D01*
D02*
G37*
G36*
X78362D02*
X76689D01*
Y159925D01*
X78362D01*
Y161598D01*
D02*
G37*
G36*
X330144Y156403D02*
X329159D01*
X328208Y156148D01*
X327355Y155656D01*
X326659Y154960D01*
X326167Y154107D01*
X325912Y153156D01*
Y152171D01*
X326167Y151219D01*
X326659Y150367D01*
X327355Y149670D01*
X328208Y149178D01*
X329159Y148923D01*
X330144D01*
X331095Y149178D01*
X331948Y149670D01*
X332645Y150367D01*
X333137Y151219D01*
X333392Y152171D01*
Y153156D01*
X333137Y154107D01*
X332645Y154960D01*
X331948Y155656D01*
X331095Y156148D01*
X330144Y156403D01*
D02*
G37*
G36*
X338386Y195079D02*
X334449D01*
Y189596D01*
X334445Y189579D01*
X334449Y189562D01*
Y188779D01*
X334997D01*
X335006Y188724D01*
X335012Y188654D01*
Y177676D01*
X334934Y177280D01*
Y149932D01*
X331130Y146128D01*
X331095Y146148D01*
X330144Y146403D01*
X329159D01*
X328208Y146148D01*
X327355Y145656D01*
X326659Y144960D01*
X326167Y144107D01*
X326142Y144016D01*
X23163D01*
X22678Y144856D01*
X21982Y145552D01*
X21129Y146044D01*
X20177Y146299D01*
X19193D01*
X18241Y146044D01*
X17389Y145552D01*
X16692Y144856D01*
X16200Y144003D01*
X15945Y143052D01*
Y142067D01*
X16200Y141115D01*
X16692Y140263D01*
X17389Y139566D01*
X18241Y139074D01*
X19193Y138819D01*
X20177D01*
X21129Y139074D01*
X21982Y139566D01*
X22678Y140263D01*
X23170Y141115D01*
X23195Y141206D01*
X326174D01*
X326659Y140367D01*
X327355Y139670D01*
X328208Y139178D01*
X329159Y138923D01*
X330144D01*
X331095Y139178D01*
X331948Y139670D01*
X332645Y140367D01*
X333137Y141219D01*
X333392Y142171D01*
Y143156D01*
X333137Y144107D01*
X333117Y144141D01*
X337332Y148356D01*
X337637Y148812D01*
X337743Y149350D01*
Y176963D01*
X337822Y177359D01*
Y188654D01*
X337828Y188724D01*
X337837Y188779D01*
X338386D01*
Y189562D01*
X338389Y189579D01*
X338386Y189596D01*
Y195079D01*
D02*
G37*
G36*
X330144Y136403D02*
X329159D01*
X328208Y136148D01*
X327355Y135656D01*
X326659Y134960D01*
X326167Y134107D01*
X326142Y134016D01*
X23163D01*
X22678Y134856D01*
X21982Y135552D01*
X21129Y136044D01*
X20177Y136299D01*
X19193D01*
X18241Y136044D01*
X17389Y135552D01*
X16692Y134856D01*
X16200Y134003D01*
X15945Y133052D01*
Y132067D01*
X16200Y131115D01*
X16692Y130263D01*
X17389Y129566D01*
X18241Y129074D01*
X19193Y128819D01*
X20177D01*
X21129Y129074D01*
X21982Y129566D01*
X22678Y130263D01*
X23170Y131115D01*
X23195Y131206D01*
X326174D01*
X326659Y130367D01*
X327355Y129670D01*
X328208Y129178D01*
X329159Y128923D01*
X330144D01*
X331095Y129178D01*
X331948Y129670D01*
X332645Y130367D01*
X333137Y131219D01*
X333392Y132171D01*
Y133156D01*
X333137Y134107D01*
X332645Y134960D01*
X331948Y135656D01*
X331095Y136148D01*
X330144Y136403D01*
D02*
G37*
G36*
Y126403D02*
X329159D01*
X328208Y126148D01*
X327355Y125656D01*
X326659Y124960D01*
X326167Y124107D01*
X326142Y124016D01*
X23163D01*
X22678Y124856D01*
X21982Y125552D01*
X21129Y126044D01*
X20177Y126299D01*
X19193D01*
X18241Y126044D01*
X17389Y125552D01*
X16692Y124856D01*
X16200Y124003D01*
X15945Y123052D01*
Y122067D01*
X16200Y121115D01*
X16692Y120263D01*
X17389Y119566D01*
X18241Y119074D01*
X19193Y118819D01*
X20177D01*
X21129Y119074D01*
X21982Y119566D01*
X22678Y120263D01*
X23170Y121115D01*
X23195Y121206D01*
X326174D01*
X326659Y120367D01*
X327355Y119670D01*
X328208Y119178D01*
X329159Y118923D01*
X330144D01*
X331095Y119178D01*
X331948Y119670D01*
X332645Y120367D01*
X333137Y121220D01*
X333392Y122171D01*
Y123155D01*
X333137Y124107D01*
X332645Y124960D01*
X331948Y125656D01*
X331095Y126148D01*
X330144Y126403D01*
D02*
G37*
G36*
X333605Y116616D02*
X330652D01*
Y113663D01*
X333605D01*
Y116616D01*
D02*
G37*
G36*
X328652D02*
X325699D01*
Y113663D01*
X328652D01*
Y116616D01*
D02*
G37*
G36*
X20685Y116383D02*
Y113559D01*
X23509D01*
X23368Y114085D01*
X22848Y114986D01*
X22112Y115722D01*
X21211Y116242D01*
X20685Y116383D01*
D02*
G37*
G36*
X18685D02*
X18159Y116242D01*
X17258Y115722D01*
X16522Y114986D01*
X16002Y114085D01*
X15861Y113559D01*
X18685D01*
Y116383D01*
D02*
G37*
G36*
X23509Y111559D02*
X20685D01*
Y108735D01*
X21211Y108876D01*
X22112Y109396D01*
X22848Y110132D01*
X23368Y111033D01*
X23509Y111559D01*
D02*
G37*
G36*
X18685D02*
X15861D01*
X16002Y111033D01*
X16522Y110132D01*
X17258Y109396D01*
X18159Y108876D01*
X18685Y108735D01*
Y111559D01*
D02*
G37*
G36*
X333605Y111663D02*
X330652D01*
Y108710D01*
X333605D01*
Y111663D01*
D02*
G37*
G36*
X328652D02*
X325699D01*
Y108710D01*
X328652D01*
Y111663D01*
D02*
G37*
G36*
X225932Y89074D02*
X221011D01*
Y84153D01*
X222052D01*
X222060Y84100D01*
X222066Y84027D01*
Y49633D01*
X208492D01*
X207955Y49527D01*
X207499Y49222D01*
X195364Y37087D01*
X195329Y37107D01*
X194378Y37362D01*
X193393D01*
X192442Y37107D01*
X191589Y36615D01*
X190893Y35919D01*
X190401Y35066D01*
X190146Y34114D01*
Y33130D01*
X190401Y32178D01*
X190893Y31326D01*
X191589Y30629D01*
X192442Y30137D01*
X193393Y29882D01*
X194378D01*
X195329Y30137D01*
X196182Y30629D01*
X196879Y31326D01*
X197371Y32178D01*
X197626Y33130D01*
Y34114D01*
X197371Y35066D01*
X197351Y35100D01*
X209074Y46824D01*
X223471D01*
X224009Y46931D01*
X224465Y47235D01*
X224769Y47691D01*
X224876Y48228D01*
Y84027D01*
X224883Y84100D01*
X224891Y84153D01*
X225932D01*
Y89074D01*
D02*
G37*
G36*
X300657Y89370D02*
X295735D01*
Y84448D01*
X296815D01*
X296824Y84396D01*
X296830Y84323D01*
Y48850D01*
X283008Y35027D01*
X217382D01*
X217371Y35066D01*
X216879Y35919D01*
X216182Y36615D01*
X215330Y37107D01*
X214378Y37362D01*
X213393D01*
X212442Y37107D01*
X211589Y36615D01*
X210893Y35919D01*
X210401Y35066D01*
X210146Y34114D01*
Y33130D01*
X210401Y32178D01*
X210893Y31326D01*
X211589Y30629D01*
X212442Y30137D01*
X213393Y29882D01*
X214378D01*
X215330Y30137D01*
X216182Y30629D01*
X216879Y31326D01*
X217371Y32178D01*
X217382Y32217D01*
X283590D01*
X284127Y32324D01*
X284583Y32629D01*
X299229Y47274D01*
X299229Y47274D01*
X299533Y47730D01*
X299640Y48268D01*
Y84323D01*
X299647Y84396D01*
X299655Y84448D01*
X300657D01*
Y89370D01*
D02*
G37*
G36*
X204378Y37362D02*
X203393D01*
X202442Y37107D01*
X201589Y36615D01*
X200893Y35919D01*
X200401Y35066D01*
X200146Y34114D01*
Y33130D01*
X200401Y32178D01*
X200893Y31326D01*
X201589Y30629D01*
X202442Y30137D01*
X203393Y29882D01*
X204378D01*
X205329Y30137D01*
X206182Y30629D01*
X206879Y31326D01*
X207371Y32178D01*
X207626Y33130D01*
Y34114D01*
X207371Y35066D01*
X206879Y35919D01*
X206182Y36615D01*
X205329Y37107D01*
X204378Y37362D01*
D02*
G37*
G36*
X184378D02*
X183393D01*
X182442Y37107D01*
X181589Y36615D01*
X180893Y35919D01*
X180401Y35066D01*
X180146Y34114D01*
Y33130D01*
X180401Y32178D01*
X180893Y31326D01*
X181589Y30629D01*
X182442Y30137D01*
X183393Y29882D01*
X184378D01*
X185329Y30137D01*
X186182Y30629D01*
X186879Y31326D01*
X187371Y32178D01*
X187626Y33130D01*
Y34114D01*
X187371Y35066D01*
X186879Y35919D01*
X186182Y36615D01*
X185329Y37107D01*
X184378Y37362D01*
D02*
G37*
G36*
X131429Y89370D02*
X126507D01*
Y84448D01*
X129442D01*
X157060Y56831D01*
Y48920D01*
X157167Y48383D01*
X157471Y47927D01*
X158163Y47235D01*
X158534Y46987D01*
X170421Y35100D01*
X170401Y35066D01*
X170146Y34114D01*
Y33130D01*
X170401Y32178D01*
X170893Y31326D01*
X171589Y30629D01*
X172442Y30137D01*
X173393Y29882D01*
X174378D01*
X175329Y30137D01*
X176182Y30629D01*
X176879Y31326D01*
X177371Y32178D01*
X177626Y33130D01*
Y34114D01*
X177371Y35066D01*
X176879Y35919D01*
X176182Y36615D01*
X175329Y37107D01*
X174378Y37362D01*
X173393D01*
X172442Y37107D01*
X172407Y37087D01*
X160273Y49222D01*
X159902Y49470D01*
X159870Y49502D01*
Y57413D01*
X159763Y57950D01*
X159458Y58406D01*
X131429Y86435D01*
Y89370D01*
D02*
G37*
G36*
X164378Y37362D02*
X163393D01*
X162442Y37107D01*
X161589Y36615D01*
X160893Y35919D01*
X160401Y35066D01*
X160146Y34114D01*
Y33130D01*
X160401Y32178D01*
X160893Y31326D01*
X161589Y30629D01*
X162442Y30137D01*
X163393Y29882D01*
X164378D01*
X165330Y30137D01*
X166182Y30629D01*
X166879Y31326D01*
X167371Y32178D01*
X167626Y33130D01*
Y34114D01*
X167371Y35066D01*
X166879Y35919D01*
X166182Y36615D01*
X165330Y37107D01*
X164378Y37362D01*
D02*
G37*
%LPD*%
G36*
X331520Y200591D02*
X331508Y200703D01*
X331472Y200803D01*
X331413Y200892D01*
X331329Y200969D01*
X331222Y201033D01*
X331090Y201087D01*
X330935Y201128D01*
X330756Y201157D01*
X330554Y201175D01*
X330327Y201181D01*
Y202362D01*
X330554Y202368D01*
X330756Y202386D01*
X330935Y202415D01*
X331090Y202457D01*
X331222Y202510D01*
X331329Y202575D01*
X331413Y202652D01*
X331472Y202740D01*
X331508Y202841D01*
X331520Y202953D01*
Y200591D01*
D02*
G37*
G36*
X299857Y199789D02*
X299893Y199689D01*
X299953Y199600D01*
X300036Y199524D01*
X300144Y199459D01*
X300275Y199406D01*
X300430Y199364D01*
X300609Y199335D01*
X300812Y199317D01*
X301038Y199311D01*
Y198130D01*
X300812Y198124D01*
X300609Y198106D01*
X300430Y198077D01*
X300275Y198035D01*
X300144Y197982D01*
X300036Y197917D01*
X299953Y197841D01*
X299893Y197752D01*
X299857Y197652D01*
X299845Y197539D01*
Y199902D01*
X299857Y199789D01*
D02*
G37*
G36*
X225054D02*
X225090Y199689D01*
X225149Y199600D01*
X225233Y199524D01*
X225340Y199459D01*
X225472Y199406D01*
X225627Y199364D01*
X225806Y199335D01*
X226009Y199317D01*
X226235Y199311D01*
Y198130D01*
X226009Y198124D01*
X225806Y198106D01*
X225627Y198077D01*
X225472Y198035D01*
X225340Y197982D01*
X225233Y197917D01*
X225149Y197841D01*
X225090Y197752D01*
X225054Y197652D01*
X225042Y197539D01*
Y199902D01*
X225054Y199789D01*
D02*
G37*
G36*
X150251D02*
X150287Y199689D01*
X150346Y199600D01*
X150430Y199524D01*
X150537Y199459D01*
X150669Y199406D01*
X150824Y199364D01*
X151003Y199335D01*
X151205Y199317D01*
X151432Y199311D01*
Y198130D01*
X151205Y198124D01*
X151003Y198106D01*
X150824Y198077D01*
X150669Y198035D01*
X150537Y197982D01*
X150430Y197917D01*
X150346Y197841D01*
X150287Y197752D01*
X150251Y197652D01*
X150239Y197539D01*
Y199902D01*
X150251Y199789D01*
D02*
G37*
G36*
X75448D02*
X75484Y199689D01*
X75543Y199600D01*
X75627Y199524D01*
X75734Y199459D01*
X75865Y199406D01*
X76020Y199364D01*
X76199Y199335D01*
X76402Y199317D01*
X76629Y199311D01*
Y198130D01*
X76402Y198124D01*
X76199Y198106D01*
X76020Y198077D01*
X75865Y198035D01*
X75734Y197982D01*
X75627Y197917D01*
X75543Y197841D01*
X75484Y197752D01*
X75448Y197652D01*
X75436Y197539D01*
Y199902D01*
X75448Y199789D01*
D02*
G37*
G36*
X296547Y91682D02*
X296535Y91795D01*
X296499Y91895D01*
X296439Y91984D01*
X296356Y92060D01*
X296249Y92125D01*
X296117Y92178D01*
X295962Y92220D01*
X295783Y92249D01*
X295580Y92267D01*
X295354Y92273D01*
Y93454D01*
X295580Y93460D01*
X295783Y93478D01*
X295962Y93507D01*
X296117Y93549D01*
X296249Y93602D01*
X296356Y93667D01*
X296439Y93743D01*
X296499Y93832D01*
X296535Y93932D01*
X296547Y94045D01*
Y91682D01*
D02*
G37*
G36*
X221822D02*
X221810Y91795D01*
X221774Y91895D01*
X221715Y91984D01*
X221631Y92060D01*
X221524Y92125D01*
X221392Y92178D01*
X221237Y92220D01*
X221059Y92249D01*
X220856Y92267D01*
X220629Y92273D01*
Y93454D01*
X220856Y93460D01*
X221059Y93478D01*
X221237Y93507D01*
X221392Y93549D01*
X221524Y93602D01*
X221631Y93667D01*
X221715Y93743D01*
X221774Y93832D01*
X221810Y93932D01*
X221822Y94045D01*
Y91682D01*
D02*
G37*
G36*
X127319Y91634D02*
X127307Y91746D01*
X127271Y91846D01*
X127211Y91935D01*
X127128Y92012D01*
X127021Y92076D01*
X126889Y92130D01*
X126734Y92171D01*
X126555Y92201D01*
X126353Y92218D01*
X126126Y92224D01*
Y93405D01*
X126353Y93411D01*
X126555Y93429D01*
X126734Y93458D01*
X126889Y93500D01*
X127021Y93553D01*
X127128Y93618D01*
X127211Y93695D01*
X127271Y93783D01*
X127307Y93884D01*
X127319Y93996D01*
Y91634D01*
D02*
G37*
G36*
X337476Y189567D02*
X337378Y189532D01*
X337291Y189473D01*
X337216Y189390D01*
X337153Y189284D01*
X337100Y189154D01*
X337060Y189000D01*
X337031Y188823D01*
X337014Y188622D01*
X337008Y188398D01*
X335827D01*
X335821Y188622D01*
X335804Y188823D01*
X335775Y189000D01*
X335734Y189154D01*
X335682Y189284D01*
X335618Y189390D01*
X335543Y189473D01*
X335456Y189532D01*
X335358Y189567D01*
X335248Y189579D01*
X337586D01*
X337476Y189567D01*
D02*
G37*
G36*
X224540Y84952D02*
X224440Y84916D01*
X224351Y84857D01*
X224275Y84773D01*
X224210Y84666D01*
X224156Y84535D01*
X224115Y84380D01*
X224086Y84201D01*
X224068Y83998D01*
X224062Y83771D01*
X222881D01*
X222875Y83998D01*
X222857Y84201D01*
X222828Y84380D01*
X222786Y84535D01*
X222733Y84666D01*
X222668Y84773D01*
X222591Y84857D01*
X222503Y84916D01*
X222403Y84952D01*
X222290Y84964D01*
X224653D01*
X224540Y84952D01*
D02*
G37*
G36*
X299304Y85248D02*
X299204Y85212D01*
X299115Y85152D01*
X299039Y85069D01*
X298974Y84961D01*
X298920Y84830D01*
X298879Y84675D01*
X298850Y84496D01*
X298832Y84293D01*
X298826Y84067D01*
X297645D01*
X297639Y84293D01*
X297621Y84496D01*
X297592Y84675D01*
X297550Y84830D01*
X297497Y84961D01*
X297432Y85069D01*
X297356Y85152D01*
X297267Y85212D01*
X297166Y85248D01*
X297054Y85260D01*
X299416D01*
X299304Y85248D01*
D02*
G37*
D32*
X8363Y109747D02*
Y151237D01*
X19685Y162559D01*
X8363Y109747D02*
X89331Y28780D01*
X148728D01*
X153886Y23622D01*
X158728Y18779D02*
X169043D01*
X173886Y23622D01*
X153886D02*
X158728Y18779D01*
X178728D02*
X189043D01*
X193886Y23622D01*
X173886D02*
X178728Y18779D01*
X198728D02*
X209043D01*
X213886Y23622D01*
X193886D02*
X198728Y18779D01*
X213886Y33622D02*
X283590D01*
X298235Y48268D01*
X298235D02*
Y86870D01*
X298235Y48268D02*
X298235D01*
X137378Y50130D02*
X153886Y33622D01*
X90551Y50130D02*
X137378D01*
X54165Y86516D02*
X90551Y50130D01*
X159156Y48228D02*
X159280D01*
X128968Y86909D02*
X158465Y57413D01*
Y48920D02*
Y57413D01*
Y48920D02*
X159156Y48228D01*
X208492Y48228D02*
X223471D01*
X193886Y33622D02*
X208492Y48228D01*
X159280Y48228D02*
X173886Y33622D01*
X209043Y268779D02*
X213886Y263937D01*
X198728Y268779D02*
X209043D01*
X193886Y263937D02*
X198728Y268779D01*
X178728D02*
X189043D01*
X193886Y263937D01*
X173886D02*
X178728Y268779D01*
X158728D02*
X169043D01*
X153886Y263937D02*
X158728Y268779D01*
X169043D02*
X173886Y263937D01*
X9843Y173228D02*
X19685Y163386D01*
Y162559D02*
Y163386D01*
X9843Y173228D02*
Y209646D01*
X70866Y270669D01*
X147154D01*
X153886Y263937D01*
X85630Y232283D02*
X132232D01*
X149090Y204823D02*
Y229141D01*
X204193Y235768D02*
X223393Y216568D01*
X204193Y235768D02*
Y243630D01*
X223393Y204823D02*
Y216568D01*
X193886Y253937D02*
X204193Y243630D01*
X298196Y204823D02*
Y209678D01*
X253937Y253937D02*
X298196Y209678D01*
X213886Y253937D02*
X253937D01*
X297113Y205906D02*
X298196Y204823D01*
X73787Y220440D02*
X85630Y232283D01*
X132232D02*
X153886Y253937D01*
X149090Y229141D02*
X173886Y253937D01*
X73787Y204823D02*
Y220440D01*
X19685Y162559D02*
X20760D01*
X23563Y165362D01*
X198405D01*
X201104Y162663D01*
X329652D01*
X19737Y172611D02*
X329600D01*
X329652Y172663D01*
X19685Y172559D02*
X19737Y172611D01*
X32283Y152559D02*
X42323Y162598D01*
X73260D01*
X329600Y142611D02*
X329652Y142663D01*
X19737Y142611D02*
X329600D01*
X19685Y142559D02*
X19737Y142611D01*
X19685Y132559D02*
X19737Y132611D01*
X329600D01*
X329652Y132663D01*
X19737Y122611D02*
X329600D01*
X329652Y122663D01*
X19685Y122559D02*
X19737Y122611D01*
X329548Y112559D02*
X329652Y112663D01*
X19685Y152559D02*
X32283D01*
X336339Y149350D02*
Y177280D01*
X329652Y142663D02*
X336339Y149350D01*
X337598Y201772D02*
X345472Y193898D01*
X322000Y92909D02*
X345472Y116382D01*
Y193898D01*
X336339Y177280D02*
X336417Y177359D01*
Y191929D01*
X298298Y92909D02*
X322000D01*
X298196Y93011D02*
X298298Y92909D01*
X332677Y201772D02*
X337598D01*
X298196Y198721D02*
X318799D01*
X321850Y201772D02*
X332677D01*
X318799Y198721D02*
X321850Y201772D01*
X298048Y92864D02*
X298196Y93011D01*
X54362Y92815D02*
X129067D01*
X129116Y92864D01*
X54165Y92618D02*
X54362Y92815D01*
X223323Y92864D02*
X223471Y92716D01*
X129116Y92864D02*
X223323D01*
X223471Y48228D02*
Y86613D01*
X223471Y86613D02*
X223471Y86613D01*
X223619Y92864D02*
X298048D01*
X223471Y92716D02*
X223619Y92864D01*
X298196Y86909D02*
X298235Y86870D01*
X73787Y198721D02*
X148590D01*
X223393D01*
X298196D01*
D35*
X223471Y92716D02*
D03*
Y86613D02*
D03*
X298196Y93011D02*
D03*
Y86909D02*
D03*
Y198721D02*
D03*
Y204823D02*
D03*
X223393Y198721D02*
D03*
Y204823D02*
D03*
X73787Y198721D02*
D03*
Y204823D02*
D03*
X148590Y198721D02*
D03*
Y204823D02*
D03*
X128968Y93011D02*
D03*
Y86909D02*
D03*
X54165Y92618D02*
D03*
Y86516D02*
D03*
D36*
X73260Y162598D02*
D03*
X79362D02*
D03*
D37*
X143886Y23622D02*
D03*
X153886D02*
D03*
Y33622D02*
D03*
X163886Y23622D02*
D03*
Y33622D02*
D03*
X173886Y23622D02*
D03*
Y33622D02*
D03*
X183886Y23622D02*
D03*
Y33622D02*
D03*
X193886Y23622D02*
D03*
Y33622D02*
D03*
X203886Y23622D02*
D03*
Y33622D02*
D03*
X213886Y23622D02*
D03*
Y33622D02*
D03*
X143886Y253937D02*
D03*
X153886D02*
D03*
Y263937D02*
D03*
X163886Y253937D02*
D03*
Y263937D02*
D03*
X173886Y253937D02*
D03*
Y263937D02*
D03*
X183886Y253937D02*
D03*
Y263937D02*
D03*
X193886Y253937D02*
D03*
Y263937D02*
D03*
X203886Y253937D02*
D03*
Y263937D02*
D03*
X213886Y253937D02*
D03*
Y263937D02*
D03*
X329652Y182663D02*
D03*
Y172663D02*
D03*
Y162663D02*
D03*
Y152663D02*
D03*
Y142663D02*
D03*
Y132663D02*
D03*
Y122663D02*
D03*
X19685Y112559D02*
D03*
Y122559D02*
D03*
Y132559D02*
D03*
Y142559D02*
D03*
Y152559D02*
D03*
Y162559D02*
D03*
Y172559D02*
D03*
D38*
X143886Y33622D02*
D03*
Y263937D02*
D03*
D39*
X329652Y112663D02*
D03*
X19685Y182559D02*
D03*
D40*
X17717Y17717D02*
D03*
X333661D02*
D03*
Y268701D02*
D03*
X17717D02*
D03*
D41*
X212063Y137528D02*
D03*
X336000Y252000D02*
D03*
X342000Y240000D02*
D03*
X336000Y228000D02*
D03*
X342000Y216000D02*
D03*
Y96000D02*
D03*
Y72000D02*
D03*
X336000Y60000D02*
D03*
X342000Y48000D02*
D03*
X336000Y36000D02*
D03*
X324000Y252000D02*
D03*
X330000Y240000D02*
D03*
X324000Y228000D02*
D03*
X330000Y216000D02*
D03*
X324000Y156000D02*
D03*
X330000Y72000D02*
D03*
X324000Y60000D02*
D03*
X330000Y48000D02*
D03*
X324000Y36000D02*
D03*
X312000Y276000D02*
D03*
X318000Y264000D02*
D03*
X312000Y252000D02*
D03*
X318000Y240000D02*
D03*
X312000Y228000D02*
D03*
X318000Y216000D02*
D03*
X312000Y156000D02*
D03*
Y108000D02*
D03*
X318000Y72000D02*
D03*
X312000Y60000D02*
D03*
X318000Y48000D02*
D03*
X312000Y36000D02*
D03*
Y12000D02*
D03*
X300000Y276000D02*
D03*
X306000Y264000D02*
D03*
X300000Y252000D02*
D03*
X306000Y240000D02*
D03*
X300000Y228000D02*
D03*
X306000Y192000D02*
D03*
X300000Y156000D02*
D03*
Y108000D02*
D03*
X306000Y48000D02*
D03*
X300000Y36000D02*
D03*
X306000Y24000D02*
D03*
X300000Y12000D02*
D03*
X288000Y276000D02*
D03*
X294000Y264000D02*
D03*
X288000Y252000D02*
D03*
Y228000D02*
D03*
Y108000D02*
D03*
X294000Y24000D02*
D03*
X288000Y12000D02*
D03*
X276000Y276000D02*
D03*
X282000Y264000D02*
D03*
X276000Y252000D02*
D03*
X282000Y240000D02*
D03*
Y192000D02*
D03*
Y168000D02*
D03*
Y72000D02*
D03*
Y24000D02*
D03*
X276000Y12000D02*
D03*
X264000Y276000D02*
D03*
X270000Y264000D02*
D03*
X264000Y252000D02*
D03*
Y228000D02*
D03*
X270000Y216000D02*
D03*
Y168000D02*
D03*
Y72000D02*
D03*
X264000Y60000D02*
D03*
X270000Y24000D02*
D03*
X264000Y12000D02*
D03*
X252000Y276000D02*
D03*
X258000Y264000D02*
D03*
X252000Y228000D02*
D03*
X258000Y216000D02*
D03*
X252000Y204000D02*
D03*
Y108000D02*
D03*
Y84000D02*
D03*
X258000Y72000D02*
D03*
X252000Y60000D02*
D03*
X258000Y24000D02*
D03*
X252000Y12000D02*
D03*
X240000Y276000D02*
D03*
X246000Y264000D02*
D03*
X240000Y228000D02*
D03*
X246000Y216000D02*
D03*
Y192000D02*
D03*
X240000Y180000D02*
D03*
Y108000D02*
D03*
X246000Y72000D02*
D03*
X240000Y60000D02*
D03*
X246000Y24000D02*
D03*
X240000Y12000D02*
D03*
X228000Y276000D02*
D03*
X234000Y264000D02*
D03*
Y192000D02*
D03*
X228000Y180000D02*
D03*
Y108000D02*
D03*
Y60000D02*
D03*
X234000Y24000D02*
D03*
X228000Y12000D02*
D03*
X222000Y264000D02*
D03*
Y192000D02*
D03*
X216000Y180000D02*
D03*
Y108000D02*
D03*
X222000Y24000D02*
D03*
X210000Y216000D02*
D03*
Y192000D02*
D03*
X204000Y180000D02*
D03*
X210000Y72000D02*
D03*
X192000Y276000D02*
D03*
Y228000D02*
D03*
X198000Y216000D02*
D03*
Y72000D02*
D03*
X192000Y60000D02*
D03*
Y12000D02*
D03*
X180000Y276000D02*
D03*
X186000Y240000D02*
D03*
X180000Y228000D02*
D03*
X186000Y216000D02*
D03*
X180000Y204000D02*
D03*
Y180000D02*
D03*
Y108000D02*
D03*
Y84000D02*
D03*
X186000Y72000D02*
D03*
X180000Y60000D02*
D03*
X186000Y48000D02*
D03*
X180000Y12000D02*
D03*
X168000Y276000D02*
D03*
X174000Y240000D02*
D03*
X168000Y228000D02*
D03*
X174000Y216000D02*
D03*
Y192000D02*
D03*
X168000Y180000D02*
D03*
Y108000D02*
D03*
X174000Y72000D02*
D03*
X168000Y60000D02*
D03*
X174000Y48000D02*
D03*
X168000Y12000D02*
D03*
X156000Y276000D02*
D03*
X162000Y192000D02*
D03*
X156000Y180000D02*
D03*
Y156000D02*
D03*
Y108000D02*
D03*
X162000Y72000D02*
D03*
X156000Y12000D02*
D03*
X144000Y276000D02*
D03*
X150000Y192000D02*
D03*
X144000Y180000D02*
D03*
X150000Y72000D02*
D03*
X144000Y12000D02*
D03*
X132000Y276000D02*
D03*
Y252000D02*
D03*
Y228000D02*
D03*
X138000Y216000D02*
D03*
Y192000D02*
D03*
X132000Y180000D02*
D03*
Y156000D02*
D03*
Y108000D02*
D03*
X138000Y72000D02*
D03*
X132000Y60000D02*
D03*
Y12000D02*
D03*
X120000Y276000D02*
D03*
Y252000D02*
D03*
Y228000D02*
D03*
X126000Y216000D02*
D03*
X120000Y156000D02*
D03*
Y108000D02*
D03*
X126000Y72000D02*
D03*
X120000Y12000D02*
D03*
X108000Y276000D02*
D03*
Y252000D02*
D03*
Y228000D02*
D03*
X114000Y216000D02*
D03*
X108000Y180000D02*
D03*
Y156000D02*
D03*
Y108000D02*
D03*
Y84000D02*
D03*
Y60000D02*
D03*
Y12000D02*
D03*
X96000Y276000D02*
D03*
Y252000D02*
D03*
Y228000D02*
D03*
X102000Y216000D02*
D03*
Y192000D02*
D03*
X96000Y180000D02*
D03*
Y108000D02*
D03*
X102000Y72000D02*
D03*
X96000Y60000D02*
D03*
Y12000D02*
D03*
X84000Y276000D02*
D03*
Y252000D02*
D03*
X90000Y72000D02*
D03*
X84000Y12000D02*
D03*
X72000Y276000D02*
D03*
Y252000D02*
D03*
Y228000D02*
D03*
X78000Y216000D02*
D03*
Y192000D02*
D03*
X72000Y108000D02*
D03*
X78000Y72000D02*
D03*
X72000Y60000D02*
D03*
X78000Y48000D02*
D03*
X72000Y12000D02*
D03*
X60000Y276000D02*
D03*
Y228000D02*
D03*
X66000Y216000D02*
D03*
Y192000D02*
D03*
X60000Y12000D02*
D03*
X48000Y276000D02*
D03*
X54000Y264000D02*
D03*
Y216000D02*
D03*
X48000Y156000D02*
D03*
Y108000D02*
D03*
X54000Y72000D02*
D03*
X48000Y60000D02*
D03*
X54000Y24000D02*
D03*
X48000Y12000D02*
D03*
X36000Y276000D02*
D03*
X42000Y264000D02*
D03*
X36000Y252000D02*
D03*
X42000Y216000D02*
D03*
Y96000D02*
D03*
Y48000D02*
D03*
X36000Y36000D02*
D03*
X42000Y24000D02*
D03*
X36000Y12000D02*
D03*
X24000Y252000D02*
D03*
X30000Y240000D02*
D03*
Y96000D02*
D03*
X24000Y84000D02*
D03*
X30000Y72000D02*
D03*
X24000Y60000D02*
D03*
X30000Y48000D02*
D03*
X24000Y36000D02*
D03*
X12000Y252000D02*
D03*
X18000Y240000D02*
D03*
X12000Y228000D02*
D03*
Y84000D02*
D03*
X18000Y72000D02*
D03*
X12000Y60000D02*
D03*
X18000Y48000D02*
D03*
X12000Y36000D02*
D03*
D42*
X332677Y201772D02*
D03*
X328937Y191929D02*
D03*
X336417D02*
D03*
M02*
