G04*
G04 #@! TF.GenerationSoftware,Altium Limited,Altium Designer,24.5.2 (23)*
G04*
G04 Layer_Color=16711935*
%FSLAX25Y25*%
%MOIN*%
G70*
G04*
G04 #@! TF.SameCoordinates,F9E145AB-4376-4A3A-B871-3CA844BA1A44*
G04*
G04*
G04 #@! TF.FilePolarity,Negative*
G04*
G01*
G75*
%ADD25R,0.03740X0.03740*%
%ADD28R,0.03740X0.03740*%
%ADD29C,0.06299*%
%ADD30R,0.06299X0.06299*%
%ADD31R,0.06299X0.06299*%
%ADD43R,0.02756X0.05118*%
D25*
X223471Y92716D02*
D03*
Y86613D02*
D03*
X298196Y93011D02*
D03*
Y86909D02*
D03*
Y198721D02*
D03*
Y204823D02*
D03*
X223393Y198721D02*
D03*
Y204823D02*
D03*
X73787Y198721D02*
D03*
Y204823D02*
D03*
X148590Y198721D02*
D03*
Y204823D02*
D03*
X128968Y93011D02*
D03*
Y86909D02*
D03*
X54165Y92618D02*
D03*
Y86516D02*
D03*
D28*
X73260Y162598D02*
D03*
D29*
X143886Y23622D02*
D03*
X153886D02*
D03*
Y33622D02*
D03*
X163886Y23622D02*
D03*
Y33622D02*
D03*
X173886Y23622D02*
D03*
Y33622D02*
D03*
X183886Y23622D02*
D03*
Y33622D02*
D03*
X193886Y23622D02*
D03*
Y33622D02*
D03*
X203886Y23622D02*
D03*
Y33622D02*
D03*
X213886Y23622D02*
D03*
Y33622D02*
D03*
X143886Y253937D02*
D03*
X153886D02*
D03*
Y263937D02*
D03*
X163886Y253937D02*
D03*
Y263937D02*
D03*
X173886Y253937D02*
D03*
Y263937D02*
D03*
X183886Y253937D02*
D03*
Y263937D02*
D03*
X193886Y253937D02*
D03*
Y263937D02*
D03*
X203886Y253937D02*
D03*
Y263937D02*
D03*
X213886Y253937D02*
D03*
Y263937D02*
D03*
X329652Y182663D02*
D03*
Y172663D02*
D03*
Y162663D02*
D03*
Y152663D02*
D03*
Y142663D02*
D03*
Y132663D02*
D03*
Y122663D02*
D03*
X19685Y112559D02*
D03*
Y122559D02*
D03*
Y132559D02*
D03*
Y142559D02*
D03*
Y152559D02*
D03*
Y162559D02*
D03*
Y172559D02*
D03*
D30*
X143886Y33622D02*
D03*
Y263937D02*
D03*
D31*
X329652Y112663D02*
D03*
X19685Y182559D02*
D03*
D43*
X332677Y201772D02*
D03*
X328937Y191929D02*
D03*
X336417D02*
D03*
M02*
