G04*
G04 #@! TF.GenerationSoftware,Altium Limited,Altium Designer,24.5.2 (23)*
G04*
G04 Layer_Color=8421504*
%FSLAX25Y25*%
%MOIN*%
G70*
G04*
G04 #@! TF.SameCoordinates,F9E145AB-4376-4A3A-B871-3CA844BA1A44*
G04*
G04*
G04 #@! TF.FilePolarity,Positive*
G04*
G01*
G75*
%ADD17R,0.02756X0.06496*%
%ADD18R,0.02362X0.06496*%
%ADD19R,0.02717X0.02913*%
G04:AMPARAMS|DCode=20|XSize=55.51mil|YSize=9.84mil|CornerRadius=0mil|HoleSize=0mil|Usage=FLASHONLY|Rotation=270.000|XOffset=0mil|YOffset=0mil|HoleType=Round|Shape=RoundedRectangle|*
%AMROUNDEDRECTD20*
21,1,0.05551,0.00984,0,0,270.0*
21,1,0.05551,0.00984,0,0,270.0*
1,1,0.00000,-0.00492,-0.02776*
1,1,0.00000,-0.00492,0.02776*
1,1,0.00000,0.00492,0.02776*
1,1,0.00000,0.00492,-0.02776*
%
%ADD20ROUNDEDRECTD20*%
%ADD21R,0.02717X0.02717*%
%ADD22R,0.02717X0.02717*%
D17*
X167788Y153819D02*
D03*
X203182D02*
D03*
X167788Y131575D02*
D03*
X203182D02*
D03*
D18*
X172984Y153819D02*
D03*
X177984D02*
D03*
X182984D02*
D03*
X187984D02*
D03*
X192984D02*
D03*
X197984D02*
D03*
X172984Y131575D02*
D03*
X177984D02*
D03*
X182984D02*
D03*
X187984D02*
D03*
X192984D02*
D03*
X197984D02*
D03*
D19*
X287402Y198819D02*
D03*
Y204724D02*
D03*
X213583Y198819D02*
D03*
Y204724D02*
D03*
X137795Y198819D02*
D03*
Y204724D02*
D03*
X62992Y198819D02*
D03*
Y204724D02*
D03*
X96457Y92520D02*
D03*
Y86614D02*
D03*
X170276Y92520D02*
D03*
Y86614D02*
D03*
X212598Y92520D02*
D03*
Y86614D02*
D03*
X286417Y92520D02*
D03*
Y86614D02*
D03*
X339567Y85630D02*
D03*
Y79724D02*
D03*
D20*
X101778Y131417D02*
D03*
X99219D02*
D03*
X96660D02*
D03*
X94101D02*
D03*
X91542D02*
D03*
X88983D02*
D03*
X86423D02*
D03*
Y154016D02*
D03*
X88983D02*
D03*
X91542D02*
D03*
X94101D02*
D03*
X96660D02*
D03*
X99219D02*
D03*
X101778D02*
D03*
X243404Y156024D02*
D03*
X245963D02*
D03*
X248522D02*
D03*
X251081D02*
D03*
X253640D02*
D03*
X256199D02*
D03*
X258758D02*
D03*
Y133425D02*
D03*
X256199D02*
D03*
X253640D02*
D03*
X251081D02*
D03*
X248522D02*
D03*
X245963D02*
D03*
X243404D02*
D03*
D21*
X324803Y79724D02*
D03*
Y85827D02*
D03*
X286417Y163484D02*
D03*
Y157382D02*
D03*
X274606D02*
D03*
Y163484D02*
D03*
X50000Y198721D02*
D03*
Y204823D02*
D03*
X37402Y198721D02*
D03*
Y204823D02*
D03*
X91535Y207776D02*
D03*
Y201674D02*
D03*
X125787Y204823D02*
D03*
Y198721D02*
D03*
X112205Y204823D02*
D03*
Y198721D02*
D03*
X165354Y207776D02*
D03*
Y201673D02*
D03*
X201240Y204823D02*
D03*
Y198721D02*
D03*
X187992Y204823D02*
D03*
Y198721D02*
D03*
X275394Y204823D02*
D03*
Y198721D02*
D03*
X261811Y204823D02*
D03*
Y198721D02*
D03*
X261811Y86909D02*
D03*
Y93011D02*
D03*
X237205Y85728D02*
D03*
Y79626D02*
D03*
X115157D02*
D03*
Y85728D02*
D03*
X145965Y93011D02*
D03*
Y86909D02*
D03*
X314861Y201673D02*
D03*
Y207776D02*
D03*
X187992Y92716D02*
D03*
Y86613D02*
D03*
X37402Y79626D02*
D03*
Y85728D02*
D03*
X312008Y79626D02*
D03*
Y85728D02*
D03*
X241142Y207776D02*
D03*
Y201674D02*
D03*
X200591Y86613D02*
D03*
Y92716D02*
D03*
X274410Y86909D02*
D03*
Y93011D02*
D03*
X159597Y86909D02*
D03*
Y93011D02*
D03*
X72835Y86516D02*
D03*
X84646D02*
D03*
Y92618D02*
D03*
D22*
X72835D02*
D03*
M02*
