<?xml version="1.0" encoding="UTF-8" standalone="no"?>
<svg
   viewBox="0 0 793.7007874015749 1122.5196850393702"
   width="793.7007874015749"
   height="1122.5196850393702"
   version="1.1"
   id="svg40"
   sodipodi:docname="ZeichnungHalterSeitlichLED.svg"
   inkscape:version="1.3.2 (091e20e, 2023-11-25, custom)"
   xmlns:inkscape="http://www.inkscape.org/namespaces/inkscape"
   xmlns:sodipodi="http://sodipodi.sourceforge.net/DTD/sodipodi-0.dtd"
   xmlns="http://www.w3.org/2000/svg"
   xmlns:svg="http://www.w3.org/2000/svg">
  <sodipodi:namedview
     id="namedview40"
     pagecolor="#505050"
     bordercolor="#eeeeee"
     borderopacity="1"
     inkscape:showpageshadow="0"
     inkscape:pageopacity="0"
     inkscape:pagecheckerboard="0"
     inkscape:deskcolor="#505050"
     inkscape:zoom="2.0485265"
     inkscape:cx="231.87398"
     inkscape:cy="216.00892"
     inkscape:window-width="1920"
     inkscape:window-height="1009"
     inkscape:window-x="-8"
     inkscape:window-y="-8"
     inkscape:window-maximized="1"
     inkscape:current-layer="g40" />
  <desc
     id="desc1">ZeichnungHalterSeitlichLED.dxf - scale = 1.000000, origin = (0.000000, 0.000000), method = file</desc>
  <defs
     id="defs4">
    <marker
       id="DistanceX"
       orient="auto"
       refX="0.0"
       refY="0.0"
       style="overflow:visible">
      <path
         d="M 3,-3 L -3,3 M 0,-5 L  0,5"
         style="stroke:#000000; stroke-width:0.5"
         id="path1" />
    </marker>
    <pattern
       id="Hatch"
       patternUnits="userSpaceOnUse"
       width="8"
       height="8"
       x="0"
       y="0">
      <path
         d="M8 4 l-4,4"
         stroke="#000000"
         stroke-width="0.25"
         linecap="square"
         id="path2" />
      <path
         d="M6 2 l-4,4"
         stroke="#000000"
         stroke-width="0.25"
         linecap="square"
         id="path3" />
      <path
         d="M4 0 l-4,4"
         stroke="#000000"
         stroke-width="0.25"
         linecap="square"
         id="path4" />
    </pattern>
    <symbol
       id="*Model_Space" />
    <symbol
       id="*Paper_Space" />
    <symbol
       id="*Paper_Space0" />
  </defs>
  <g
     inkscape:groupmode="layer"
     inkscape:label="0"
     id="g4" />
  <g
     inkscape:groupmode="layer"
     inkscape:label="Visible"
     id="g40">
    <path
       d="M 216.604758,78.460853 A 5.669291,5.669291 -0.000000 0, 0 205.266176,78.460853 A 5.669291,5.669291 -0.000000 0, 0 216.604758,78.460853 z"
       style="fill:none;stroke:#ff0000"
       id="path5" />
    <path
       style="fill:none;stroke:#ff0000"
       d="M 260.813 120.036 L 260.813 150.272"
       id="path6" />
    <path
       style="fill:none;stroke:#ff0000"
       d="M 215.459 120.036 L 260.813 120.036"
       id="path7" />
    <path
       style="fill:none;stroke:#ff0000"
       d="M 215.459 150.272 L 215.459 120.036"
       id="path8" />
    <path
       style="fill:none;stroke:#ff0000"
       d="M 260.813 150.272 L 215.459 150.272"
       id="path9" />
    <path
       d="M 191.666022,78.460853 A 5.669291,5.669291 -0.000000 0, 0 180.327439,78.460853 A 5.669291,5.669291 -0.000000 0, 0 191.666022,78.460853 z"
       style="fill:none;stroke:#ff0000"
       id="path10" />
    <path
       d="M 241.543495,78.460853 A 5.669291,5.669291 -0.000000 0, 0 230.204912,78.460853 A 5.669291,5.669291 -0.000000 0, 0 241.543495,78.460853 z"
       style="fill:none;stroke:#ff0000"
       id="path11" />
    <path
       d="M 204.135390,135.153766 A 5.669291,5.669291 -0.000000 0, 0 192.796808,135.153766 A 5.669291,5.669291 -0.000000 0, 0 204.135390,135.153766 z"
       style="fill:none;stroke:#ff0000"
       id="path12" />
    <path
       style="fill:none;stroke:#ff0000"
       d="M 181.474 120.036 L 181.474 150.272"
       id="path13" />
    <path
       style="fill:none;stroke:#ff0000"
       d="M 136.119 120.036 L 181.474 120.036"
       id="path14" />
    <path
       style="fill:none;stroke:#ff0000"
       d="M 136.119 150.272 L 136.119 120.036"
       id="path15" />
    <path
       style="fill:none;stroke:#ff0000"
       d="M 181.474 150.272 L 136.119 150.272"
       id="path16" />
    <path
       d="M 166.727286,78.460853 A 5.669291,5.669291 -0.000000 0, 0 155.388703,78.460853 A 5.669291,5.669291 -0.000000 0, 0 166.727286,78.460853 z"
       style="fill:none;stroke:#ff0000"
       id="path17" />
    <path
       d="M 266.482231,78.460853 A 5.669291,5.669291 -0.000000 0, 0 255.143649,78.460853 A 5.669291,5.669291 -0.000000 0, 0 266.482231,78.460853 z"
       style="fill:none;stroke:#ff0000"
       id="path18" />
    <path
       d="M 204.135390,256.098648 A 5.669291,5.669291 -0.000000 0, 0 192.796808,256.098648 A 5.669291,5.669291 -0.000000 0, 0 204.135390,256.098648 z"
       style="fill:none;stroke:#ff0000"
       id="path19" />
    <path
       d="M 141.788549,78.460853 A 5.669291,5.669291 -0.000000 0, 0 130.449967,78.460853 A 5.669291,5.669291 -0.000000 0, 0 141.788549,78.460853 z"
       style="fill:none;stroke:#ff0000"
       id="path20" />
    <path
       style="fill:none;stroke:#0000ff"
       d="M 168.23 630.272 L 168.23 698.303"
       id="path21" />
    <path
       style="fill:none;stroke:#0000ff"
       d="M 160.671 630.272 L 168.23 630.272"
       id="path22" />
    <path
       style="fill:none;stroke:#0000ff"
       d="M 160.671 343.028 L 160.671 630.272"
       id="path23" />
    <path
       style="fill:none;stroke:#0000ff"
       d="M 168.23 343.028 L 160.671 343.028"
       id="path24" />
    <path
       style="fill:none;stroke:#0000ff"
       d="M 168.23 274.996 L 168.23 343.028"
       id="path25" />
    <path
       style="fill:none;stroke:#0000ff"
       d="M 121.001 274.996 L 168.23 274.996"
       id="path26" />
    <path
       style="fill:none;stroke:#0000ff"
       d="M 121.001 104.918 L 121.001 274.996"
       id="path27" />
    <path
       style="fill:none;stroke:#0000ff"
       d="M 198.466 104.918 L 121.001 104.918"
       id="path28" />
    <path
       style="fill:none;stroke:#0000ff"
       d="M 198.466 89.7994 L 198.466 104.918"
       id="path29" />
    <path
       style="fill:none;stroke:#0000ff"
       d="M 121.001 89.7994 L 198.466 89.7994"
       id="path30" />
    <path
       style="fill:none;stroke:#0000ff"
       d="M 121.001 67.1223 L 121.001 89.7994"
       id="path31" />
    <path
       style="fill:none;stroke:#0000ff"
       d="M 275.931 67.1223 L 121.001 67.1223"
       id="path32" />
    <path
       style="fill:none;stroke:#0000ff"
       d="M 275.931 274.996 L 275.931 67.1223"
       id="path33" />
    <path
       style="fill:none;stroke:#0000ff"
       d="M 228.702 274.996 L 275.931 274.996"
       id="path34" />
    <path
       style="fill:none;stroke:#0000ff"
       d="M 228.702 343.028 L 228.702 274.996"
       id="path35" />
    <path
       style="fill:none;stroke:#0000ff"
       d="M 236.261 343.028 L 228.702 343.028"
       id="path36" />
    <path
       style="fill:none;stroke:#0000ff"
       d="M 236.261 630.272 L 236.261 343.028"
       id="path37" />
    <path
       style="fill:none;stroke:#0000ff"
       d="M 228.702 630.272 L 236.261 630.272"
       id="path38" />
    <path
       style="fill:none;stroke:#0000ff"
       d="M 228.702 698.303 L 228.702 630.272"
       id="path39" />
    <path
       style="fill:none;stroke:#0000ff"
       d="M 168.23 698.303 L 228.702 698.303"
       id="path40" />
  </g>
</svg>
