G04*
G04 #@! TF.GenerationSoftware,Altium Limited,Altium Designer,24.5.2 (23)*
G04*
G04 Layer_Color=8388736*
%FSLAX25Y25*%
%MOIN*%
G70*
G04*
G04 #@! TF.SameCoordinates,283EEC4D-0936-4861-99EB-E05453D0A95E*
G04*
G04*
G04 #@! TF.FilePolarity,Negative*
G04*
G01*
G75*
%ADD14C,0.06299*%
%ADD15R,0.06299X0.06299*%
%ADD16R,0.06299X0.06299*%
%ADD17C,0.06378*%
G04:AMPARAMS|DCode=18|XSize=63.78mil|YSize=63.78mil|CornerRadius=16.93mil|HoleSize=0mil|Usage=FLASHONLY|Rotation=270.000|XOffset=0mil|YOffset=0mil|HoleType=Round|Shape=RoundedRectangle|*
%AMROUNDEDRECTD18*
21,1,0.06378,0.02992,0,0,270.0*
21,1,0.02992,0.06378,0,0,270.0*
1,1,0.03386,-0.01496,-0.01496*
1,1,0.03386,-0.01496,0.01496*
1,1,0.03386,0.01496,0.01496*
1,1,0.03386,0.01496,-0.01496*
%
%ADD18ROUNDEDRECTD18*%
D14*
X63504Y255118D02*
D03*
X123740D02*
D03*
X51811Y20709D02*
D03*
X61811D02*
D03*
X161811Y30709D02*
D03*
X151811D02*
D03*
X121811D02*
D03*
X141811Y20709D02*
D03*
X111811Y30709D02*
D03*
X131811Y20709D02*
D03*
X101811Y30709D02*
D03*
X121811Y20709D02*
D03*
X91811Y30709D02*
D03*
X111811Y20709D02*
D03*
X81811Y30709D02*
D03*
X101811Y20709D02*
D03*
X71811Y30709D02*
D03*
X91811Y20709D02*
D03*
X61811Y30709D02*
D03*
X81811Y20709D02*
D03*
X71811D02*
D03*
X131811Y30709D02*
D03*
X141811D02*
D03*
X151811Y20709D02*
D03*
X161811D02*
D03*
X22047Y172835D02*
D03*
Y182835D02*
D03*
Y192835D02*
D03*
Y202835D02*
D03*
Y212835D02*
D03*
Y222835D02*
D03*
Y232835D02*
D03*
X21365Y75245D02*
D03*
Y85245D02*
D03*
Y95245D02*
D03*
Y105245D02*
D03*
Y115245D02*
D03*
Y125245D02*
D03*
Y135245D02*
D03*
D15*
X73504Y255118D02*
D03*
X133740D02*
D03*
X22047Y242835D02*
D03*
X21365Y145245D02*
D03*
D16*
X51811Y30709D02*
D03*
D17*
X164365Y114115D02*
D03*
Y134115D02*
D03*
Y164115D02*
D03*
Y204115D02*
D03*
Y214115D02*
D03*
Y194115D02*
D03*
Y184115D02*
D03*
Y174115D02*
D03*
Y154115D02*
D03*
Y144115D02*
D03*
Y124115D02*
D03*
Y104115D02*
D03*
Y94115D02*
D03*
Y84115D02*
D03*
Y74115D02*
D03*
X64365D02*
D03*
Y84115D02*
D03*
Y94115D02*
D03*
Y104115D02*
D03*
Y124115D02*
D03*
Y144115D02*
D03*
Y154115D02*
D03*
Y174115D02*
D03*
Y184115D02*
D03*
Y194115D02*
D03*
Y214115D02*
D03*
Y204115D02*
D03*
Y164115D02*
D03*
Y134115D02*
D03*
Y114115D02*
D03*
D18*
X164365Y224115D02*
D03*
X64365D02*
D03*
M02*
