M48
;Layer_Color=9474304
;FILE_FORMAT=2:5
INCH,TZ
;TYPE=PLATED
T01F00S00C0.03543
T02F00S00C0.04016
T03F00S00C0.17717
%
T01
X51811Y20709
X61811
Y30709
X71811
X81811
X91811
X101811
X111811
X121811
Y20709
X131811
X141811
Y30709
X151811
Y20709
X131811Y30709
X111811Y20709
X101811
X91811
X81811
X71811
X51811Y30709
X21365Y75245
Y85245
Y95245
Y105245
Y115245
Y125245
Y135245
Y145245
X161811Y30709
Y20709
X133740Y255118
X123740
X73504
X63504
X22047Y242835
Y232835
Y222835
Y212835
Y202835
Y192835
Y182835
Y172835
T02
X64365Y74115
Y84115
Y94115
Y104115
Y114115
Y124115
Y134115
Y144115
Y154115
X164365
Y144115
Y134115
Y124115
Y114115
Y104115
Y94115
Y84115
Y74115
Y164115
Y174115
Y184115
Y194115
Y204115
Y214115
Y224115
X64365
Y214115
Y204115
Y194115
Y184115
Y174115
Y164115
T03
X20866Y20866
X162205Y275197
X20866
M30
