G04*
G04 #@! TF.GenerationSoftware,Altium Limited,Altium Designer,24.5.2 (23)*
G04*
G04 Layer_Physical_Order=2*
G04 Layer_Color=16711680*
%FSLAX25Y25*%
%MOIN*%
G70*
G04*
G04 #@! TF.SameCoordinates,283EEC4D-0936-4861-99EB-E05453D0A95E*
G04*
G04*
G04 #@! TF.FilePolarity,Positive*
G04*
G01*
G75*
%ADD19C,0.01181*%
%ADD20C,0.05906*%
%ADD21R,0.05906X0.05906*%
%ADD22R,0.05906X0.05906*%
%ADD23C,0.05984*%
G04:AMPARAMS|DCode=24|XSize=59.84mil|YSize=59.84mil|CornerRadius=14.96mil|HoleSize=0mil|Usage=FLASHONLY|Rotation=270.000|XOffset=0mil|YOffset=0mil|HoleType=Round|Shape=RoundedRectangle|*
%AMROUNDEDRECTD24*
21,1,0.05984,0.02992,0,0,270.0*
21,1,0.02992,0.05984,0,0,270.0*
1,1,0.02992,-0.01496,-0.01496*
1,1,0.02992,-0.01496,0.01496*
1,1,0.02992,0.01496,0.01496*
1,1,0.02992,0.01496,-0.01496*
%
%ADD24ROUNDEDRECTD24*%
%ADD25C,0.21800*%
G36*
X182268Y803D02*
X803D01*
Y295260D01*
X182268D01*
Y803D01*
D02*
G37*
%LPC*%
G36*
X64504Y258942D02*
Y256118D01*
X67328D01*
X67187Y256644D01*
X66667Y257545D01*
X65931Y258281D01*
X65030Y258802D01*
X64504Y258942D01*
D02*
G37*
G36*
X137693Y259071D02*
X134740D01*
Y256118D01*
X137693D01*
Y259071D01*
D02*
G37*
G36*
X62504Y258942D02*
X61978Y258802D01*
X61077Y258281D01*
X60341Y257545D01*
X59820Y256644D01*
X59680Y256118D01*
X62504D01*
Y258942D01*
D02*
G37*
G36*
X132740Y259071D02*
X129787D01*
Y256118D01*
X132740D01*
Y259071D01*
D02*
G37*
G36*
X124233Y258858D02*
X123248D01*
X122297Y258603D01*
X121444Y258111D01*
X120747Y257415D01*
X120255Y256562D01*
X120000Y255610D01*
Y254626D01*
X120255Y253675D01*
X120747Y252822D01*
X121444Y252125D01*
X122297Y251633D01*
X123248Y251378D01*
X124233D01*
X125184Y251633D01*
X126037Y252125D01*
X126733Y252822D01*
X127225Y253675D01*
X127480Y254626D01*
Y255610D01*
X127225Y256562D01*
X126733Y257415D01*
X126037Y258111D01*
X125184Y258603D01*
X124233Y258858D01*
D02*
G37*
G36*
X77244D02*
X69764D01*
Y251378D01*
X77244D01*
Y258858D01*
D02*
G37*
G36*
X67328Y254118D02*
X64504D01*
Y251294D01*
X65030Y251435D01*
X65931Y251955D01*
X66667Y252691D01*
X67187Y253592D01*
X67328Y254118D01*
D02*
G37*
G36*
X62504D02*
X59680D01*
X59820Y253592D01*
X60341Y252691D01*
X61077Y251955D01*
X61978Y251435D01*
X62504Y251294D01*
Y254118D01*
D02*
G37*
G36*
X137693D02*
X134740D01*
Y251165D01*
X137693D01*
Y254118D01*
D02*
G37*
G36*
X132740D02*
X129787D01*
Y251165D01*
X132740D01*
Y254118D01*
D02*
G37*
G36*
X25787Y246575D02*
X18307D01*
Y239094D01*
X25787D01*
Y246575D01*
D02*
G37*
G36*
X22540Y236575D02*
X21555D01*
X20604Y236320D01*
X19751Y235827D01*
X19054Y235131D01*
X18562Y234278D01*
X18307Y233327D01*
Y232342D01*
X18562Y231391D01*
X19054Y230538D01*
X19751Y229842D01*
X20604Y229349D01*
X21555Y229095D01*
X22540D01*
X23491Y229349D01*
X24344Y229842D01*
X25040Y230538D01*
X25532Y231391D01*
X25787Y232342D01*
Y233327D01*
X25532Y234278D01*
X25040Y235131D01*
X24344Y235827D01*
X23491Y236320D01*
X22540Y236575D01*
D02*
G37*
G36*
X65861Y227939D02*
X62869D01*
X61978Y227762D01*
X61222Y227257D01*
X60718Y226502D01*
X60540Y225611D01*
Y222619D01*
X60718Y221728D01*
X61222Y220972D01*
X61978Y220468D01*
X62869Y220291D01*
X65861D01*
X66752Y220468D01*
X67507Y220972D01*
X68012Y221728D01*
X68189Y222619D01*
Y225611D01*
X68012Y226502D01*
X67507Y227257D01*
X66752Y227762D01*
X65861Y227939D01*
D02*
G37*
G36*
X22540Y226575D02*
X21555D01*
X20604Y226320D01*
X19751Y225828D01*
X19054Y225131D01*
X18562Y224278D01*
X18307Y223327D01*
Y222342D01*
X18562Y221391D01*
X19054Y220538D01*
X19751Y219842D01*
X20604Y219349D01*
X21555Y219094D01*
X22540D01*
X23491Y219349D01*
X24344Y219842D01*
X25040Y220538D01*
X25532Y221391D01*
X25787Y222342D01*
Y223327D01*
X25532Y224278D01*
X25040Y225131D01*
X24344Y225828D01*
X23491Y226320D01*
X22540Y226575D01*
D02*
G37*
G36*
X165365Y217980D02*
Y215115D01*
X168230D01*
X168085Y215656D01*
X167559Y216566D01*
X166816Y217309D01*
X165906Y217835D01*
X165365Y217980D01*
D02*
G37*
G36*
X65365D02*
Y215115D01*
X68230D01*
X68085Y215656D01*
X67559Y216566D01*
X66816Y217309D01*
X65906Y217835D01*
X65365Y217980D01*
D02*
G37*
G36*
X163365D02*
X162824Y217835D01*
X161914Y217309D01*
X161170Y216566D01*
X160645Y215656D01*
X160500Y215115D01*
X163365D01*
Y217980D01*
D02*
G37*
G36*
X63365D02*
X62824Y217835D01*
X61914Y217309D01*
X61170Y216566D01*
X60645Y215656D01*
X60500Y215115D01*
X63365D01*
Y217980D01*
D02*
G37*
G36*
X23047Y216659D02*
Y213835D01*
X25872D01*
X25731Y214360D01*
X25210Y215262D01*
X24474Y215998D01*
X23573Y216518D01*
X23047Y216659D01*
D02*
G37*
G36*
X21047D02*
X20522Y216518D01*
X19620Y215998D01*
X18884Y215262D01*
X18364Y214360D01*
X18223Y213835D01*
X21047D01*
Y216659D01*
D02*
G37*
G36*
X168230Y213115D02*
X165365D01*
Y210250D01*
X165906Y210395D01*
X166816Y210920D01*
X167559Y211664D01*
X168085Y212574D01*
X168230Y213115D01*
D02*
G37*
G36*
X68230D02*
X65365D01*
Y210250D01*
X65906Y210395D01*
X66816Y210920D01*
X67559Y211664D01*
X68085Y212574D01*
X68230Y213115D01*
D02*
G37*
G36*
X163365D02*
X160500D01*
X160645Y212574D01*
X161170Y211664D01*
X161914Y210920D01*
X162824Y210395D01*
X163365Y210250D01*
Y213115D01*
D02*
G37*
G36*
X63365D02*
X60500D01*
X60645Y212574D01*
X61170Y211664D01*
X61914Y210920D01*
X62824Y210395D01*
X63365Y210250D01*
Y213115D01*
D02*
G37*
G36*
X25872Y211835D02*
X23047D01*
Y209010D01*
X23573Y209151D01*
X24474Y209672D01*
X25210Y210408D01*
X25731Y211309D01*
X25872Y211835D01*
D02*
G37*
G36*
X21047D02*
X18223D01*
X18364Y211309D01*
X18884Y210408D01*
X19620Y209672D01*
X20522Y209151D01*
X21047Y209010D01*
Y211835D01*
D02*
G37*
G36*
X164862Y207894D02*
X163867D01*
X162906Y207637D01*
X162044Y207139D01*
X161340Y206435D01*
X160843Y205574D01*
X160585Y204612D01*
Y203617D01*
X160843Y202656D01*
X160871Y202608D01*
X73810Y115547D01*
X73505Y115091D01*
X73398Y114553D01*
Y54125D01*
X55975Y36702D01*
X55670Y36246D01*
X55563Y35709D01*
Y35231D01*
X55551Y34449D01*
X54776Y34449D01*
X48071D01*
Y26969D01*
X54970D01*
X55297Y26181D01*
X53289Y24174D01*
X53255Y24194D01*
X52303Y24449D01*
X51319D01*
X50367Y24194D01*
X49514Y23701D01*
X48818Y23005D01*
X48326Y22152D01*
X48071Y21201D01*
Y20216D01*
X48326Y19265D01*
X48818Y18412D01*
X49514Y17716D01*
X50367Y17223D01*
X51319Y16969D01*
X52303D01*
X53255Y17223D01*
X54107Y17716D01*
X54804Y18412D01*
X55296Y19265D01*
X55551Y20216D01*
Y21201D01*
X55296Y22152D01*
X55276Y22187D01*
X57962Y24873D01*
X58267Y25328D01*
X58373Y25866D01*
Y27743D01*
X59161Y28069D01*
X59514Y27716D01*
X60367Y27223D01*
X61319Y26969D01*
X62303D01*
X63255Y27223D01*
X64108Y27716D01*
X64776Y28384D01*
X64904Y28378D01*
X65563Y28153D01*
Y26448D01*
X63289Y24174D01*
X63255Y24194D01*
X62303Y24449D01*
X61319D01*
X60367Y24194D01*
X59514Y23701D01*
X58818Y23005D01*
X58326Y22152D01*
X58071Y21201D01*
Y20216D01*
X58326Y19265D01*
X58818Y18412D01*
X59514Y17716D01*
X60367Y17223D01*
X61319Y16969D01*
X62303D01*
X63255Y17223D01*
X64108Y17716D01*
X64804Y18412D01*
X65296Y19265D01*
X65551Y20216D01*
Y21201D01*
X65296Y22152D01*
X65276Y22187D01*
X67962Y24873D01*
X68266Y25328D01*
X68374Y25866D01*
Y27743D01*
X69161Y28069D01*
X69515Y27716D01*
X70367Y27223D01*
X71319Y26969D01*
X72303D01*
X73255Y27223D01*
X74107Y27716D01*
X74776Y28384D01*
X74904Y28378D01*
X75564Y28153D01*
Y26448D01*
X73289Y24174D01*
X73255Y24194D01*
X72303Y24449D01*
X71319D01*
X70367Y24194D01*
X69515Y23701D01*
X68818Y23005D01*
X68326Y22152D01*
X68071Y21201D01*
Y20216D01*
X68326Y19265D01*
X68818Y18412D01*
X69515Y17716D01*
X70367Y17223D01*
X71319Y16969D01*
X72303D01*
X73255Y17223D01*
X74107Y17716D01*
X74804Y18412D01*
X75296Y19265D01*
X75551Y20216D01*
Y21201D01*
X75296Y22152D01*
X75276Y22187D01*
X77962Y24873D01*
X78267Y25328D01*
X78373Y25866D01*
Y27743D01*
X79161Y28069D01*
X79514Y27716D01*
X80367Y27223D01*
X81319Y26969D01*
X82303D01*
X83255Y27223D01*
X84108Y27716D01*
X84776Y28384D01*
X84904Y28378D01*
X85563Y28153D01*
Y26448D01*
X83289Y24174D01*
X83255Y24194D01*
X82303Y24449D01*
X81319D01*
X80367Y24194D01*
X79514Y23701D01*
X78818Y23005D01*
X78326Y22152D01*
X78071Y21201D01*
Y20216D01*
X78326Y19265D01*
X78818Y18412D01*
X79514Y17716D01*
X80367Y17223D01*
X81319Y16969D01*
X82303D01*
X83255Y17223D01*
X84108Y17716D01*
X84804Y18412D01*
X85296Y19265D01*
X85551Y20216D01*
Y21201D01*
X85296Y22152D01*
X85276Y22187D01*
X87962Y24873D01*
X88266Y25328D01*
X88374Y25866D01*
Y27743D01*
X89161Y28069D01*
X89514Y27716D01*
X90367Y27223D01*
X91319Y26969D01*
X92303D01*
X93255Y27223D01*
X94108Y27716D01*
X94776Y28384D01*
X94904Y28378D01*
X95564Y28153D01*
Y26448D01*
X93289Y24174D01*
X93255Y24194D01*
X92303Y24449D01*
X91319D01*
X90367Y24194D01*
X89514Y23701D01*
X88818Y23005D01*
X88326Y22152D01*
X88071Y21201D01*
Y20216D01*
X88326Y19265D01*
X88818Y18412D01*
X89514Y17716D01*
X90367Y17223D01*
X91319Y16969D01*
X92303D01*
X93255Y17223D01*
X94108Y17716D01*
X94804Y18412D01*
X95296Y19265D01*
X95551Y20216D01*
Y21201D01*
X95296Y22152D01*
X95276Y22187D01*
X97962Y24873D01*
X98267Y25328D01*
X98374Y25866D01*
Y27743D01*
X99161Y28069D01*
X99515Y27716D01*
X100367Y27223D01*
X101319Y26969D01*
X102303D01*
X103255Y27223D01*
X104107Y27716D01*
X104776Y28384D01*
X104904Y28378D01*
X105564Y28153D01*
Y26448D01*
X103289Y24174D01*
X103255Y24194D01*
X102303Y24449D01*
X101319D01*
X100367Y24194D01*
X99515Y23701D01*
X98818Y23005D01*
X98326Y22152D01*
X98071Y21201D01*
Y20216D01*
X98326Y19265D01*
X98818Y18412D01*
X99515Y17716D01*
X100367Y17223D01*
X101319Y16969D01*
X102303D01*
X103255Y17223D01*
X104107Y17716D01*
X104804Y18412D01*
X105296Y19265D01*
X105551Y20216D01*
Y21201D01*
X105296Y22152D01*
X105276Y22187D01*
X107962Y24873D01*
X108266Y25328D01*
X108373Y25866D01*
Y27743D01*
X109161Y28069D01*
X109514Y27716D01*
X110367Y27223D01*
X111319Y26969D01*
X112303D01*
X113255Y27223D01*
X114108Y27716D01*
X114776Y28384D01*
X114904Y28378D01*
X115564Y28153D01*
Y26448D01*
X113289Y24174D01*
X113255Y24194D01*
X112303Y24449D01*
X111319D01*
X110367Y24194D01*
X109514Y23701D01*
X108818Y23005D01*
X108326Y22152D01*
X108071Y21201D01*
Y20216D01*
X108326Y19265D01*
X108818Y18412D01*
X109514Y17716D01*
X110367Y17223D01*
X111319Y16969D01*
X112303D01*
X113255Y17223D01*
X114108Y17716D01*
X114804Y18412D01*
X115296Y19265D01*
X115551Y20216D01*
Y21201D01*
X115296Y22152D01*
X115276Y22187D01*
X117962Y24873D01*
X118266Y25328D01*
X118374Y25866D01*
Y27743D01*
X119161Y28069D01*
X119515Y27716D01*
X120367Y27223D01*
X121319Y26969D01*
X122303D01*
X123255Y27223D01*
X124108Y27716D01*
X124776Y28384D01*
X124904Y28378D01*
X125564Y28153D01*
Y26448D01*
X123289Y24174D01*
X123255Y24194D01*
X122303Y24449D01*
X121319D01*
X120367Y24194D01*
X119515Y23701D01*
X118818Y23005D01*
X118326Y22152D01*
X118071Y21201D01*
Y20216D01*
X118326Y19265D01*
X118818Y18412D01*
X119515Y17716D01*
X120367Y17223D01*
X121319Y16969D01*
X122303D01*
X123255Y17223D01*
X124108Y17716D01*
X124804Y18412D01*
X125296Y19265D01*
X125551Y20216D01*
Y21201D01*
X125296Y22152D01*
X125276Y22187D01*
X127962Y24873D01*
X128267Y25328D01*
X128374Y25866D01*
Y27743D01*
X129161Y28069D01*
X129515Y27716D01*
X130367Y27223D01*
X131319Y26969D01*
X132303D01*
X133255Y27223D01*
X134107Y27716D01*
X134776Y28384D01*
X134904Y28378D01*
X135564Y28153D01*
Y26448D01*
X133289Y24174D01*
X133255Y24194D01*
X132303Y24449D01*
X131319D01*
X130367Y24194D01*
X129515Y23701D01*
X128818Y23005D01*
X128326Y22152D01*
X128071Y21201D01*
Y20216D01*
X128326Y19265D01*
X128818Y18412D01*
X129515Y17716D01*
X130367Y17223D01*
X131319Y16969D01*
X132303D01*
X133255Y17223D01*
X134107Y17716D01*
X134804Y18412D01*
X135296Y19265D01*
X135551Y20216D01*
Y21201D01*
X135296Y22152D01*
X135276Y22187D01*
X137962Y24873D01*
X138267Y25328D01*
X138373Y25866D01*
Y27443D01*
X139161Y27769D01*
X139384Y27546D01*
X140285Y27025D01*
X140811Y26884D01*
Y30709D01*
Y34533D01*
X140285Y34392D01*
X139384Y33872D01*
X139161Y33648D01*
X138373Y33975D01*
Y86137D01*
X162857Y110621D01*
X162906Y110593D01*
X163867Y110335D01*
X164862D01*
X165823Y110593D01*
X166685Y111091D01*
X167389Y111794D01*
X167887Y112656D01*
X168144Y113617D01*
Y114612D01*
X167887Y115574D01*
X167389Y116436D01*
X166685Y117139D01*
X165823Y117637D01*
X164862Y117894D01*
X163867D01*
X162906Y117637D01*
X162044Y117139D01*
X161340Y116436D01*
X160843Y115574D01*
X160585Y114612D01*
Y113617D01*
X160843Y112656D01*
X160871Y112608D01*
X135975Y87712D01*
X135670Y87256D01*
X135564Y86719D01*
Y33264D01*
X134904Y33039D01*
X134776Y33033D01*
X134107Y33702D01*
X133255Y34194D01*
X132303Y34449D01*
X131319D01*
X130367Y34194D01*
X129515Y33702D01*
X129161Y33348D01*
X128374Y33674D01*
Y86137D01*
X162857Y120621D01*
X162906Y120593D01*
X163867Y120335D01*
X164862D01*
X165823Y120593D01*
X166685Y121090D01*
X167389Y121794D01*
X167887Y122656D01*
X168144Y123617D01*
Y124612D01*
X167887Y125574D01*
X167389Y126435D01*
X166685Y127139D01*
X165823Y127637D01*
X164862Y127894D01*
X163867D01*
X162906Y127637D01*
X162044Y127139D01*
X161340Y126435D01*
X160843Y125574D01*
X160585Y124612D01*
Y123617D01*
X160843Y122656D01*
X160871Y122608D01*
X125975Y87712D01*
X125671Y87256D01*
X125564Y86719D01*
Y33264D01*
X124904Y33039D01*
X124776Y33033D01*
X124108Y33702D01*
X123255Y34194D01*
X122303Y34449D01*
X121319D01*
X120367Y34194D01*
X119515Y33702D01*
X119161Y33348D01*
X118374Y33674D01*
Y96137D01*
X162857Y140621D01*
X162906Y140593D01*
X163867Y140335D01*
X164862D01*
X165823Y140593D01*
X166685Y141091D01*
X167389Y141794D01*
X167887Y142656D01*
X168144Y143617D01*
Y144612D01*
X167887Y145574D01*
X167389Y146435D01*
X166685Y147139D01*
X165823Y147637D01*
X164862Y147894D01*
X163867D01*
X162906Y147637D01*
X162044Y147139D01*
X161340Y146435D01*
X160843Y145574D01*
X160585Y144612D01*
Y143617D01*
X160843Y142656D01*
X160871Y142608D01*
X115975Y97712D01*
X115671Y97256D01*
X115564Y96719D01*
Y33264D01*
X114904Y33039D01*
X114776Y33033D01*
X114108Y33702D01*
X113255Y34194D01*
X112303Y34449D01*
X111319D01*
X110367Y34194D01*
X109514Y33702D01*
X109161Y33348D01*
X108373Y33674D01*
Y96137D01*
X162857Y150621D01*
X162906Y150593D01*
X163867Y150335D01*
X164862D01*
X165823Y150593D01*
X166685Y151091D01*
X167389Y151794D01*
X167887Y152656D01*
X168144Y153617D01*
Y154612D01*
X167887Y155574D01*
X167389Y156436D01*
X166685Y157139D01*
X165823Y157637D01*
X164862Y157894D01*
X163867D01*
X162906Y157637D01*
X162044Y157139D01*
X161340Y156436D01*
X160843Y155574D01*
X160585Y154612D01*
Y153617D01*
X160843Y152656D01*
X160871Y152608D01*
X105975Y97712D01*
X105670Y97256D01*
X105564Y96719D01*
Y33264D01*
X104904Y33039D01*
X104776Y33033D01*
X104107Y33702D01*
X103255Y34194D01*
X102303Y34449D01*
X101319D01*
X100367Y34194D01*
X99515Y33702D01*
X99161Y33348D01*
X98374Y33674D01*
Y96137D01*
X162857Y160621D01*
X162906Y160593D01*
X163867Y160335D01*
X164862D01*
X165823Y160593D01*
X166685Y161091D01*
X167389Y161794D01*
X167887Y162656D01*
X168144Y163617D01*
Y164612D01*
X167887Y165574D01*
X167389Y166436D01*
X166685Y167139D01*
X165823Y167637D01*
X164862Y167894D01*
X163867D01*
X162906Y167637D01*
X162044Y167139D01*
X161340Y166436D01*
X160843Y165574D01*
X160585Y164612D01*
Y163617D01*
X160843Y162656D01*
X160871Y162608D01*
X95975Y97712D01*
X95670Y97256D01*
X95564Y96719D01*
Y33264D01*
X94904Y33039D01*
X94776Y33033D01*
X94108Y33702D01*
X93255Y34194D01*
X92303Y34449D01*
X91319D01*
X90367Y34194D01*
X89514Y33702D01*
X89161Y33348D01*
X88374Y33674D01*
Y35206D01*
X92726Y39558D01*
X93030Y40014D01*
X93137Y40551D01*
Y100900D01*
X162857Y170621D01*
X162906Y170593D01*
X163867Y170335D01*
X164862D01*
X165823Y170593D01*
X166685Y171090D01*
X167389Y171794D01*
X167887Y172656D01*
X168144Y173617D01*
Y174612D01*
X167887Y175574D01*
X167389Y176435D01*
X166685Y177139D01*
X165823Y177637D01*
X164862Y177894D01*
X163867D01*
X162906Y177637D01*
X162044Y177139D01*
X161340Y176435D01*
X160843Y175574D01*
X160585Y174612D01*
Y173617D01*
X160843Y172656D01*
X160871Y172608D01*
X90739Y102476D01*
X90434Y102020D01*
X90327Y101482D01*
Y41133D01*
X85975Y36781D01*
X85671Y36325D01*
X85563Y35787D01*
Y33264D01*
X84904Y33039D01*
X84776Y33033D01*
X84108Y33702D01*
X83255Y34194D01*
X82303Y34449D01*
X81319D01*
X80367Y34194D01*
X79514Y33702D01*
X79161Y33348D01*
X78373Y33674D01*
Y35835D01*
X86427Y43888D01*
X86731Y44344D01*
X86838Y44882D01*
Y104601D01*
X162857Y180621D01*
X162906Y180593D01*
X163867Y180335D01*
X164862D01*
X165823Y180593D01*
X166685Y181090D01*
X167389Y181794D01*
X167887Y182656D01*
X168144Y183617D01*
Y184612D01*
X167887Y185574D01*
X167389Y186435D01*
X166685Y187139D01*
X165823Y187637D01*
X164862Y187894D01*
X163867D01*
X162906Y187637D01*
X162044Y187139D01*
X161340Y186435D01*
X160843Y185574D01*
X160585Y184612D01*
Y183617D01*
X160843Y182656D01*
X160871Y182608D01*
X84440Y106177D01*
X84135Y105721D01*
X84028Y105183D01*
Y45464D01*
X75975Y37411D01*
X75670Y36955D01*
X75564Y36417D01*
Y33264D01*
X74904Y33039D01*
X74776Y33033D01*
X74107Y33702D01*
X73255Y34194D01*
X72303Y34449D01*
X71319D01*
X70367Y34194D01*
X69515Y33702D01*
X69161Y33348D01*
X68374Y33674D01*
Y35284D01*
X80915Y47826D01*
X81219Y48281D01*
X81326Y48819D01*
Y109090D01*
X162857Y190621D01*
X162906Y190593D01*
X163867Y190335D01*
X164862D01*
X165823Y190593D01*
X166685Y191091D01*
X167389Y191794D01*
X167887Y192656D01*
X168144Y193617D01*
Y194612D01*
X167887Y195574D01*
X167389Y196435D01*
X166685Y197139D01*
X165823Y197637D01*
X164862Y197894D01*
X163867D01*
X162906Y197637D01*
X162044Y197139D01*
X161340Y196435D01*
X160843Y195574D01*
X160585Y194612D01*
Y193617D01*
X160843Y192656D01*
X160871Y192608D01*
X78928Y110665D01*
X78623Y110209D01*
X78516Y109671D01*
Y49401D01*
X65975Y36860D01*
X65671Y36404D01*
X65563Y35866D01*
Y33264D01*
X64904Y33039D01*
X64776Y33033D01*
X64108Y33702D01*
X63255Y34194D01*
X62303Y34449D01*
X61319D01*
X60367Y34194D01*
X59514Y33702D01*
X59161Y33348D01*
X58373Y33674D01*
Y35127D01*
X75797Y52550D01*
X76101Y53006D01*
X76208Y53543D01*
Y113971D01*
X162857Y200621D01*
X162906Y200593D01*
X163867Y200335D01*
X164862D01*
X165823Y200593D01*
X166685Y201091D01*
X167389Y201794D01*
X167887Y202656D01*
X168144Y203617D01*
Y204612D01*
X167887Y205574D01*
X167389Y206435D01*
X166685Y207139D01*
X165823Y207637D01*
X164862Y207894D01*
D02*
G37*
G36*
X64862D02*
X63867D01*
X62906Y207637D01*
X62044Y207139D01*
X61340Y206435D01*
X60843Y205574D01*
X60585Y204612D01*
Y203617D01*
X60843Y202656D01*
X61340Y201794D01*
X62044Y201091D01*
X62906Y200593D01*
X63867Y200335D01*
X64862D01*
X65824Y200593D01*
X66685Y201091D01*
X67389Y201794D01*
X67887Y202656D01*
X68144Y203617D01*
Y204612D01*
X67887Y205574D01*
X67389Y206435D01*
X66685Y207139D01*
X65824Y207637D01*
X64862Y207894D01*
D02*
G37*
G36*
X22540Y206575D02*
X21555D01*
X20604Y206320D01*
X19751Y205827D01*
X19054Y205131D01*
X18562Y204278D01*
X18307Y203327D01*
Y202342D01*
X18562Y201391D01*
X19054Y200538D01*
X19751Y199842D01*
X20604Y199349D01*
X21555Y199094D01*
X22540D01*
X23491Y199349D01*
X24344Y199842D01*
X25040Y200538D01*
X25532Y201391D01*
X25787Y202342D01*
Y203327D01*
X25532Y204278D01*
X25040Y205131D01*
X24344Y205827D01*
X23491Y206320D01*
X22540Y206575D01*
D02*
G37*
G36*
X64862Y197894D02*
X63867D01*
X62906Y197637D01*
X62044Y197139D01*
X61340Y196435D01*
X60843Y195574D01*
X60585Y194612D01*
Y193617D01*
X60843Y192656D01*
X61340Y191794D01*
X62044Y191091D01*
X62906Y190593D01*
X63867Y190335D01*
X64862D01*
X65824Y190593D01*
X66685Y191091D01*
X67389Y191794D01*
X67887Y192656D01*
X68144Y193617D01*
Y194612D01*
X67887Y195574D01*
X67389Y196435D01*
X66685Y197139D01*
X65824Y197637D01*
X64862Y197894D01*
D02*
G37*
G36*
X22540Y196575D02*
X21555D01*
X20604Y196320D01*
X19751Y195827D01*
X19054Y195131D01*
X18562Y194278D01*
X18307Y193327D01*
Y192342D01*
X18562Y191391D01*
X19054Y190538D01*
X19751Y189842D01*
X20604Y189349D01*
X21555Y189094D01*
X22540D01*
X23491Y189349D01*
X24344Y189842D01*
X25040Y190538D01*
X25532Y191391D01*
X25787Y192342D01*
Y193327D01*
X25532Y194278D01*
X25040Y195131D01*
X24344Y195827D01*
X23491Y196320D01*
X22540Y196575D01*
D02*
G37*
G36*
X64862Y187894D02*
X63867D01*
X62906Y187637D01*
X62044Y187139D01*
X61340Y186435D01*
X60843Y185574D01*
X60585Y184612D01*
Y183617D01*
X60843Y182656D01*
X61340Y181794D01*
X62044Y181090D01*
X62906Y180593D01*
X63867Y180335D01*
X64862D01*
X65824Y180593D01*
X66685Y181090D01*
X67389Y181794D01*
X67887Y182656D01*
X68144Y183617D01*
Y184612D01*
X67887Y185574D01*
X67389Y186435D01*
X66685Y187139D01*
X65824Y187637D01*
X64862Y187894D01*
D02*
G37*
G36*
X22540Y186575D02*
X21555D01*
X20604Y186320D01*
X19751Y185828D01*
X19054Y185131D01*
X18562Y184278D01*
X18307Y183327D01*
Y182342D01*
X18562Y181391D01*
X19054Y180538D01*
X19751Y179842D01*
X20604Y179349D01*
X21555Y179095D01*
X22540D01*
X23491Y179349D01*
X24344Y179842D01*
X25040Y180538D01*
X25532Y181391D01*
X25787Y182342D01*
Y183327D01*
X25532Y184278D01*
X25040Y185131D01*
X24344Y185828D01*
X23491Y186320D01*
X22540Y186575D01*
D02*
G37*
G36*
X64862Y177894D02*
X63867D01*
X62906Y177637D01*
X62044Y177139D01*
X61340Y176435D01*
X60843Y175574D01*
X60585Y174612D01*
Y173617D01*
X60843Y172656D01*
X61340Y171794D01*
X62044Y171090D01*
X62906Y170593D01*
X63867Y170335D01*
X64862D01*
X65824Y170593D01*
X66685Y171090D01*
X67389Y171794D01*
X67887Y172656D01*
X68144Y173617D01*
Y174612D01*
X67887Y175574D01*
X67389Y176435D01*
X66685Y177139D01*
X65824Y177637D01*
X64862Y177894D01*
D02*
G37*
G36*
X22540Y176575D02*
X21555D01*
X20604Y176320D01*
X19751Y175828D01*
X19054Y175131D01*
X18562Y174278D01*
X18307Y173327D01*
Y172342D01*
X18562Y171391D01*
X19054Y170538D01*
X19751Y169842D01*
X20604Y169349D01*
X21555Y169095D01*
X22540D01*
X23491Y169349D01*
X24344Y169842D01*
X25040Y170538D01*
X25532Y171391D01*
X25787Y172342D01*
Y173327D01*
X25532Y174278D01*
X25040Y175131D01*
X24344Y175828D01*
X23491Y176320D01*
X22540Y176575D01*
D02*
G37*
G36*
X64862Y167894D02*
X63867D01*
X62906Y167637D01*
X62044Y167139D01*
X61340Y166436D01*
X60843Y165574D01*
X60585Y164612D01*
Y163617D01*
X60843Y162656D01*
X61340Y161794D01*
X62044Y161091D01*
X62906Y160593D01*
X63867Y160335D01*
X64862D01*
X65824Y160593D01*
X66685Y161091D01*
X67389Y161794D01*
X67887Y162656D01*
X68144Y163617D01*
Y164612D01*
X67887Y165574D01*
X67389Y166436D01*
X66685Y167139D01*
X65824Y167637D01*
X64862Y167894D01*
D02*
G37*
G36*
Y157894D02*
X63867D01*
X62906Y157637D01*
X62044Y157139D01*
X61340Y156436D01*
X60843Y155574D01*
X60585Y154612D01*
Y153617D01*
X60843Y152656D01*
X61340Y151794D01*
X62044Y151091D01*
X62906Y150593D01*
X63867Y150335D01*
X64862D01*
X65824Y150593D01*
X66685Y151091D01*
X67389Y151794D01*
X67887Y152656D01*
X68144Y153617D01*
Y154612D01*
X67887Y155574D01*
X67389Y156436D01*
X66685Y157139D01*
X65824Y157637D01*
X64862Y157894D01*
D02*
G37*
G36*
X25105Y148985D02*
X17625D01*
Y141505D01*
X25105D01*
Y148985D01*
D02*
G37*
G36*
X64862Y147894D02*
X63867D01*
X62906Y147637D01*
X62044Y147139D01*
X61340Y146435D01*
X60843Y145574D01*
X60585Y144612D01*
Y143617D01*
X60843Y142656D01*
X60871Y142608D01*
X46730Y128467D01*
X46425Y128011D01*
X46318Y127473D01*
Y112186D01*
X22843Y88710D01*
X22808Y88730D01*
X21857Y88985D01*
X20872D01*
X19921Y88730D01*
X19068Y88238D01*
X18372Y87541D01*
X17879Y86689D01*
X17625Y85737D01*
Y84753D01*
X17879Y83801D01*
X18372Y82948D01*
X19068Y82252D01*
X19921Y81760D01*
X20872Y81505D01*
X21857D01*
X22808Y81760D01*
X23661Y82252D01*
X24358Y82948D01*
X24850Y83801D01*
X25105Y84753D01*
Y85737D01*
X24850Y86689D01*
X24830Y86723D01*
X48717Y110610D01*
X49021Y111066D01*
X49128Y111603D01*
Y126892D01*
X62858Y140621D01*
X62906Y140593D01*
X63867Y140335D01*
X64862D01*
X65824Y140593D01*
X66685Y141091D01*
X67389Y141794D01*
X67887Y142656D01*
X68144Y143617D01*
Y144612D01*
X67887Y145574D01*
X67389Y146435D01*
X66685Y147139D01*
X65824Y147637D01*
X64862Y147894D01*
D02*
G37*
G36*
X21857Y138985D02*
X20872D01*
X19921Y138730D01*
X19068Y138238D01*
X18372Y137541D01*
X17879Y136688D01*
X17625Y135737D01*
Y134753D01*
X17879Y133801D01*
X17899Y133766D01*
X11605Y127472D01*
X11300Y127016D01*
X11193Y126479D01*
Y74410D01*
X11300Y73872D01*
X11605Y73416D01*
X15612Y69409D01*
X16068Y69104D01*
X16605Y68997D01*
X29356D01*
X29893Y69104D01*
X30349Y69409D01*
X53650Y92710D01*
X60828D01*
X60843Y92656D01*
X61340Y91794D01*
X62044Y91091D01*
X62906Y90593D01*
X63867Y90335D01*
X64862D01*
X65824Y90593D01*
X66685Y91091D01*
X67389Y91794D01*
X67887Y92656D01*
X68144Y93617D01*
Y94612D01*
X67887Y95574D01*
X67389Y96435D01*
X66685Y97139D01*
X65824Y97637D01*
X64862Y97894D01*
X63867D01*
X62906Y97637D01*
X62044Y97139D01*
X61340Y96435D01*
X60843Y95574D01*
X60828Y95520D01*
X53068D01*
X52530Y95413D01*
X52075Y95108D01*
X28774Y71807D01*
X24330D01*
X24004Y72595D01*
X24358Y72948D01*
X24850Y73801D01*
X25105Y74752D01*
Y75737D01*
X24850Y76688D01*
X24358Y77541D01*
X23661Y78238D01*
X22808Y78730D01*
X21857Y78985D01*
X20872D01*
X19921Y78730D01*
X19068Y78238D01*
X18372Y77541D01*
X17879Y76688D01*
X17625Y75737D01*
Y74752D01*
X17879Y73801D01*
X18372Y72948D01*
X18725Y72595D01*
X18399Y71807D01*
X17188D01*
X14003Y74991D01*
Y125897D01*
X19886Y131780D01*
X19921Y131760D01*
X20872Y131505D01*
X21857D01*
X22808Y131760D01*
X23661Y132252D01*
X24358Y132948D01*
X24850Y133801D01*
X25105Y134753D01*
Y135737D01*
X24850Y136688D01*
X24358Y137541D01*
X23661Y138238D01*
X22808Y138730D01*
X21857Y138985D01*
D02*
G37*
G36*
X164862Y137894D02*
X163867D01*
X162906Y137637D01*
X162044Y137139D01*
X161340Y136435D01*
X160843Y135574D01*
X160585Y134612D01*
Y133617D01*
X160843Y132656D01*
X161340Y131794D01*
X162044Y131090D01*
X162906Y130593D01*
X163867Y130335D01*
X164862D01*
X165823Y130593D01*
X166685Y131090D01*
X167389Y131794D01*
X167887Y132656D01*
X168144Y133617D01*
Y134612D01*
X167887Y135574D01*
X167389Y136435D01*
X166685Y137139D01*
X165823Y137637D01*
X164862Y137894D01*
D02*
G37*
G36*
X64862D02*
X63867D01*
X62906Y137637D01*
X62044Y137139D01*
X61340Y136435D01*
X60843Y135574D01*
X60585Y134612D01*
Y133617D01*
X60843Y132656D01*
X61340Y131794D01*
X62044Y131090D01*
X62906Y130593D01*
X63867Y130335D01*
X64862D01*
X65824Y130593D01*
X66685Y131090D01*
X67389Y131794D01*
X67887Y132656D01*
X68144Y133617D01*
Y134612D01*
X67887Y135574D01*
X67389Y136435D01*
X66685Y137139D01*
X65824Y137637D01*
X64862Y137894D01*
D02*
G37*
G36*
X22365Y129069D02*
Y126245D01*
X25189D01*
X25048Y126771D01*
X24528Y127672D01*
X23792Y128408D01*
X22890Y128928D01*
X22365Y129069D01*
D02*
G37*
G36*
X20365D02*
X19839Y128928D01*
X18938Y128408D01*
X18202Y127672D01*
X17681Y126771D01*
X17540Y126245D01*
X20365D01*
Y129069D01*
D02*
G37*
G36*
X25189Y124245D02*
X22365D01*
Y121421D01*
X22890Y121562D01*
X23792Y122082D01*
X24528Y122818D01*
X25048Y123719D01*
X25189Y124245D01*
D02*
G37*
G36*
X20365D02*
X17540D01*
X17681Y123719D01*
X18202Y122818D01*
X18938Y122082D01*
X19839Y121562D01*
X20365Y121421D01*
Y124245D01*
D02*
G37*
G36*
X64862Y127894D02*
X63867D01*
X62906Y127637D01*
X62044Y127139D01*
X61340Y126435D01*
X60843Y125574D01*
X60585Y124612D01*
Y123617D01*
X60843Y122656D01*
X61340Y121794D01*
X62044Y121090D01*
X62906Y120593D01*
X63867Y120335D01*
X64862D01*
X65824Y120593D01*
X66685Y121090D01*
X67389Y121794D01*
X67887Y122656D01*
X68144Y123617D01*
Y124612D01*
X67887Y125574D01*
X67389Y126435D01*
X66685Y127139D01*
X65824Y127637D01*
X64862Y127894D01*
D02*
G37*
G36*
X21857Y118985D02*
X20872D01*
X19921Y118730D01*
X19068Y118238D01*
X18372Y117541D01*
X17879Y116689D01*
X17625Y115737D01*
Y114752D01*
X17879Y113801D01*
X18372Y112948D01*
X19068Y112252D01*
X19921Y111760D01*
X20872Y111505D01*
X21857D01*
X22808Y111760D01*
X23661Y112252D01*
X24358Y112948D01*
X24850Y113801D01*
X25105Y114752D01*
Y115737D01*
X24850Y116689D01*
X24358Y117541D01*
X23661Y118238D01*
X22808Y118730D01*
X21857Y118985D01*
D02*
G37*
G36*
X64862Y117894D02*
X63867D01*
X62906Y117637D01*
X62044Y117139D01*
X61340Y116436D01*
X60843Y115574D01*
X60585Y114612D01*
Y113617D01*
X60843Y112656D01*
X61340Y111794D01*
X62044Y111091D01*
X62906Y110593D01*
X63867Y110335D01*
X64862D01*
X65824Y110593D01*
X66685Y111091D01*
X67389Y111794D01*
X67887Y112656D01*
X68144Y113617D01*
Y114612D01*
X67887Y115574D01*
X67389Y116436D01*
X66685Y117139D01*
X65824Y117637D01*
X64862Y117894D01*
D02*
G37*
G36*
X165861Y227939D02*
X162869D01*
X161978Y227762D01*
X161222Y227257D01*
X160718Y226502D01*
X160540Y225611D01*
Y222619D01*
X160718Y221728D01*
X161222Y220972D01*
X161978Y220468D01*
X162869Y220291D01*
X165861D01*
X166145Y220347D01*
X170642Y215850D01*
Y105475D01*
X168932Y103765D01*
X168144Y104091D01*
Y104612D01*
X167887Y105574D01*
X167389Y106436D01*
X166685Y107139D01*
X165823Y107637D01*
X164862Y107894D01*
X163867D01*
X162906Y107637D01*
X162044Y107139D01*
X161340Y106436D01*
X160843Y105574D01*
X160585Y104612D01*
Y103617D01*
X160843Y102656D01*
X160871Y102608D01*
X145975Y87712D01*
X145670Y87256D01*
X145564Y86719D01*
Y33613D01*
X144776Y33334D01*
X144238Y33872D01*
X143337Y34392D01*
X142811Y34533D01*
Y30709D01*
Y26884D01*
X143337Y27025D01*
X144238Y27546D01*
X144776Y28084D01*
X145564Y27804D01*
Y26448D01*
X143289Y24174D01*
X143255Y24194D01*
X142303Y24449D01*
X141319D01*
X140367Y24194D01*
X139515Y23701D01*
X138818Y23005D01*
X138326Y22152D01*
X138071Y21201D01*
Y20216D01*
X138326Y19265D01*
X138818Y18412D01*
X139515Y17716D01*
X140367Y17223D01*
X141319Y16969D01*
X142303D01*
X143255Y17223D01*
X144107Y17716D01*
X144804Y18412D01*
X145296Y19265D01*
X145551Y20216D01*
Y21201D01*
X145296Y22152D01*
X145276Y22187D01*
X147962Y24873D01*
X148266Y25328D01*
X148373Y25866D01*
Y27743D01*
X149161Y28069D01*
X149514Y27716D01*
X150367Y27223D01*
X151319Y26969D01*
X152303D01*
X153255Y27223D01*
X154107Y27716D01*
X154461Y28069D01*
X155249Y27743D01*
Y26133D01*
X153289Y24174D01*
X153255Y24194D01*
X152303Y24449D01*
X151319D01*
X150367Y24194D01*
X149514Y23701D01*
X148818Y23005D01*
X148326Y22152D01*
X148071Y21201D01*
Y20216D01*
X148326Y19265D01*
X148818Y18412D01*
X149514Y17716D01*
X150367Y17223D01*
X151319Y16969D01*
X152303D01*
X153255Y17223D01*
X154107Y17716D01*
X154804Y18412D01*
X155296Y19265D01*
X155551Y20216D01*
Y21201D01*
X155296Y22152D01*
X155276Y22187D01*
X157647Y24558D01*
X157951Y25014D01*
X158059Y25551D01*
Y28153D01*
X158718Y28378D01*
X158846Y28384D01*
X159514Y27716D01*
X160367Y27223D01*
X161319Y26969D01*
X162303D01*
X163255Y27223D01*
X164108Y27716D01*
X164804Y28412D01*
X165296Y29265D01*
X165551Y30216D01*
Y31201D01*
X165296Y32152D01*
X164804Y33005D01*
X164108Y33702D01*
X163255Y34194D01*
X162303Y34449D01*
X161319D01*
X160367Y34194D01*
X159514Y33702D01*
X158846Y33033D01*
X158718Y33039D01*
X158059Y33264D01*
Y85822D01*
X162857Y90621D01*
X162906Y90593D01*
X163867Y90335D01*
X164862D01*
X165823Y90593D01*
X166685Y91091D01*
X167389Y91794D01*
X167887Y92656D01*
X168144Y93617D01*
Y94612D01*
X167887Y95574D01*
X167389Y96435D01*
X166876Y96949D01*
X166844Y97075D01*
X166886Y97669D01*
X166968Y97886D01*
X167144Y98003D01*
X173041Y103900D01*
X173345Y104356D01*
X173452Y104893D01*
Y216432D01*
X173345Y216970D01*
X173041Y217426D01*
X168132Y222334D01*
X168189Y222619D01*
Y225611D01*
X168012Y226502D01*
X167507Y227257D01*
X166752Y227762D01*
X165861Y227939D01*
D02*
G37*
G36*
X21857Y108985D02*
X20872D01*
X19921Y108730D01*
X19068Y108238D01*
X18372Y107541D01*
X17879Y106688D01*
X17625Y105737D01*
Y104753D01*
X17879Y103801D01*
X18372Y102948D01*
X19068Y102252D01*
X19921Y101760D01*
X20872Y101505D01*
X21857D01*
X22808Y101760D01*
X23661Y102252D01*
X24358Y102948D01*
X24850Y103801D01*
X25105Y104753D01*
Y105737D01*
X24850Y106688D01*
X24358Y107541D01*
X23661Y108238D01*
X22808Y108730D01*
X21857Y108985D01*
D02*
G37*
G36*
X64862Y107894D02*
X63867D01*
X62906Y107637D01*
X62044Y107139D01*
X61340Y106436D01*
X60843Y105574D01*
X60585Y104612D01*
Y103617D01*
X60843Y102656D01*
X61340Y101794D01*
X62044Y101091D01*
X62906Y100593D01*
X63867Y100335D01*
X64862D01*
X65824Y100593D01*
X66685Y101091D01*
X67389Y101794D01*
X67887Y102656D01*
X68144Y103617D01*
Y104612D01*
X67887Y105574D01*
X67389Y106436D01*
X66685Y107139D01*
X65824Y107637D01*
X64862Y107894D01*
D02*
G37*
G36*
X21857Y98985D02*
X20872D01*
X19921Y98730D01*
X19068Y98238D01*
X18372Y97541D01*
X17879Y96688D01*
X17625Y95737D01*
Y94753D01*
X17879Y93801D01*
X18372Y92948D01*
X19068Y92252D01*
X19921Y91760D01*
X20872Y91505D01*
X21857D01*
X22808Y91760D01*
X23661Y92252D01*
X24358Y92948D01*
X24850Y93801D01*
X25105Y94753D01*
Y95737D01*
X24850Y96688D01*
X24358Y97541D01*
X23661Y98238D01*
X22808Y98730D01*
X21857Y98985D01*
D02*
G37*
G36*
X64862Y87894D02*
X63867D01*
X62906Y87637D01*
X62044Y87139D01*
X61340Y86436D01*
X60843Y85574D01*
X60585Y84612D01*
Y83617D01*
X60843Y82656D01*
X61340Y81794D01*
X62044Y81090D01*
X62906Y80593D01*
X63867Y80335D01*
X64862D01*
X65824Y80593D01*
X66685Y81090D01*
X67389Y81794D01*
X67887Y82656D01*
X68144Y83617D01*
Y84612D01*
X67887Y85574D01*
X67389Y86436D01*
X66685Y87139D01*
X65824Y87637D01*
X64862Y87894D01*
D02*
G37*
G36*
X164862D02*
X163867D01*
X162906Y87637D01*
X162044Y87139D01*
X161340Y86436D01*
X160843Y85574D01*
X160585Y84612D01*
Y83617D01*
X160843Y82656D01*
X161340Y81794D01*
X162044Y81090D01*
X162906Y80593D01*
X163867Y80335D01*
X164862D01*
X165823Y80593D01*
X165872Y80621D01*
X167842Y78651D01*
Y77096D01*
X167054Y76770D01*
X166685Y77139D01*
X165823Y77637D01*
X164862Y77894D01*
X163867D01*
X162906Y77637D01*
X162044Y77139D01*
X161340Y76436D01*
X160843Y75574D01*
X160585Y74612D01*
Y73617D01*
X160843Y72656D01*
X161340Y71794D01*
X162044Y71091D01*
X162906Y70593D01*
X163867Y70335D01*
X164862D01*
X165823Y70593D01*
X166685Y71091D01*
X167054Y71459D01*
X167842Y71133D01*
Y28726D01*
X163289Y24174D01*
X163255Y24194D01*
X162303Y24449D01*
X161319D01*
X160367Y24194D01*
X159514Y23701D01*
X158818Y23005D01*
X158326Y22152D01*
X158071Y21201D01*
Y20216D01*
X158326Y19265D01*
X158818Y18412D01*
X159514Y17716D01*
X160367Y17223D01*
X161319Y16969D01*
X162303D01*
X163255Y17223D01*
X164108Y17716D01*
X164804Y18412D01*
X165296Y19265D01*
X165551Y20216D01*
Y21201D01*
X165296Y22152D01*
X165276Y22187D01*
X170240Y27151D01*
X170545Y27607D01*
X170651Y28144D01*
Y79233D01*
X170545Y79771D01*
X170240Y80226D01*
X167859Y82608D01*
X167887Y82656D01*
X168144Y83617D01*
Y84612D01*
X167887Y85574D01*
X167389Y86436D01*
X166685Y87139D01*
X165823Y87637D01*
X164862Y87894D01*
D02*
G37*
G36*
X64862Y77894D02*
X63867D01*
X62906Y77637D01*
X62044Y77139D01*
X61340Y76436D01*
X60843Y75574D01*
X60585Y74612D01*
Y73617D01*
X60843Y72656D01*
X61340Y71794D01*
X62044Y71091D01*
X62906Y70593D01*
X63867Y70335D01*
X64862D01*
X65824Y70593D01*
X66685Y71091D01*
X67389Y71794D01*
X67887Y72656D01*
X68144Y73617D01*
Y74612D01*
X67887Y75574D01*
X67389Y76436D01*
X66685Y77139D01*
X65824Y77637D01*
X64862Y77894D01*
D02*
G37*
%LPD*%
G36*
X150406Y87141D02*
Y34204D01*
X150367Y34194D01*
X149514Y33702D01*
X149161Y33348D01*
X148373Y33674D01*
Y86137D01*
X149679Y87442D01*
X150406Y87141D01*
D02*
G37*
G36*
X160585Y94139D02*
Y93617D01*
X160843Y92656D01*
X160871Y92608D01*
X155660Y87397D01*
X155356Y86941D01*
X155249Y86404D01*
Y33674D01*
X154461Y33348D01*
X154107Y33702D01*
X153255Y34194D01*
X153216Y34204D01*
Y87883D01*
X159798Y94465D01*
X160585Y94139D01*
D02*
G37*
D19*
X164365Y224115D02*
X172047Y216432D01*
Y104893D02*
Y216432D01*
X166151Y98997D02*
X172047Y104893D01*
X162343Y98997D02*
X166151D01*
X151811Y88465D02*
X162343Y98997D01*
X151811Y30709D02*
Y88465D01*
X156653Y25551D02*
Y86404D01*
X164365Y94115D01*
Y84115D02*
X169247Y79233D01*
Y28144D02*
Y79233D01*
X161811Y20709D02*
X169247Y28144D01*
X151811Y20709D02*
X156653Y25551D01*
X146968Y86719D02*
X164365Y104115D01*
X146968Y25866D02*
Y86719D01*
X141811Y20709D02*
X146968Y25866D01*
X136969Y86719D02*
X164365Y114115D01*
X136969Y25866D02*
Y86719D01*
X131811Y20709D02*
X136969Y25866D01*
X126969D02*
Y86719D01*
X121811Y20709D02*
X126969Y25866D01*
Y86719D02*
X164365Y124115D01*
X116969Y96719D02*
X164365Y144115D01*
X116969Y25866D02*
Y96719D01*
X111811Y20709D02*
X116969Y25866D01*
X106968D02*
Y96719D01*
X101811Y20709D02*
X106968Y25866D01*
Y96719D02*
X164365Y154115D01*
X96969Y96719D02*
X164365Y164115D01*
X96969Y25866D02*
Y96719D01*
X91811Y20709D02*
X96969Y25866D01*
X91732Y101482D02*
X164365Y174115D01*
X91732Y40551D02*
Y101482D01*
X81811Y20709D02*
X86968Y25866D01*
Y35787D01*
X91732Y40551D01*
X76968Y25866D02*
Y36417D01*
X85433Y44882D01*
X71811Y20709D02*
X76968Y25866D01*
X85433Y105183D02*
X164365Y184115D01*
X85433Y44882D02*
Y105183D01*
X79921Y48819D02*
Y109671D01*
X164365Y194115D01*
X74803Y53543D02*
Y114553D01*
X164365Y204115D01*
X61811Y20709D02*
X66969Y25866D01*
Y35866D01*
X79921Y48819D01*
X56968Y35709D02*
X74803Y53543D01*
X56968Y25866D02*
Y35709D01*
X51811Y20709D02*
X56968Y25866D01*
X12598Y126479D02*
X21365Y135245D01*
X12598Y74410D02*
Y126479D01*
Y74410D02*
X16605Y70402D01*
X53068Y94115D02*
X64365D01*
X29356Y70402D02*
X53068Y94115D01*
X16605Y70402D02*
X29356D01*
X21365Y85245D02*
X47723Y111603D01*
Y127473D01*
X64365Y144115D01*
D20*
X63504Y255118D02*
D03*
X123740D02*
D03*
X51811Y20709D02*
D03*
X61811D02*
D03*
X161811Y30709D02*
D03*
X151811D02*
D03*
X121811D02*
D03*
X141811Y20709D02*
D03*
X111811Y30709D02*
D03*
X131811Y20709D02*
D03*
X101811Y30709D02*
D03*
X121811Y20709D02*
D03*
X91811Y30709D02*
D03*
X111811Y20709D02*
D03*
X81811Y30709D02*
D03*
X101811Y20709D02*
D03*
X71811Y30709D02*
D03*
X91811Y20709D02*
D03*
X61811Y30709D02*
D03*
X81811Y20709D02*
D03*
X71811D02*
D03*
X131811Y30709D02*
D03*
X141811D02*
D03*
X151811Y20709D02*
D03*
X161811D02*
D03*
X22047Y172835D02*
D03*
Y182835D02*
D03*
Y192835D02*
D03*
Y202835D02*
D03*
Y212835D02*
D03*
Y222835D02*
D03*
Y232835D02*
D03*
X21365Y75245D02*
D03*
Y85245D02*
D03*
Y95245D02*
D03*
Y105245D02*
D03*
Y115245D02*
D03*
Y125245D02*
D03*
Y135245D02*
D03*
D21*
X73504Y255118D02*
D03*
X133740D02*
D03*
X22047Y242835D02*
D03*
X21365Y145245D02*
D03*
D22*
X51811Y30709D02*
D03*
D23*
X164365Y114115D02*
D03*
Y134115D02*
D03*
Y164115D02*
D03*
Y204115D02*
D03*
Y214115D02*
D03*
Y194115D02*
D03*
Y184115D02*
D03*
Y174115D02*
D03*
Y154115D02*
D03*
Y144115D02*
D03*
Y124115D02*
D03*
Y104115D02*
D03*
Y94115D02*
D03*
Y84115D02*
D03*
Y74115D02*
D03*
X64365D02*
D03*
Y84115D02*
D03*
Y94115D02*
D03*
Y104115D02*
D03*
Y124115D02*
D03*
Y144115D02*
D03*
Y154115D02*
D03*
Y174115D02*
D03*
Y184115D02*
D03*
Y194115D02*
D03*
Y214115D02*
D03*
Y204115D02*
D03*
Y164115D02*
D03*
Y134115D02*
D03*
Y114115D02*
D03*
D24*
X164365Y224115D02*
D03*
X64365D02*
D03*
D25*
X20866Y275197D02*
D03*
Y20866D02*
D03*
X162205Y275197D02*
D03*
M02*
